<?xml version="1.0" encoding="UTF-8" standalone="no"?>
<!DOCTYPE svg PUBLIC "-//W3C//DTD SVG 1.1//EN"
 "http://www.w3.org/Graphics/SVG/1.1/DTD/svg11.dtd">
<!-- Generated by graphviz version 16.0.0 (20260814.1018)
 -->
<!-- This file was generated by MAM-basics/py/main_pipeline_graph.py. -->
<!-- Title: mam_pipeline Pages: 1 -->
<svg width="1364pt" height="504pt"
 viewBox="0.00 0.00 1364.00 504.00" xmlns="http://www.w3.org/2000/svg" xmlns:xlink="http://www.w3.org/1999/xlink">
<g id="graph0" class="graph" transform="scale(1 1) rotate(0) translate(4 500)">
<title>mam_pipeline</title>
<polygon fill="white" stroke="none" points="-4,4 -4,-500 1359.5,-500 1359.5,4 -4,4"/>
<!-- ds_parsed_plus -->
<g id="node1" class="node">
<title>ds_parsed_plus</title>
<path fill="none" stroke="black" d="M789,-275.73C789,-277.53 767.6,-279 741.25,-279 714.9,-279 693.5,-277.53 693.5,-275.73 693.5,-275.73 693.5,-246.27 693.5,-246.27 693.5,-244.47 714.9,-243 741.25,-243 767.6,-243 789,-244.47 789,-246.27 789,-246.27 789,-275.73 789,-275.73"/>
<path fill="none" stroke="black" d="M789,-275.73C789,-273.92 767.6,-272.45 741.25,-272.45 714.9,-272.45 693.5,-273.92 693.5,-275.73"/>
<text xml:space="preserve" text-anchor="middle" x="741.25" y="-257.5" font-family="Helvetica,sans-Serif" font-size="10.00">MAM&#45;parsed/plus/</text>
</g>
<!-- foi -->
<g id="node13" class="node">
<title>foi</title>
<polygon fill="none" stroke="black" points="943,-252 825,-252 825,-216 943,-216 943,-252"/>
<text xml:space="preserve" text-anchor="middle" x="884" y="-230.5" font-family="Helvetica,sans-Serif" font-size="10.00">foi_features_of_interest</text>
</g>
<!-- ds_parsed_plus&#45;&gt;foi -->
<g id="edge1" class="edge">
<title>ds_parsed_plus&#45;&gt;foi</title>
<path fill="none" stroke="black" d="M789.12,-252.01C796.92,-250.51 805.17,-248.93 813.4,-247.35"/>
<polygon fill="black" stroke="black" points="813.92,-250.82 823.08,-245.49 812.6,-243.94 813.92,-250.82"/>
</g>
<!-- mam_with_doc -->
<g id="node14" class="node">
<title>mam_with_doc</title>
<polygon fill="none" stroke="black" points="925,-198 843,-198 843,-162 925,-162 925,-198"/>
<text xml:space="preserve" text-anchor="middle" x="884" y="-176.5" font-family="Helvetica,sans-Serif" font-size="10.00">mam_with_doc</text>
</g>
<!-- ds_parsed_plus&#45;&gt;mam_with_doc -->
<g id="edge2" class="edge">
<title>ds_parsed_plus&#45;&gt;mam_with_doc</title>
<path fill="none" stroke="black" d="M768.12,-242.75C784.15,-231.79 805.35,-217.91 825,-207 827.46,-205.63 830.01,-204.27 832.6,-202.93"/>
<polygon fill="black" stroke="black" points="833.97,-206.15 841.34,-198.54 830.83,-199.9 833.97,-206.15"/>
</g>
<!-- tmpl_survey -->
<g id="node15" class="node">
<title>tmpl_survey</title>
<polygon fill="none" stroke="black" points="918.62,-360 849.38,-360 849.38,-324 918.62,-324 918.62,-360"/>
<text xml:space="preserve" text-anchor="middle" x="884" y="-338.5" font-family="Helvetica,sans-Serif" font-size="10.00">tmpl_survey</text>
</g>
<!-- ds_parsed_plus&#45;&gt;tmpl_survey -->
<g id="edge5" class="edge">
<title>ds_parsed_plus&#45;&gt;tmpl_survey</title>
<path fill="none" stroke="black" d="M768.12,-279.25C784.15,-290.21 805.35,-304.09 825,-315 829.43,-317.46 834.13,-319.91 838.86,-322.26"/>
<polygon fill="black" stroke="black" points="837.27,-325.38 847.8,-326.58 840.32,-319.08 837.27,-325.38"/>
</g>
<!-- mam_simple -->
<g id="node16" class="node">
<title>mam_simple</title>
<polygon fill="none" stroke="black" points="919.75,-90 848.25,-90 848.25,-54 919.75,-54 919.75,-90"/>
<text xml:space="preserve" text-anchor="middle" x="884" y="-68.5" font-family="Helvetica,sans-Serif" font-size="10.00">mam_simple</text>
</g>
<!-- ds_parsed_plus&#45;&gt;mam_simple -->
<g id="edge3" class="edge">
<title>ds_parsed_plus&#45;&gt;mam_simple</title>
<path fill="none" stroke="black" d="M747.3,-242.55C757.14,-209.71 781.8,-140.65 825,-99 828.85,-95.29 833.29,-92.03 837.98,-89.16"/>
<polygon fill="black" stroke="black" points="839.36,-92.4 846.49,-84.57 836.03,-86.24 839.36,-92.4"/>
</g>
<!-- misc_1 -->
<g id="node19" class="node">
<title>misc_1</title>
<g id="a_node19"><a xlink:title="decnreub&#10;multimark&#10;wordlist&#10;explicit_xataf&#10;diff ctr&#45;vs&#45;mam">
<polygon fill="none" stroke="black" points="911,-306 857,-306 857,-270 911,-270 911,-306"/>
<text xml:space="preserve" text-anchor="middle" x="884" y="-284.5" font-family="Helvetica,sans-Serif" font-size="10.00">misc&#45;1</text>
</a>
</g>
</g>
<!-- ds_parsed_plus&#45;&gt;misc_1 -->
<g id="edge4" class="edge">
<title>ds_parsed_plus&#45;&gt;misc_1</title>
<path fill="none" stroke="black" d="M789.12,-269.99C807.62,-273.54 828.56,-277.56 845.97,-280.9"/>
<polygon fill="black" stroke="black" points="844.87,-284.25 855.35,-282.7 846.19,-277.37 844.87,-284.25"/>
</g>
<!-- ds_ws -->
<g id="node2" class="node">
<title>ds_ws</title>
<path fill="none" stroke="black" d="M565.75,-391C565.75,-393.21 543.17,-395 515.38,-395 487.58,-395 465,-393.21 465,-391 465,-391 465,-355 465,-355 465,-352.79 487.58,-351 515.38,-351 543.17,-351 565.75,-352.79 565.75,-355 565.75,-355 565.75,-391 565.75,-391"/>
<path fill="none" stroke="black" d="M565.75,-391C565.75,-388.79 543.17,-387 515.38,-387 487.58,-387 465,-388.79 465,-391"/>
<text xml:space="preserve" text-anchor="middle" x="515.38" y="-375.5" font-family="Helvetica,sans-Serif" font-size="10.00">in/mam&#45;ws/</text>
<text xml:space="preserve" text-anchor="middle" x="515.38" y="-363.5" font-family="Helvetica,sans-Serif" font-size="10.00">(Wikisource JSON)</text>
</g>
<!-- parse_ws -->
<g id="node12" class="node">
<title>parse_ws</title>
<polygon fill="none" stroke="black" points="657.5,-391 601.75,-391 601.75,-355 657.5,-355 657.5,-391"/>
<text xml:space="preserve" text-anchor="middle" x="629.62" y="-369.5" font-family="Helvetica,sans-Serif" font-size="10.00">parse ws</text>
</g>
<!-- ds_ws&#45;&gt;parse_ws -->
<g id="edge22" class="edge">
<title>ds_ws&#45;&gt;parse_ws</title>
<path fill="none" stroke="black" d="M565.94,-373C574.05,-373 582.35,-373 590.14,-373"/>
<polygon fill="black" stroke="black" points="589.97,-376.5 599.97,-373 589.97,-369.5 589.97,-376.5"/>
</g>
<!-- misc_3 -->
<g id="node20" class="node">
<title>misc_3</title>
<polygon fill="none" stroke="black" points="768.25,-452 714.25,-452 714.25,-416 768.25,-416 768.25,-452"/>
<text xml:space="preserve" text-anchor="middle" x="741.25" y="-430.5" font-family="Helvetica,sans-Serif" font-size="10.00">misc&#45;3</text>
</g>
<!-- ds_ws&#45;&gt;misc_3 -->
<g id="edge24" class="edge">
<title>ds_ws&#45;&gt;misc_3</title>
<path fill="none" stroke="black" d="M565.87,-389.26C577.59,-392.94 590.08,-396.72 601.75,-400 635.8,-409.55 674.96,-419.03 702.94,-425.54"/>
<polygon fill="black" stroke="black" points="701.82,-428.87 712.35,-427.71 703.39,-422.05 701.82,-428.87"/>
</g>
<!-- ds_ws_special -->
<g id="node3" class="node">
<title>ds_ws_special</title>
<path fill="none" stroke="black" d="M565.75,-453C565.75,-455.21 543.17,-457 515.38,-457 487.58,-457 465,-455.21 465,-453 465,-453 465,-417 465,-417 465,-414.79 487.58,-413 515.38,-413 543.17,-413 565.75,-414.79 565.75,-417 565.75,-417 565.75,-453 565.75,-453"/>
<path fill="none" stroke="black" d="M565.75,-453C565.75,-450.79 543.17,-449 515.38,-449 487.58,-449 465,-450.79 465,-453"/>
<text xml:space="preserve" text-anchor="middle" x="515.38" y="-437.5" font-family="Helvetica,sans-Serif" font-size="10.00">in/mam&#45;ws&#45;special/</text>
<text xml:space="preserve" text-anchor="middle" x="515.38" y="-425.5" font-family="Helvetica,sans-Serif" font-size="10.00">(raw Wikitext)</text>
</g>
<!-- src_ws_live -->
<g id="node4" class="node">
<title>src_ws_live</title>
<path fill="none" stroke="black" d="M277.25,-415.73C277.25,-417.53 254.5,-419 226.5,-419 198.5,-419 175.75,-417.53 175.75,-415.73 175.75,-415.73 175.75,-386.27 175.75,-386.27 175.75,-384.47 198.5,-383 226.5,-383 254.5,-383 277.25,-384.47 277.25,-386.27 277.25,-386.27 277.25,-415.73 277.25,-415.73"/>
<path fill="none" stroke="black" d="M277.25,-415.73C277.25,-413.92 254.5,-412.45 226.5,-412.45 198.5,-412.45 175.75,-413.92 175.75,-415.73"/>
<text xml:space="preserve" text-anchor="middle" x="226.5" y="-397.5" font-family="Helvetica,sans-Serif" font-size="10.00">Hebrew Wikisource</text>
</g>
<!-- download_ws -->
<g id="node11" class="node">
<title>download_ws</title>
<polygon fill="none" stroke="black" points="429,-419 313.25,-419 313.25,-383 429,-383 429,-419"/>
<text xml:space="preserve" text-anchor="middle" x="371.12" y="-397.5" font-family="Helvetica,sans-Serif" font-size="10.00">download fr&#45;wikisource</text>
</g>
<!-- src_ws_live&#45;&gt;download_ws -->
<g id="edge19" class="edge">
<title>src_ws_live&#45;&gt;download_ws</title>
<path fill="none" stroke="black" d="M277.38,-401C285.25,-401 293.49,-401 301.69,-401"/>
<polygon fill="black" stroke="black" points="301.68,-404.5 311.68,-401 301.68,-397.5 301.68,-404.5"/>
</g>
<!-- archive_google_sheet -->
<g id="node5" class="node">
<title>archive_google_sheet</title>
<polygon fill="none" stroke="#8c8c8c" stroke-dasharray="5,2" points="133.75,-496 0,-496 0,-460 139.75,-460 139.75,-490 133.75,-496"/>
<polyline fill="none" stroke="#8c8c8c" stroke-dasharray="5,2" points="133.75,-496 133.75,-490"/>
<polyline fill="none" stroke="#8c8c8c" stroke-dasharray="5,2" points="139.75,-490 133.75,-490"/>
<text xml:space="preserve" text-anchor="middle" x="69.88" y="-480.5" font-family="Helvetica,sans-Serif" font-size="10.00" fill="#595959">MAM Google Sheet</text>
<text xml:space="preserve" text-anchor="middle" x="69.88" y="-468.5" font-family="Helvetica,sans-Serif" font-size="10.00" fill="#595959">(frozen September 12, 2026)</text>
</g>
<!-- ds_simple -->
<g id="node6" class="node">
<title>ds_simple</title>
<path fill="none" stroke="black" d="M1078.25,-86.73C1078.25,-88.53 1061.72,-90 1041.38,-90 1021.03,-90 1004.5,-88.53 1004.5,-86.73 1004.5,-86.73 1004.5,-57.27 1004.5,-57.27 1004.5,-55.47 1021.03,-54 1041.38,-54 1061.72,-54 1078.25,-55.47 1078.25,-57.27 1078.25,-57.27 1078.25,-86.73 1078.25,-86.73"/>
<path fill="none" stroke="black" d="M1078.25,-86.73C1078.25,-84.92 1061.72,-83.45 1041.38,-83.45 1021.03,-83.45 1004.5,-84.92 1004.5,-86.73"/>
<text xml:space="preserve" text-anchor="middle" x="1041.38" y="-68.5" font-family="Helvetica,sans-Serif" font-size="10.00">MAM&#45;simple/</text>
</g>
<!-- misc_2 -->
<g id="node17" class="node">
<title>misc_2</title>
<polygon fill="none" stroke="black" points="1211.5,-144 1157.5,-144 1157.5,-108 1211.5,-108 1211.5,-144"/>
<text xml:space="preserve" text-anchor="middle" x="1184.5" y="-122.5" font-family="Helvetica,sans-Serif" font-size="10.00">misc&#45;2</text>
</g>
<!-- ds_simple&#45;&gt;misc_2 -->
<g id="edge10" class="edge">
<title>ds_simple&#45;&gt;misc_2</title>
<path fill="none" stroke="black" d="M1078.72,-85.91C1099.49,-93.85 1125.47,-103.8 1146.37,-111.79"/>
<polygon fill="black" stroke="black" points="1145.08,-115.05 1155.67,-115.35 1147.58,-108.51 1145.08,-115.05"/>
</g>
<!-- osis -->
<g id="node18" class="node">
<title>osis</title>
<polygon fill="none" stroke="black" points="1211.5,-36 1157.5,-36 1157.5,0 1211.5,0 1211.5,-36"/>
<text xml:space="preserve" text-anchor="middle" x="1184.5" y="-14.5" font-family="Helvetica,sans-Serif" font-size="10.00">osis</text>
</g>
<!-- ds_simple&#45;&gt;osis -->
<g id="edge11" class="edge">
<title>ds_simple&#45;&gt;osis</title>
<path fill="none" stroke="black" d="M1078.72,-58.09C1099.49,-50.15 1125.47,-40.2 1146.37,-32.21"/>
<polygon fill="black" stroke="black" points="1147.58,-35.49 1155.67,-28.65 1145.08,-28.95 1147.58,-35.49"/>
</g>
<!-- ds_with_doc -->
<g id="node7" class="node">
<title>ds_with_doc</title>
<path fill="none" stroke="black" d="M1103.75,-194.73C1103.75,-196.53 1075.79,-198 1041.38,-198 1006.96,-198 979,-196.53 979,-194.73 979,-194.73 979,-165.27 979,-165.27 979,-163.47 1006.96,-162 1041.38,-162 1075.79,-162 1103.75,-163.47 1103.75,-165.27 1103.75,-165.27 1103.75,-194.73 1103.75,-194.73"/>
<path fill="none" stroke="black" d="M1103.75,-194.73C1103.75,-192.92 1075.79,-191.45 1041.38,-191.45 1006.96,-191.45 979,-192.92 979,-194.73"/>
<text xml:space="preserve" text-anchor="middle" x="1041.38" y="-176.5" font-family="Helvetica,sans-Serif" font-size="10.00">gh&#45;pages/MAM&#45;with&#45;doc/</text>
</g>
<!-- ds_sefaria -->
<g id="node8" class="node">
<title>ds_sefaria</title>
<path fill="none" stroke="black" d="M1355.5,-140.73C1355.5,-142.53 1335.27,-144 1310.38,-144 1285.48,-144 1265.25,-142.53 1265.25,-140.73 1265.25,-140.73 1265.25,-111.27 1265.25,-111.27 1265.25,-109.47 1285.48,-108 1310.38,-108 1335.27,-108 1355.5,-109.47 1355.5,-111.27 1355.5,-111.27 1355.5,-140.73 1355.5,-140.73"/>
<path fill="none" stroke="black" d="M1355.5,-140.73C1355.5,-138.92 1335.27,-137.45 1310.38,-137.45 1285.48,-137.45 1265.25,-138.92 1265.25,-140.73"/>
<text xml:space="preserve" text-anchor="middle" x="1310.38" y="-122.5" font-family="Helvetica,sans-Serif" font-size="10.00">MAM&#45;for&#45;Sefaria/</text>
</g>
<!-- ds_osis -->
<g id="node9" class="node">
<title>ds_osis</title>
<path fill="none" stroke="black" d="M1345,-59.73C1345,-61.53 1329.48,-63 1310.38,-63 1291.27,-63 1275.75,-61.53 1275.75,-59.73 1275.75,-59.73 1275.75,-30.27 1275.75,-30.27 1275.75,-28.47 1291.27,-27 1310.38,-27 1329.48,-27 1345,-28.47 1345,-30.27 1345,-30.27 1345,-59.73 1345,-59.73"/>
<path fill="none" stroke="black" d="M1345,-59.73C1345,-57.92 1329.48,-56.45 1310.38,-56.45 1291.27,-56.45 1275.75,-57.92 1275.75,-59.73"/>
<text xml:space="preserve" text-anchor="middle" x="1310.38" y="-41.5" font-family="Helvetica,sans-Serif" font-size="10.00">MAM&#45;OSIS/</text>
</g>
<!-- ds_out -->
<g id="node10" class="node">
<title>ds_out</title>
<path fill="none" stroke="black" d="M1080.12,-406C1080.12,-408.21 1062.76,-410 1041.38,-410 1019.99,-410 1002.62,-408.21 1002.62,-406 1002.62,-406 1002.62,-370 1002.62,-370 1002.62,-367.79 1019.99,-366 1041.38,-366 1062.76,-366 1080.12,-367.79 1080.12,-370 1080.12,-370 1080.12,-406 1080.12,-406"/>
<path fill="none" stroke="black" d="M1080.12,-406C1080.12,-403.79 1062.76,-402 1041.38,-402 1019.99,-402 1002.62,-403.79 1002.62,-406"/>
<text xml:space="preserve" text-anchor="middle" x="1041.38" y="-390.5" font-family="Helvetica,sans-Serif" font-size="10.00">out/</text>
<text xml:space="preserve" text-anchor="middle" x="1041.38" y="-378.5" font-family="Helvetica,sans-Serif" font-size="10.00">(local outputs)</text>
</g>
<!-- download_ws&#45;&gt;ds_ws -->
<g id="edge20" class="edge">
<title>download_ws&#45;&gt;ds_ws</title>
<path fill="none" stroke="black" d="M429.16,-389.77C437.15,-388.2 445.38,-386.58 453.44,-385"/>
<polygon fill="black" stroke="black" points="454.04,-388.44 463.18,-383.08 452.69,-381.58 454.04,-388.44"/>
</g>
<!-- download_ws&#45;&gt;ds_ws_special -->
<g id="edge21" class="edge">
<title>download_ws&#45;&gt;ds_ws_special</title>
<path fill="none" stroke="black" d="M429.16,-414.63C437.24,-416.56 445.57,-418.55 453.71,-420.5"/>
<polygon fill="black" stroke="black" points="452.65,-423.84 463.19,-422.77 454.28,-417.04 452.65,-423.84"/>
</g>
<!-- parse_ws&#45;&gt;ds_parsed_plus -->
<g id="edge23" class="edge">
<title>parse_ws&#45;&gt;ds_parsed_plus</title>
<path fill="none" stroke="black" d="M648.73,-354.51C666.69,-336.16 694.38,-307.87 714.6,-287.21"/>
<polygon fill="black" stroke="black" points="716.93,-289.83 721.43,-280.23 711.93,-284.93 716.93,-289.83"/>
</g>
<!-- parse_ws&#45;&gt;ds_out -->
<g id="edge17" class="edge">
<title>parse_ws&#45;&gt;ds_out</title>
<path fill="none" stroke="black" d="M657.83,-374C725.75,-376.48 903.6,-382.99 990.77,-386.18"/>
<polygon fill="black" stroke="black" points="990.56,-389.68 1000.68,-386.55 990.82,-382.68 990.56,-389.68"/>
</g>
<!-- foi&#45;&gt;ds_with_doc -->
<g id="edge6" class="edge">
<title>foi&#45;&gt;ds_with_doc</title>
<path fill="none" stroke="black" d="M938.04,-215.57C951.29,-210.96 965.6,-205.99 979.21,-201.26"/>
<polygon fill="black" stroke="black" points="980.21,-204.62 988.51,-198.03 977.91,-198 980.21,-204.62"/>
</g>
<!-- mam_with_doc&#45;&gt;ds_with_doc -->
<g id="edge7" class="edge">
<title>mam_with_doc&#45;&gt;ds_with_doc</title>
<path fill="none" stroke="black" d="M925.42,-180C938.26,-180 952.88,-180 967.29,-180"/>
<polygon fill="black" stroke="black" points="967.25,-183.5 977.25,-180 967.25,-176.5 967.25,-183.5"/>
</g>
<!-- tmpl_survey&#45;&gt;ds_out -->
<g id="edge15" class="edge">
<title>tmpl_survey&#45;&gt;ds_out</title>
<path fill="none" stroke="black" d="M919.1,-352.09C940.3,-358.37 967.92,-366.55 991.44,-373.51"/>
<polygon fill="black" stroke="black" points="990.23,-376.8 1000.81,-376.29 992.22,-370.09 990.23,-376.8"/>
</g>
<!-- mam_simple&#45;&gt;ds_simple -->
<g id="edge9" class="edge">
<title>mam_simple&#45;&gt;ds_simple</title>
<path fill="none" stroke="black" d="M919.87,-72C941.3,-72 969.05,-72 992.52,-72"/>
<polygon fill="black" stroke="black" points="992.49,-75.5 1002.49,-72 992.49,-68.5 992.49,-75.5"/>
</g>
<!-- misc_2&#45;&gt;ds_sefaria -->
<g id="edge12" class="edge">
<title>misc_2&#45;&gt;ds_sefaria</title>
<path fill="none" stroke="black" d="M1211.77,-126C1224.11,-126 1239.31,-126 1254.01,-126"/>
<polygon fill="black" stroke="black" points="1253.59,-129.5 1263.59,-126 1253.59,-122.5 1253.59,-129.5"/>
</g>
<!-- osis&#45;&gt;ds_osis -->
<g id="edge13" class="edge">
<title>osis&#45;&gt;ds_osis</title>
<path fill="none" stroke="black" d="M1211.77,-23.73C1227.11,-27.07 1246.87,-31.38 1264.6,-35.24"/>
<polygon fill="black" stroke="black" points="1263.6,-38.61 1274.12,-37.32 1265.09,-31.77 1263.6,-38.61"/>
</g>
<!-- misc_1&#45;&gt;ds_out -->
<g id="edge16" class="edge">
<title>misc_1&#45;&gt;ds_out</title>
<path fill="none" stroke="black" d="M911.29,-298.85C921.44,-303.39 932.99,-309.01 943,-315 964.77,-328.03 987.54,-344.9 1005.58,-359.14"/>
<polygon fill="black" stroke="black" points="1003.37,-361.85 1013.37,-365.36 1007.74,-356.38 1003.37,-361.85"/>
</g>
<!-- misc_3&#45;&gt;ds_out -->
<g id="edge18" class="edge">
<title>misc_3&#45;&gt;ds_out</title>
<path fill="none" stroke="black" d="M768.71,-429.92C818.61,-422.22 927.35,-405.44 991.08,-395.61"/>
<polygon fill="black" stroke="black" points="991.59,-399.07 1000.94,-394.08 990.52,-392.15 991.59,-399.07"/>
</g>
<!-- ws_bot -->
<g id="node21" class="node">
<title>ws_bot</title>
<polygon fill="none" stroke="black" points="103,-442 36.75,-442 36.75,-406 103,-406 103,-442"/>
<text xml:space="preserve" text-anchor="middle" x="69.88" y="-420.5" font-family="Helvetica,sans-Serif" font-size="10.00">ws_bot real</text>
</g>
<!-- ws_bot&#45;&gt;ds_ws -->
<g id="edge26" class="edge">
<title>ws_bot&#45;&gt;ds_ws</title>
<path fill="none" stroke="black" d="M100.32,-405.61C120.66,-394.02 148.81,-380.14 175.75,-374 270.71,-352.37 384.58,-358.32 453.11,-365.21"/>
<polygon fill="black" stroke="black" points="452.72,-368.69 463.03,-366.25 453.45,-361.72 452.72,-368.69"/>
</g>
<!-- ws_bot&#45;&gt;ds_ws_special -->
<g id="edge27" class="edge">
<title>ws_bot&#45;&gt;ds_ws_special</title>
<path fill="none" stroke="black" d="M103.47,-425.39C124.17,-426.24 151.53,-427.29 175.75,-428 272.84,-430.85 385.63,-432.94 453.43,-434.06"/>
<polygon fill="black" stroke="black" points="453.17,-437.56 463.22,-434.22 453.28,-430.56 453.17,-437.56"/>
</g>
<!-- ws_bot&#45;&gt;src_ws_live -->
<g id="edge25" class="edge">
<title>ws_bot&#45;&gt;src_ws_live</title>
<path fill="none" stroke="black" d="M103.29,-419.18C120.92,-416.56 143.33,-413.22 164.12,-410.13"/>
<polygon fill="black" stroke="black" points="164.59,-413.6 173.97,-408.66 163.56,-406.67 164.59,-413.6"/>
</g>
<!-- ws_bot&#45;&gt;ds_out -->
<g id="edge28" class="edge">
<title>ws_bot&#45;&gt;ds_out</title>
<g id="a_edge28"><a xlink:title="via automatic post&#45;download reparse">
<path fill="none" stroke="black" d="M103.2,-435.05C157.61,-452.63 271.24,-485 370.12,-485 370.12,-485 370.12,-485 742.25,-485 834.48,-485 935.23,-442.5 992.82,-413.76"/>
<polygon fill="black" stroke="black" points="994.37,-416.9 1001.7,-409.26 991.2,-410.66 994.37,-416.9"/>
</a>
</g>
</g>
<!-- gen_docs -->
<g id="node22" class="node">
<title>gen_docs</title>
<polygon fill="none" stroke="black" points="938.5,-144 829.5,-144 829.5,-108 938.5,-108 938.5,-144"/>
<text xml:space="preserve" text-anchor="middle" x="884" y="-122.5" font-family="Helvetica,sans-Serif" font-size="10.00">...english_documents</text>
</g>
<!-- gen_docs&#45;&gt;ds_with_doc -->
<g id="edge8" class="edge">
<title>gen_docs&#45;&gt;ds_with_doc</title>
<path fill="none" stroke="black" d="M938.04,-144.43C951.29,-149.04 965.6,-154.01 979.21,-158.74"/>
<polygon fill="black" stroke="black" points="977.91,-162 988.51,-161.97 980.21,-155.38 977.91,-162"/>
</g>
<!-- osis_split -->
<g id="node23" class="node">
<title>osis_split</title>
<polygon fill="none" stroke="black" points="1229.25,-90 1139.75,-90 1139.75,-54 1229.25,-54 1229.25,-90"/>
<text xml:space="preserve" text-anchor="middle" x="1184.5" y="-68.5" font-family="Helvetica,sans-Serif" font-size="10.00">osis_split_mapm</text>
</g>
<!-- osis_split&#45;&gt;ds_osis -->
<g id="edge14" class="edge">
<title>osis_split&#45;&gt;ds_osis</title>
<path fill="none" stroke="black" d="M1229.52,-62.4C1240.89,-59.93 1253.14,-57.26 1264.55,-54.77"/>
<polygon fill="black" stroke="black" points="1265.12,-58.23 1274.14,-52.68 1263.63,-51.39 1265.12,-58.23"/>
</g>
</g>
</svg>
