<?xml version="1.0" encoding="UTF-8" standalone="no"?>
<!DOCTYPE svg PUBLIC "-//W3C//DTD SVG 1.1//EN"
 "http://www.w3.org/Graphics/SVG/1.1/DTD/svg11.dtd">
<!-- Generated by graphviz version 16.0.0 (20260814.1018)
 -->
<!-- This file was generated by MAM-basics/py/main_pipeline_graph.py. -->
<!-- Title: mam_pipeline Pages: 1 -->
<svg width="1364pt" height="439pt"
 viewBox="0.00 0.00 1364.00 439.00" xmlns="http://www.w3.org/2000/svg" xmlns:xlink="http://www.w3.org/1999/xlink">
<g id="graph0" class="graph" transform="scale(1 1) rotate(0) translate(4 435)">
<title>mam_pipeline</title>
<polygon fill="white" stroke="none" points="-4,4 -4,-435 1359.5,-435 1359.5,4 -4,4"/>
<!-- ds_parsed_plus -->
<g id="node1" class="node">
<title>ds_parsed_plus</title>
<path fill="none" stroke="black" d="M789,-238.73C789,-240.53 767.6,-242 741.25,-242 714.9,-242 693.5,-240.53 693.5,-238.73 693.5,-238.73 693.5,-209.27 693.5,-209.27 693.5,-207.47 714.9,-206 741.25,-206 767.6,-206 789,-207.47 789,-209.27 789,-209.27 789,-238.73 789,-238.73"/>
<path fill="none" stroke="black" d="M789,-238.73C789,-236.92 767.6,-235.45 741.25,-235.45 714.9,-235.45 693.5,-236.92 693.5,-238.73"/>
<text xml:space="preserve" text-anchor="middle" x="741.25" y="-220.5" font-family="Helvetica,sans-Serif" font-size="10.00">MAM&#45;parsed/plus/</text>
</g>
<!-- foi -->
<g id="node13" class="node">
<title>foi</title>
<polygon fill="none" stroke="black" points="943,-377 825,-377 825,-341 943,-341 943,-377"/>
<text xml:space="preserve" text-anchor="middle" x="884" y="-355.5" font-family="Helvetica,sans-Serif" font-size="10.00">foi_features_of_interest</text>
</g>
<!-- ds_parsed_plus&#45;&gt;foi -->
<g id="edge1" class="edge">
<title>ds_parsed_plus&#45;&gt;foi</title>
<path fill="none" stroke="black" d="M752.42,-242.23C766.24,-265.63 792.95,-306.27 825,-332 826.1,-332.88 827.23,-333.74 828.38,-334.58"/>
<polygon fill="black" stroke="black" points="826.12,-337.28 836.42,-339.76 829.92,-331.4 826.12,-337.28"/>
</g>
<!-- mam_with_doc -->
<g id="node14" class="node">
<title>mam_with_doc</title>
<polygon fill="none" stroke="black" points="925,-323 843,-323 843,-287 925,-287 925,-323"/>
<text xml:space="preserve" text-anchor="middle" x="884" y="-301.5" font-family="Helvetica,sans-Serif" font-size="10.00">mam_with_doc</text>
</g>
<!-- ds_parsed_plus&#45;&gt;mam_with_doc -->
<g id="edge2" class="edge">
<title>ds_parsed_plus&#45;&gt;mam_with_doc</title>
<path fill="none" stroke="black" d="M768.12,-242.25C784.15,-253.21 805.35,-267.09 825,-278 827.46,-279.37 830.01,-280.73 832.6,-282.07"/>
<polygon fill="black" stroke="black" points="830.83,-285.1 841.34,-286.46 833.97,-278.85 830.83,-285.1"/>
</g>
<!-- tmpl_survey -->
<g id="node15" class="node">
<title>tmpl_survey</title>
<polygon fill="none" stroke="black" points="918.62,-215 849.38,-215 849.38,-179 918.62,-179 918.62,-215"/>
<text xml:space="preserve" text-anchor="middle" x="884" y="-193.5" font-family="Helvetica,sans-Serif" font-size="10.00">tmpl_survey</text>
</g>
<!-- ds_parsed_plus&#45;&gt;tmpl_survey -->
<g id="edge5" class="edge">
<title>ds_parsed_plus&#45;&gt;tmpl_survey</title>
<path fill="none" stroke="black" d="M789.12,-215.01C804.95,-211.97 822.57,-208.59 838.23,-205.59"/>
<polygon fill="black" stroke="black" points="838.59,-209.08 847.75,-203.76 837.27,-202.21 838.59,-209.08"/>
</g>
<!-- mam_simple -->
<g id="node16" class="node">
<title>mam_simple</title>
<polygon fill="none" stroke="black" points="919.75,-269 848.25,-269 848.25,-233 919.75,-233 919.75,-269"/>
<text xml:space="preserve" text-anchor="middle" x="884" y="-247.5" font-family="Helvetica,sans-Serif" font-size="10.00">mam_simple</text>
</g>
<!-- ds_parsed_plus&#45;&gt;mam_simple -->
<g id="edge3" class="edge">
<title>ds_parsed_plus&#45;&gt;mam_simple</title>
<path fill="none" stroke="black" d="M789.12,-232.99C804.41,-235.92 821.38,-239.18 836.64,-242.11"/>
<polygon fill="black" stroke="black" points="835.95,-245.54 846.43,-243.98 837.27,-238.66 835.95,-245.54"/>
</g>
<!-- misc_1 -->
<g id="node19" class="node">
<title>misc_1</title>
<g id="a_node19"><a xlink:title="decnreub&#10;multimark&#10;wordlist&#10;explicit_xataf&#10;diff ctr&#45;vs&#45;mam">
<polygon fill="none" stroke="black" points="911,-161 857,-161 857,-125 911,-125 911,-161"/>
<text xml:space="preserve" text-anchor="middle" x="884" y="-139.5" font-family="Helvetica,sans-Serif" font-size="10.00">misc&#45;1</text>
</a>
</g>
</g>
<!-- ds_parsed_plus&#45;&gt;misc_1 -->
<g id="edge4" class="edge">
<title>ds_parsed_plus&#45;&gt;misc_1</title>
<path fill="none" stroke="black" d="M768.12,-205.75C784.15,-194.79 805.35,-180.91 825,-170 831.79,-166.23 839.19,-162.51 846.36,-159.09"/>
<polygon fill="black" stroke="black" points="847.65,-162.35 855.25,-154.96 844.7,-156 847.65,-162.35"/>
</g>
<!-- ds_ws -->
<g id="node2" class="node">
<title>ds_ws</title>
<path fill="none" stroke="black" d="M565.75,-130C565.75,-132.21 543.17,-134 515.38,-134 487.58,-134 465,-132.21 465,-130 465,-130 465,-94 465,-94 465,-91.79 487.58,-90 515.38,-90 543.17,-90 565.75,-91.79 565.75,-94 565.75,-94 565.75,-130 565.75,-130"/>
<path fill="none" stroke="black" d="M565.75,-130C565.75,-127.79 543.17,-126 515.38,-126 487.58,-126 465,-127.79 465,-130"/>
<text xml:space="preserve" text-anchor="middle" x="515.38" y="-114.5" font-family="Helvetica,sans-Serif" font-size="10.00">in/mam&#45;ws/</text>
<text xml:space="preserve" text-anchor="middle" x="515.38" y="-102.5" font-family="Helvetica,sans-Serif" font-size="10.00">(Wikisource JSON)</text>
</g>
<!-- parse_ws -->
<g id="node12" class="node">
<title>parse_ws</title>
<polygon fill="none" stroke="black" points="657.5,-130 601.75,-130 601.75,-94 657.5,-94 657.5,-130"/>
<text xml:space="preserve" text-anchor="middle" x="629.62" y="-108.5" font-family="Helvetica,sans-Serif" font-size="10.00">parse ws</text>
</g>
<!-- ds_ws&#45;&gt;parse_ws -->
<g id="edge22" class="edge">
<title>ds_ws&#45;&gt;parse_ws</title>
<path fill="none" stroke="black" d="M565.94,-112C574.05,-112 582.35,-112 590.14,-112"/>
<polygon fill="black" stroke="black" points="589.97,-115.5 599.97,-112 589.97,-108.5 589.97,-115.5"/>
</g>
<!-- misc_3 -->
<g id="node20" class="node">
<title>misc_3</title>
<polygon fill="none" stroke="black" points="768.25,-69 714.25,-69 714.25,-33 768.25,-33 768.25,-69"/>
<text xml:space="preserve" text-anchor="middle" x="741.25" y="-47.5" font-family="Helvetica,sans-Serif" font-size="10.00">misc&#45;3</text>
</g>
<!-- ds_ws&#45;&gt;misc_3 -->
<g id="edge24" class="edge">
<title>ds_ws&#45;&gt;misc_3</title>
<path fill="none" stroke="black" d="M565.87,-95.74C577.59,-92.06 590.08,-88.28 601.75,-85 635.8,-75.45 674.96,-65.97 702.94,-59.46"/>
<polygon fill="black" stroke="black" points="703.39,-62.95 712.35,-57.29 701.82,-56.13 703.39,-62.95"/>
</g>
<!-- ds_ws_special -->
<g id="node3" class="node">
<title>ds_ws_special</title>
<path fill="none" stroke="black" d="M565.75,-68C565.75,-70.21 543.17,-72 515.38,-72 487.58,-72 465,-70.21 465,-68 465,-68 465,-32 465,-32 465,-29.79 487.58,-28 515.38,-28 543.17,-28 565.75,-29.79 565.75,-32 565.75,-32 565.75,-68 565.75,-68"/>
<path fill="none" stroke="black" d="M565.75,-68C565.75,-65.79 543.17,-64 515.38,-64 487.58,-64 465,-65.79 465,-68"/>
<text xml:space="preserve" text-anchor="middle" x="515.38" y="-52.5" font-family="Helvetica,sans-Serif" font-size="10.00">in/mam&#45;ws&#45;special/</text>
<text xml:space="preserve" text-anchor="middle" x="515.38" y="-40.5" font-family="Helvetica,sans-Serif" font-size="10.00">(raw Wikitext)</text>
</g>
<!-- src_ws_live -->
<g id="node4" class="node">
<title>src_ws_live</title>
<path fill="none" stroke="black" d="M277.25,-72.73C277.25,-74.53 254.5,-76 226.5,-76 198.5,-76 175.75,-74.53 175.75,-72.73 175.75,-72.73 175.75,-43.27 175.75,-43.27 175.75,-41.47 198.5,-40 226.5,-40 254.5,-40 277.25,-41.47 277.25,-43.27 277.25,-43.27 277.25,-72.73 277.25,-72.73"/>
<path fill="none" stroke="black" d="M277.25,-72.73C277.25,-70.92 254.5,-69.45 226.5,-69.45 198.5,-69.45 175.75,-70.92 175.75,-72.73"/>
<text xml:space="preserve" text-anchor="middle" x="226.5" y="-54.5" font-family="Helvetica,sans-Serif" font-size="10.00">Hebrew Wikisource</text>
</g>
<!-- download_ws -->
<g id="node11" class="node">
<title>download_ws</title>
<polygon fill="none" stroke="black" points="429,-76 313.25,-76 313.25,-40 429,-40 429,-76"/>
<text xml:space="preserve" text-anchor="middle" x="371.12" y="-54.5" font-family="Helvetica,sans-Serif" font-size="10.00">download fr&#45;wikisource</text>
</g>
<!-- src_ws_live&#45;&gt;download_ws -->
<g id="edge19" class="edge">
<title>src_ws_live&#45;&gt;download_ws</title>
<path fill="none" stroke="black" d="M277.38,-58C285.25,-58 293.49,-58 301.69,-58"/>
<polygon fill="black" stroke="black" points="301.68,-61.5 311.68,-58 301.68,-54.5 301.68,-61.5"/>
</g>
<!-- archive_google_sheet -->
<g id="node5" class="node">
<title>archive_google_sheet</title>
<polygon fill="none" stroke="#8c8c8c" stroke-dasharray="5,2" points="133.75,-130 0,-130 0,-94 139.75,-94 139.75,-124 133.75,-130"/>
<polyline fill="none" stroke="#8c8c8c" stroke-dasharray="5,2" points="133.75,-130 133.75,-124"/>
<polyline fill="none" stroke="#8c8c8c" stroke-dasharray="5,2" points="139.75,-124 133.75,-124"/>
<text xml:space="preserve" text-anchor="middle" x="69.88" y="-114.5" font-family="Helvetica,sans-Serif" font-size="10.00" fill="#595959">MAM Google Sheet</text>
<text xml:space="preserve" text-anchor="middle" x="69.88" y="-102.5" font-family="Helvetica,sans-Serif" font-size="10.00" fill="#595959">(frozen September 12, 2026)</text>
</g>
<!-- ds_simple -->
<g id="node6" class="node">
<title>ds_simple</title>
<path fill="none" stroke="black" d="M1078.25,-265.73C1078.25,-267.53 1061.72,-269 1041.38,-269 1021.03,-269 1004.5,-267.53 1004.5,-265.73 1004.5,-265.73 1004.5,-236.27 1004.5,-236.27 1004.5,-234.47 1021.03,-233 1041.38,-233 1061.72,-233 1078.25,-234.47 1078.25,-236.27 1078.25,-236.27 1078.25,-265.73 1078.25,-265.73"/>
<path fill="none" stroke="black" d="M1078.25,-265.73C1078.25,-263.92 1061.72,-262.45 1041.38,-262.45 1021.03,-262.45 1004.5,-263.92 1004.5,-265.73"/>
<text xml:space="preserve" text-anchor="middle" x="1041.38" y="-247.5" font-family="Helvetica,sans-Serif" font-size="10.00">MAM&#45;simple/</text>
</g>
<!-- misc_2 -->
<g id="node17" class="node">
<title>misc_2</title>
<polygon fill="none" stroke="black" points="1211.5,-296 1157.5,-296 1157.5,-260 1211.5,-260 1211.5,-296"/>
<text xml:space="preserve" text-anchor="middle" x="1184.5" y="-274.5" font-family="Helvetica,sans-Serif" font-size="10.00">misc&#45;2</text>
</g>
<!-- ds_simple&#45;&gt;misc_2 -->
<g id="edge10" class="edge">
<title>ds_simple&#45;&gt;misc_2</title>
<path fill="none" stroke="black" d="M1078.72,-257.95C1099.29,-261.89 1124.99,-266.81 1145.79,-270.79"/>
<polygon fill="black" stroke="black" points="1145.12,-274.22 1155.6,-272.66 1146.43,-267.34 1145.12,-274.22"/>
</g>
<!-- osis -->
<g id="node18" class="node">
<title>osis</title>
<polygon fill="none" stroke="black" points="1211.5,-242 1157.5,-242 1157.5,-206 1211.5,-206 1211.5,-242"/>
<text xml:space="preserve" text-anchor="middle" x="1184.5" y="-220.5" font-family="Helvetica,sans-Serif" font-size="10.00">osis</text>
</g>
<!-- ds_simple&#45;&gt;osis -->
<g id="edge11" class="edge">
<title>ds_simple&#45;&gt;osis</title>
<path fill="none" stroke="black" d="M1078.72,-244.05C1099.29,-240.11 1124.99,-235.19 1145.79,-231.21"/>
<polygon fill="black" stroke="black" points="1146.43,-234.66 1155.6,-229.34 1145.12,-227.78 1146.43,-234.66"/>
</g>
<!-- ds_with_doc -->
<g id="node7" class="node">
<title>ds_with_doc</title>
<path fill="none" stroke="black" d="M1103.75,-373.73C1103.75,-375.53 1075.79,-377 1041.38,-377 1006.96,-377 979,-375.53 979,-373.73 979,-373.73 979,-344.27 979,-344.27 979,-342.47 1006.96,-341 1041.38,-341 1075.79,-341 1103.75,-342.47 1103.75,-344.27 1103.75,-344.27 1103.75,-373.73 1103.75,-373.73"/>
<path fill="none" stroke="black" d="M1103.75,-373.73C1103.75,-371.92 1075.79,-370.45 1041.38,-370.45 1006.96,-370.45 979,-371.92 979,-373.73"/>
<text xml:space="preserve" text-anchor="middle" x="1041.38" y="-355.5" font-family="Helvetica,sans-Serif" font-size="10.00">gh&#45;pages/MAM&#45;with&#45;doc/</text>
</g>
<!-- ds_sefaria -->
<g id="node8" class="node">
<title>ds_sefaria</title>
<path fill="none" stroke="black" d="M1355.5,-292.73C1355.5,-294.53 1335.27,-296 1310.38,-296 1285.48,-296 1265.25,-294.53 1265.25,-292.73 1265.25,-292.73 1265.25,-263.27 1265.25,-263.27 1265.25,-261.47 1285.48,-260 1310.38,-260 1335.27,-260 1355.5,-261.47 1355.5,-263.27 1355.5,-263.27 1355.5,-292.73 1355.5,-292.73"/>
<path fill="none" stroke="black" d="M1355.5,-292.73C1355.5,-290.92 1335.27,-289.45 1310.38,-289.45 1285.48,-289.45 1265.25,-290.92 1265.25,-292.73"/>
<text xml:space="preserve" text-anchor="middle" x="1310.38" y="-274.5" font-family="Helvetica,sans-Serif" font-size="10.00">MAM&#45;for&#45;Sefaria/</text>
</g>
<!-- ds_osis -->
<g id="node9" class="node">
<title>ds_osis</title>
<path fill="none" stroke="black" d="M1345,-211.73C1345,-213.53 1329.48,-215 1310.38,-215 1291.27,-215 1275.75,-213.53 1275.75,-211.73 1275.75,-211.73 1275.75,-182.27 1275.75,-182.27 1275.75,-180.47 1291.27,-179 1310.38,-179 1329.48,-179 1345,-180.47 1345,-182.27 1345,-182.27 1345,-211.73 1345,-211.73"/>
<path fill="none" stroke="black" d="M1345,-211.73C1345,-209.92 1329.48,-208.45 1310.38,-208.45 1291.27,-208.45 1275.75,-209.92 1275.75,-211.73"/>
<text xml:space="preserve" text-anchor="middle" x="1310.38" y="-193.5" font-family="Helvetica,sans-Serif" font-size="10.00">MAM&#45;OSIS/</text>
</g>
<!-- ds_out -->
<g id="node10" class="node">
<title>ds_out</title>
<path fill="none" stroke="black" d="M1080.12,-115C1080.12,-117.21 1062.76,-119 1041.38,-119 1019.99,-119 1002.62,-117.21 1002.62,-115 1002.62,-115 1002.62,-79 1002.62,-79 1002.62,-76.79 1019.99,-75 1041.38,-75 1062.76,-75 1080.12,-76.79 1080.12,-79 1080.12,-79 1080.12,-115 1080.12,-115"/>
<path fill="none" stroke="black" d="M1080.12,-115C1080.12,-112.79 1062.76,-111 1041.38,-111 1019.99,-111 1002.62,-112.79 1002.62,-115"/>
<text xml:space="preserve" text-anchor="middle" x="1041.38" y="-99.5" font-family="Helvetica,sans-Serif" font-size="10.00">out/</text>
<text xml:space="preserve" text-anchor="middle" x="1041.38" y="-87.5" font-family="Helvetica,sans-Serif" font-size="10.00">(local outputs)</text>
</g>
<!-- download_ws&#45;&gt;ds_ws -->
<g id="edge20" class="edge">
<title>download_ws&#45;&gt;ds_ws</title>
<path fill="none" stroke="black" d="M420.68,-76.43C431.42,-80.51 442.92,-84.87 454.05,-89.1"/>
<polygon fill="black" stroke="black" points="452.58,-92.29 463.17,-92.56 455.06,-85.74 452.58,-92.29"/>
</g>
<!-- download_ws&#45;&gt;ds_ws_special -->
<g id="edge21" class="edge">
<title>download_ws&#45;&gt;ds_ws_special</title>
<path fill="none" stroke="black" d="M429.16,-54.79C437.15,-54.34 445.38,-53.88 453.44,-53.43"/>
<polygon fill="black" stroke="black" points="453.36,-56.94 463.15,-52.88 452.97,-49.95 453.36,-56.94"/>
</g>
<!-- parse_ws&#45;&gt;ds_parsed_plus -->
<g id="edge23" class="edge">
<title>parse_ws&#45;&gt;ds_parsed_plus</title>
<path fill="none" stroke="black" d="M648.73,-130.49C666.69,-148.84 694.38,-177.13 714.6,-197.79"/>
<polygon fill="black" stroke="black" points="711.93,-200.07 721.43,-204.77 716.93,-195.17 711.93,-200.07"/>
</g>
<!-- parse_ws&#45;&gt;ds_out -->
<g id="edge17" class="edge">
<title>parse_ws&#45;&gt;ds_out</title>
<path fill="none" stroke="black" d="M657.83,-111C725.75,-108.52 903.6,-102.01 990.77,-98.82"/>
<polygon fill="black" stroke="black" points="990.82,-102.32 1000.68,-98.45 990.56,-95.32 990.82,-102.32"/>
</g>
<!-- foi&#45;&gt;ds_with_doc -->
<g id="edge6" class="edge">
<title>foi&#45;&gt;ds_with_doc</title>
<path fill="none" stroke="black" d="M943.3,-359C951.14,-359 959.27,-359 967.32,-359"/>
<polygon fill="black" stroke="black" points="967.12,-362.5 977.12,-359 967.12,-355.5 967.12,-362.5"/>
</g>
<!-- mam_with_doc&#45;&gt;ds_with_doc -->
<g id="edge7" class="edge">
<title>mam_with_doc&#45;&gt;ds_with_doc</title>
<path fill="none" stroke="black" d="M925.42,-319.05C941.8,-324.74 961.08,-331.44 979.13,-337.71"/>
<polygon fill="black" stroke="black" points="977.84,-340.97 988.44,-340.95 980.14,-334.36 977.84,-340.97"/>
</g>
<!-- tmpl_survey&#45;&gt;ds_out -->
<g id="edge15" class="edge">
<title>tmpl_survey&#45;&gt;ds_out</title>
<path fill="none" stroke="black" d="M919.04,-182.59C927.07,-178.8 935.47,-174.51 943,-170 964.77,-156.97 987.54,-140.1 1005.58,-125.86"/>
<polygon fill="black" stroke="black" points="1007.74,-128.62 1013.37,-119.64 1003.37,-123.15 1007.74,-128.62"/>
</g>
<!-- mam_simple&#45;&gt;ds_simple -->
<g id="edge9" class="edge">
<title>mam_simple&#45;&gt;ds_simple</title>
<path fill="none" stroke="black" d="M919.87,-251C941.3,-251 969.05,-251 992.52,-251"/>
<polygon fill="black" stroke="black" points="992.49,-254.5 1002.49,-251 992.49,-247.5 992.49,-254.5"/>
</g>
<!-- misc_2&#45;&gt;ds_sefaria -->
<g id="edge12" class="edge">
<title>misc_2&#45;&gt;ds_sefaria</title>
<path fill="none" stroke="black" d="M1211.77,-278C1224.11,-278 1239.31,-278 1254.01,-278"/>
<polygon fill="black" stroke="black" points="1253.59,-281.5 1263.59,-278 1253.59,-274.5 1253.59,-281.5"/>
</g>
<!-- osis&#45;&gt;ds_osis -->
<g id="edge13" class="edge">
<title>osis&#45;&gt;ds_osis</title>
<path fill="none" stroke="black" d="M1211.77,-218.27C1227.11,-214.93 1246.87,-210.62 1264.6,-206.76"/>
<polygon fill="black" stroke="black" points="1265.09,-210.23 1274.12,-204.68 1263.6,-203.39 1265.09,-210.23"/>
</g>
<!-- misc_1&#45;&gt;ds_out -->
<g id="edge16" class="edge">
<title>misc_1&#45;&gt;ds_out</title>
<path fill="none" stroke="black" d="M911.36,-135.2C933.18,-128.74 964.77,-119.38 991.23,-111.55"/>
<polygon fill="black" stroke="black" points="992.17,-114.92 1000.77,-108.73 990.18,-108.21 992.17,-114.92"/>
</g>
<!-- misc_3&#45;&gt;ds_out -->
<g id="edge18" class="edge">
<title>misc_3&#45;&gt;ds_out</title>
<path fill="none" stroke="black" d="M768.71,-55.08C818.61,-62.78 927.35,-79.56 991.08,-89.39"/>
<polygon fill="black" stroke="black" points="990.52,-92.85 1000.94,-90.92 991.59,-85.93 990.52,-92.85"/>
</g>
<!-- ws_bot -->
<g id="node21" class="node">
<title>ws_bot</title>
<polygon fill="none" stroke="black" points="103,-76 36.75,-76 36.75,-40 103,-40 103,-76"/>
<text xml:space="preserve" text-anchor="middle" x="69.88" y="-54.5" font-family="Helvetica,sans-Serif" font-size="10.00">ws_bot real</text>
</g>
<!-- ws_bot&#45;&gt;ds_ws -->
<g id="edge26" class="edge">
<title>ws_bot&#45;&gt;ds_ws</title>
<path fill="none" stroke="black" d="M103.16,-67.85C123.74,-73.75 151.09,-80.87 175.75,-85 271.98,-101.1 385.24,-107.67 453.34,-110.3"/>
<polygon fill="black" stroke="black" points="453.06,-113.79 463.19,-110.66 453.32,-106.79 453.06,-113.79"/>
</g>
<!-- ws_bot&#45;&gt;src_ws_live -->
<g id="edge25" class="edge">
<title>ws_bot&#45;&gt;src_ws_live</title>
<path fill="none" stroke="black" d="M103.29,-58C120.92,-58 143.33,-58 164.12,-58"/>
<polygon fill="black" stroke="black" points="163.95,-61.5 173.95,-58 163.95,-54.5 163.95,-61.5"/>
</g>
<!-- ws_bot&#45;&gt;ds_out -->
<g id="edge27" class="edge">
<title>ws_bot&#45;&gt;ds_out</title>
<g id="a_edge27"><a xlink:title="via automatic post&#45;download reparse">
<path fill="none" stroke="black" d="M103.24,-47.5C157.71,-30.78 271.43,0 370.12,0 370.12,0 370.12,0 742.25,0 834.48,0 935.23,-42.5 992.82,-71.24"/>
<polygon fill="black" stroke="black" points="991.2,-74.34 1001.7,-75.74 994.37,-68.1 991.2,-74.34"/>
</a>
</g>
</g>
<!-- gen_docs -->
<g id="node22" class="node">
<title>gen_docs</title>
<polygon fill="none" stroke="black" points="938.5,-431 829.5,-431 829.5,-395 938.5,-395 938.5,-431"/>
<text xml:space="preserve" text-anchor="middle" x="884" y="-409.5" font-family="Helvetica,sans-Serif" font-size="10.00">...english_documents</text>
</g>
<!-- gen_docs&#45;&gt;ds_with_doc -->
<g id="edge8" class="edge">
<title>gen_docs&#45;&gt;ds_with_doc</title>
<path fill="none" stroke="black" d="M938.04,-394.57C951.29,-389.96 965.6,-384.99 979.21,-380.26"/>
<polygon fill="black" stroke="black" points="980.21,-383.62 988.51,-377.03 977.91,-377 980.21,-383.62"/>
</g>
<!-- osis_split -->
<g id="node23" class="node">
<title>osis_split</title>
<polygon fill="none" stroke="black" points="1229.25,-188 1139.75,-188 1139.75,-152 1229.25,-152 1229.25,-188"/>
<text xml:space="preserve" text-anchor="middle" x="1184.5" y="-166.5" font-family="Helvetica,sans-Serif" font-size="10.00">osis_split_mapm</text>
</g>
<!-- osis_split&#45;&gt;ds_osis -->
<g id="edge14" class="edge">
<title>osis_split&#45;&gt;ds_osis</title>
<path fill="none" stroke="black" d="M1229.52,-179.6C1240.89,-182.07 1253.14,-184.74 1264.55,-187.23"/>
<polygon fill="black" stroke="black" points="1263.63,-190.61 1274.14,-189.32 1265.12,-183.77 1263.63,-190.61"/>
</g>
</g>
</svg>
