<?xml version="1.0" encoding="UTF-8" standalone="no"?>
<!DOCTYPE svg PUBLIC "-//W3C//DTD SVG 1.1//EN"
 "http://www.w3.org/Graphics/SVG/1.1/DTD/svg11.dtd">
<!-- Generated by graphviz version 14.1.2 (20260124.0452)
 -->
<!-- Title: mam_pipeline Pages: 1 -->
<svg width="907pt" height="746pt"
 viewBox="0.00 0.00 907.00 746.00" xmlns="http://www.w3.org/2000/svg" xmlns:xlink="http://www.w3.org/1999/xlink">
<g id="graph0" class="graph" transform="scale(1 1) rotate(0) translate(4 742)">
<title>mam_pipeline</title>
<polygon fill="white" stroke="none" points="-4,4 -4,-742 903,-742 903,4 -4,4"/>
<!-- ds_go -->
<g id="node1" class="node">
<title>ds_go</title>
<path fill="none" stroke="black" d="M531.75,-140.73C531.75,-142.53 506.48,-144 475.38,-144 444.27,-144 419,-142.53 419,-140.73 419,-140.73 419,-111.27 419,-111.27 419,-109.47 444.27,-108 475.38,-108 506.48,-108 531.75,-109.47 531.75,-111.27 531.75,-111.27 531.75,-140.73 531.75,-140.73"/>
<path fill="none" stroke="black" d="M531.75,-140.73C531.75,-138.92 506.48,-137.45 475.38,-137.45 444.27,-137.45 419,-138.92 419,-140.73"/>
<text xml:space="preserve" text-anchor="middle" x="475.38" y="-122.3" font-family="Helvetica,sans-Serif" font-size="11.00">../MAM&#45;parsed/plus/</text>
</g>
<!-- foi -->
<g id="node16" class="node">
<title>foi</title>
<polygon fill="none" stroke="black" points="725.5,-198 567.75,-198 567.75,-162 725.5,-162 725.5,-198"/>
<text xml:space="preserve" text-anchor="middle" x="646.62" y="-176.3" font-family="Helvetica,sans-Serif" font-size="11.00">main_foi_features_of_interest</text>
</g>
<!-- ds_go&#45;&gt;foi -->
<g id="edge3" class="edge">
<title>ds_go&#45;&gt;foi</title>
<path fill="none" stroke="black" d="M529.93,-143.09C544.88,-147.86 561.33,-153.11 577.02,-158.11"/>
<polygon fill="black" stroke="black" points="575.7,-161.36 586.29,-161.07 577.83,-154.7 575.7,-161.36"/>
</g>
<!-- tmpl_survey -->
<g id="node17" class="node">
<title>tmpl_survey</title>
<polygon fill="none" stroke="black" points="698.12,-144 595.12,-144 595.12,-108 698.12,-108 698.12,-144"/>
<text xml:space="preserve" text-anchor="middle" x="646.62" y="-122.3" font-family="Helvetica,sans-Serif" font-size="11.00">main_tmpl_survey</text>
</g>
<!-- ds_go&#45;&gt;tmpl_survey -->
<g id="edge5" class="edge">
<title>ds_go&#45;&gt;tmpl_survey</title>
<path fill="none" stroke="black" d="M531.79,-126C548.24,-126 566.37,-126 583.23,-126"/>
<polygon fill="black" stroke="black" points="583.15,-129.5 593.15,-126 583.15,-122.5 583.15,-129.5"/>
</g>
<!-- mam_simple -->
<g id="node18" class="node">
<title>mam_simple</title>
<polygon fill="none" stroke="black" points="699.62,-90 593.62,-90 593.62,-54 699.62,-54 699.62,-90"/>
<text xml:space="preserve" text-anchor="middle" x="646.62" y="-68.3" font-family="Helvetica,sans-Serif" font-size="11.00">main_mam_simple</text>
</g>
<!-- ds_go&#45;&gt;mam_simple -->
<g id="edge6" class="edge">
<title>ds_go&#45;&gt;mam_simple</title>
<path fill="none" stroke="black" d="M529.93,-108.91C546.69,-103.57 565.34,-97.62 582.69,-92.08"/>
<polygon fill="black" stroke="black" points="583.39,-95.53 591.85,-89.16 581.26,-88.86 583.39,-95.53"/>
</g>
<!-- ds_ws -->
<g id="node2" class="node">
<title>ds_ws</title>
<path fill="none" stroke="black" d="M383,-253.69C383,-256.1 358.57,-258.06 328.5,-258.06 298.43,-258.06 274,-256.1 274,-253.69 274,-253.69 274,-214.31 274,-214.31 274,-211.9 298.43,-209.94 328.5,-209.94 358.57,-209.94 383,-211.9 383,-214.31 383,-214.31 383,-253.69 383,-253.69"/>
<path fill="none" stroke="black" d="M383,-253.69C383,-251.27 358.57,-249.31 328.5,-249.31 298.43,-249.31 274,-251.27 274,-253.69"/>
<text xml:space="preserve" text-anchor="middle" x="328.5" y="-237.05" font-family="Helvetica,sans-Serif" font-size="11.00">in/mam&#45;ws</text>
<text xml:space="preserve" text-anchor="middle" x="328.5" y="-223.55" font-family="Helvetica,sans-Serif" font-size="11.00">(Wikisource HTML)</text>
</g>
<!-- diff_wsgo -->
<g id="node22" class="node">
<title>diff_wsgo</title>
<polygon fill="none" stroke="black" points="520.88,-306 429.88,-306 429.88,-270 520.88,-270 520.88,-306"/>
<text xml:space="preserve" text-anchor="middle" x="475.38" y="-284.3" font-family="Helvetica,sans-Serif" font-size="11.00">main_diff_wsgo</text>
</g>
<!-- ds_ws&#45;&gt;diff_wsgo -->
<g id="edge11" class="edge">
<title>ds_ws&#45;&gt;diff_wsgo</title>
<path fill="none" stroke="black" d="M383.45,-254.11C395.03,-258.42 407.28,-262.99 418.92,-267.33"/>
<polygon fill="black" stroke="black" points="417.38,-270.49 427.97,-270.7 419.83,-263.93 417.38,-270.49"/>
</g>
<!-- parse_ws -->
<g id="node23" class="node">
<title>parse_ws</title>
<polygon fill="none" stroke="black" points="521.25,-252 429.5,-252 429.5,-216 521.25,-216 521.25,-252"/>
<text xml:space="preserve" text-anchor="middle" x="475.38" y="-230.3" font-family="Helvetica,sans-Serif" font-size="11.00">main_parse_ws</text>
</g>
<!-- ds_ws&#45;&gt;parse_ws -->
<g id="edge12" class="edge">
<title>ds_ws&#45;&gt;parse_ws</title>
<path fill="none" stroke="black" d="M383.45,-234C394.79,-234 406.78,-234 418.2,-234"/>
<polygon fill="black" stroke="black" points="417.88,-237.5 427.88,-234 417.88,-230.5 417.88,-237.5"/>
</g>
<!-- ws_bot_proto -->
<g id="node24" class="node">
<title>ws_bot_proto</title>
<polygon fill="none" stroke="black" points="530.62,-198 420.12,-198 420.12,-162 530.62,-162 530.62,-198"/>
<text xml:space="preserve" text-anchor="middle" x="475.38" y="-176.3" font-family="Helvetica,sans-Serif" font-size="11.00">main_ws_bot_proto</text>
</g>
<!-- ds_ws&#45;&gt;ws_bot_proto -->
<g id="edge13" class="edge">
<title>ds_ws&#45;&gt;ws_bot_proto</title>
<path fill="none" stroke="black" d="M383.45,-213.89C393.6,-210.11 404.27,-206.13 414.58,-202.29"/>
<polygon fill="black" stroke="black" points="415.6,-205.64 423.75,-198.87 413.16,-199.08 415.6,-205.64"/>
</g>
<!-- ds_fodoc -->
<g id="node3" class="node">
<title>ds_fodoc</title>
<path fill="none" stroke="black" d="M899,-194.73C899,-196.53 868.19,-198 830.25,-198 792.31,-198 761.5,-196.53 761.5,-194.73 761.5,-194.73 761.5,-165.27 761.5,-165.27 761.5,-163.47 792.31,-162 830.25,-162 868.19,-162 899,-163.47 899,-165.27 899,-165.27 899,-194.73 899,-194.73"/>
<path fill="none" stroke="black" d="M899,-194.73C899,-192.92 868.19,-191.45 830.25,-191.45 792.31,-191.45 761.5,-192.92 761.5,-194.73"/>
<text xml:space="preserve" text-anchor="middle" x="830.25" y="-176.3" font-family="Helvetica,sans-Serif" font-size="11.00">../MAM&#45;with&#45;doc/docs/foi/</text>
</g>
<!-- download_go -->
<g id="node4" class="node">
<title>download_go</title>
<polygon fill="none" stroke="gray" stroke-dasharray="5,2" points="190.38,-144 47.62,-144 47.62,-108 190.38,-108 190.38,-144"/>
<text xml:space="preserve" text-anchor="middle" x="119" y="-122.3" font-family="Helvetica,sans-Serif" font-size="11.00" fill="gray">main_download_fr_google</text>
</g>
<!-- parse_go -->
<g id="node15" class="node">
<title>parse_go</title>
<polygon fill="none" stroke="black" points="373.62,-144 283.38,-144 283.38,-108 373.62,-108 373.62,-144"/>
<text xml:space="preserve" text-anchor="middle" x="328.5" y="-122.3" font-family="Helvetica,sans-Serif" font-size="11.00">main_parse_go</text>
</g>
<!-- download_go&#45;&gt;parse_go -->
<g id="edge1" class="edge">
<title>download_go&#45;&gt;parse_go</title>
<path fill="none" stroke="gray" d="M190.83,-126C217.18,-126 246.69,-126 271.53,-126"/>
<polygon fill="gray" stroke="gray" points="271.44,-129.5 281.44,-126 271.44,-122.5 271.44,-129.5"/>
</g>
<!-- download_ws -->
<g id="node5" class="node">
<title>download_ws</title>
<polygon fill="none" stroke="gray" stroke-dasharray="5,2" points="199.38,-252 38.62,-252 38.62,-216 199.38,-216 199.38,-252"/>
<text xml:space="preserve" text-anchor="middle" x="119" y="-230.3" font-family="Helvetica,sans-Serif" font-size="11.00" fill="gray">main_download_fr_wikisource</text>
</g>
<!-- download_ws&#45;&gt;ds_ws -->
<g id="edge10" class="edge">
<title>download_ws&#45;&gt;ds_ws</title>
<path fill="none" stroke="gray" d="M199.63,-234C220.36,-234 242.46,-234 262.34,-234"/>
<polygon fill="gray" stroke="gray" points="262.25,-237.5 272.25,-234 262.25,-230.5 262.25,-237.5"/>
</g>
<!-- mam_with_doc -->
<g id="node6" class="node">
<title>mam_with_doc</title>
<polygon fill="none" stroke="black" points="178,-306 60,-306 60,-270 178,-270 178,-306"/>
<text xml:space="preserve" text-anchor="middle" x="119" y="-284.3" font-family="Helvetica,sans-Serif" font-size="11.00">main_mam_with_doc</text>
</g>
<!-- decnreub -->
<g id="node7" class="node">
<title>decnreub</title>
<polygon fill="none" stroke="black" points="164.12,-360 73.88,-360 73.88,-324 164.12,-324 164.12,-360"/>
<text xml:space="preserve" text-anchor="middle" x="119" y="-338.3" font-family="Helvetica,sans-Serif" font-size="11.00">main_decnreub</text>
</g>
<!-- multimark -->
<g id="node8" class="node">
<title>multimark</title>
<polygon fill="none" stroke="black" points="164.88,-414 73.12,-414 73.12,-378 164.88,-378 164.88,-414"/>
<text xml:space="preserve" text-anchor="middle" x="119" y="-392.3" font-family="Helvetica,sans-Serif" font-size="11.00">main_multimark</text>
</g>
<!-- wordlist -->
<g id="node9" class="node">
<title>wordlist</title>
<polygon fill="none" stroke="black" points="160,-468 78,-468 78,-432 160,-432 160,-468"/>
<text xml:space="preserve" text-anchor="middle" x="119" y="-446.3" font-family="Helvetica,sans-Serif" font-size="11.00">main_wordlist</text>
</g>
<!-- explicit_xataf -->
<g id="node10" class="node">
<title>explicit_xataf</title>
<polygon fill="none" stroke="black" points="172.38,-522 65.62,-522 65.62,-486 172.38,-486 172.38,-522"/>
<text xml:space="preserve" text-anchor="middle" x="119" y="-500.3" font-family="Helvetica,sans-Serif" font-size="11.00">main_explicit_xataf</text>
</g>
<!-- diff_gogo -->
<g id="node11" class="node">
<title>diff_gogo</title>
<polygon fill="none" stroke="black" points="163.75,-576 74.25,-576 74.25,-540 163.75,-540 163.75,-576"/>
<text xml:space="preserve" text-anchor="middle" x="119" y="-554.3" font-family="Helvetica,sans-Serif" font-size="11.00">main_diff_gogo</text>
</g>
<!-- gen_docs -->
<g id="node12" class="node">
<title>gen_docs</title>
<polygon fill="none" stroke="black" points="238,-630 0,-630 0,-594 238,-594 238,-630"/>
<text xml:space="preserve" text-anchor="middle" x="119" y="-608.3" font-family="Helvetica,sans-Serif" font-size="11.00">main_gen_misc_authored_english_documents</text>
</g>
<!-- mam_xml_copy -->
<g id="node13" class="node">
<title>mam_xml_copy</title>
<polygon fill="none" stroke="black" points="200.12,-684 37.88,-684 37.88,-648 200.12,-648 200.12,-684"/>
<text xml:space="preserve" text-anchor="middle" x="119" y="-662.3" font-family="Helvetica,sans-Serif" font-size="11.00">main_mam_xml_copy_py_files</text>
</g>
<!-- mgc -->
<g id="node14" class="node">
<title>mgc</title>
<polygon fill="none" stroke="black" points="236.88,-738 1.12,-738 1.12,-702 236.88,-702 236.88,-738"/>
<text xml:space="preserve" text-anchor="middle" x="119" y="-716.3" font-family="Helvetica,sans-Serif" font-size="11.00">main_mgc_match_go_changes_to_gogo_diffs</text>
</g>
<!-- parse_go&#45;&gt;ds_go -->
<g id="edge2" class="edge">
<title>parse_go&#45;&gt;ds_go</title>
<path fill="none" stroke="black" d="M373.75,-126C384.36,-126 395.93,-126 407.32,-126"/>
<polygon fill="black" stroke="black" points="407.09,-129.5 417.09,-126 407.09,-122.5 407.09,-129.5"/>
</g>
<!-- foi&#45;&gt;ds_fodoc -->
<g id="edge4" class="edge">
<title>foi&#45;&gt;ds_fodoc</title>
<path fill="none" stroke="black" d="M725.97,-180C733.84,-180 741.84,-180 749.72,-180"/>
<polygon fill="black" stroke="black" points="749.64,-183.5 759.64,-180 749.64,-176.5 749.64,-183.5"/>
</g>
<!-- mam4sef -->
<g id="node19" class="node">
<title>mam4sef</title>
<polygon fill="none" stroke="black" points="875,-144 785.5,-144 785.5,-108 875,-108 875,-144"/>
<text xml:space="preserve" text-anchor="middle" x="830.25" y="-122.3" font-family="Helvetica,sans-Serif" font-size="11.00">main_mam4sef</text>
</g>
<!-- mam_simple&#45;&gt;mam4sef -->
<g id="edge7" class="edge">
<title>mam_simple&#45;&gt;mam4sef</title>
<path fill="none" stroke="black" d="M699.67,-87.47C723.02,-94.42 750.57,-102.61 774.26,-109.65"/>
<polygon fill="black" stroke="black" points="773.15,-112.97 783.74,-112.47 775.15,-106.26 773.15,-112.97"/>
</g>
<!-- mam4ajf -->
<g id="node20" class="node">
<title>mam4ajf</title>
<polygon fill="none" stroke="black" points="873.5,-90 787,-90 787,-54 873.5,-54 873.5,-90"/>
<text xml:space="preserve" text-anchor="middle" x="830.25" y="-68.3" font-family="Helvetica,sans-Serif" font-size="11.00">main_mam4ajf</text>
</g>
<!-- mam_simple&#45;&gt;mam4ajf -->
<g id="edge8" class="edge">
<title>mam_simple&#45;&gt;mam4ajf</title>
<path fill="none" stroke="black" d="M699.67,-72C723.36,-72 751.39,-72 775.31,-72"/>
<polygon fill="black" stroke="black" points="775.17,-75.5 785.17,-72 775.17,-68.5 775.17,-75.5"/>
</g>
<!-- osis -->
<g id="node21" class="node">
<title>osis</title>
<polygon fill="none" stroke="black" points="862.25,-36 798.25,-36 798.25,0 862.25,0 862.25,-36"/>
<text xml:space="preserve" text-anchor="middle" x="830.25" y="-14.3" font-family="Helvetica,sans-Serif" font-size="11.00">main_osis</text>
</g>
<!-- mam_simple&#45;&gt;osis -->
<g id="edge9" class="edge">
<title>mam_simple&#45;&gt;osis</title>
<path fill="none" stroke="black" d="M699.67,-56.53C727.34,-48.3 760.92,-38.32 786.96,-30.57"/>
<polygon fill="black" stroke="black" points="787.94,-33.93 796.53,-27.73 785.95,-27.22 787.94,-33.93"/>
</g>
</g>
</svg>
