<?xml version="1.0" encoding="UTF-8" standalone="no"?>
<!DOCTYPE svg PUBLIC "-//W3C//DTD SVG 1.1//EN"
 "http://www.w3.org/Graphics/SVG/1.1/DTD/svg11.dtd">
<!-- Generated by graphviz version 14.1.2 (20260124.0452)
 -->
<!-- Title: mam_pipeline Pages: 1 -->
<svg width="1386pt" height="908pt"
 viewBox="0.00 0.00 1386.00 908.00" xmlns="http://www.w3.org/2000/svg" xmlns:xlink="http://www.w3.org/1999/xlink">
<g id="graph0" class="graph" transform="scale(1 1) rotate(0) translate(4 904)">
<title>mam_pipeline</title>
<polygon fill="white" stroke="none" points="-4,4 -4,-904 1381.5,-904 1381.5,4 -4,4"/>
<!-- ds_go_csv -->
<g id="node1" class="node">
<title>ds_go_csv</title>
<path fill="none" stroke="black" d="M264,-639C264,-641.21 246.8,-643 225.62,-643 204.45,-643 187.25,-641.21 187.25,-639 187.25,-639 187.25,-603 187.25,-603 187.25,-600.79 204.45,-599 225.62,-599 246.8,-599 264,-600.79 264,-603 264,-603 264,-639 264,-639"/>
<path fill="none" stroke="black" d="M264,-639C264,-636.79 246.8,-635 225.62,-635 204.45,-635 187.25,-636.79 187.25,-639"/>
<text xml:space="preserve" text-anchor="middle" x="225.62" y="-623.5" font-family="Helvetica,sans-Serif" font-size="10.00">in/mam&#45;go/</text>
<text xml:space="preserve" text-anchor="middle" x="225.62" y="-611.5" font-family="Helvetica,sans-Serif" font-size="10.00">(Google CSV)</text>
</g>
<!-- parse_go -->
<g id="node14" class="node">
<title>parse_go</title>
<polygon fill="none" stroke="black" points="415.25,-639 333.25,-639 333.25,-603 415.25,-603 415.25,-639"/>
<text xml:space="preserve" text-anchor="middle" x="374.25" y="-617.5" font-family="Helvetica,sans-Serif" font-size="10.00">main_parse_go</text>
</g>
<!-- ds_go_csv&#45;&gt;parse_go -->
<g id="edge2" class="edge">
<title>ds_go_csv&#45;&gt;parse_go</title>
<path fill="none" stroke="black" d="M264.38,-621C281.74,-621 302.6,-621 321.4,-621"/>
<polygon fill="black" stroke="black" points="321.28,-624.5 331.28,-621 321.28,-617.5 321.28,-624.5"/>
</g>
<!-- ds_parsed_plus -->
<g id="node2" class="node">
<title>ds_parsed_plus</title>
<path fill="none" stroke="black" d="M665.62,-464.73C665.62,-466.53 642.21,-468 613.38,-468 584.54,-468 561.12,-466.53 561.12,-464.73 561.12,-464.73 561.12,-435.27 561.12,-435.27 561.12,-433.47 584.54,-432 613.38,-432 642.21,-432 665.62,-433.47 665.62,-435.27 665.62,-435.27 665.62,-464.73 665.62,-464.73"/>
<path fill="none" stroke="black" d="M665.62,-464.73C665.62,-462.92 642.21,-461.45 613.38,-461.45 584.54,-461.45 561.12,-462.92 561.12,-464.73"/>
<text xml:space="preserve" text-anchor="middle" x="613.38" y="-446.5" font-family="Helvetica,sans-Serif" font-size="10.00">../MAM&#45;parsed/plus/</text>
</g>
<!-- foi -->
<g id="node15" class="node">
<title>foi</title>
<polygon fill="none" stroke="black" points="884,-144 739.75,-144 739.75,-108 884,-108 884,-144"/>
<text xml:space="preserve" text-anchor="middle" x="811.88" y="-122.5" font-family="Helvetica,sans-Serif" font-size="10.00">main_foi_features_of_interest</text>
</g>
<!-- ds_parsed_plus&#45;&gt;foi -->
<g id="edge5" class="edge">
<title>ds_parsed_plus&#45;&gt;foi</title>
<path fill="none" stroke="black" d="M614.08,-431.51C614.3,-379.51 622.39,-230.75 703.75,-153 710.9,-146.16 719.52,-140.99 728.73,-137.08"/>
<polygon fill="black" stroke="black" points="729.73,-140.44 737.9,-133.7 727.31,-133.87 729.73,-140.44"/>
</g>
<!-- mam_with_doc -->
<g id="node16" class="node">
<title>mam_with_doc</title>
<polygon fill="none" stroke="black" points="866,-252 757.75,-252 757.75,-216 866,-216 866,-252"/>
<text xml:space="preserve" text-anchor="middle" x="811.88" y="-230.5" font-family="Helvetica,sans-Serif" font-size="10.00">main_mam_with_doc</text>
</g>
<!-- ds_parsed_plus&#45;&gt;mam_with_doc -->
<g id="edge6" class="edge">
<title>ds_parsed_plus&#45;&gt;mam_with_doc</title>
<path fill="none" stroke="black" d="M617.63,-431.75C625.36,-393.85 648.51,-306.4 703.75,-261 715.85,-251.05 731.14,-244.7 746.34,-240.67"/>
<polygon fill="black" stroke="black" points="746.92,-244.13 755.87,-238.47 745.34,-237.31 746.92,-244.13"/>
</g>
<!-- mam_simple -->
<g id="node18" class="node">
<title>mam_simple</title>
<polygon fill="none" stroke="black" points="860.75,-90 763,-90 763,-54 860.75,-54 860.75,-90"/>
<text xml:space="preserve" text-anchor="middle" x="811.88" y="-68.5" font-family="Helvetica,sans-Serif" font-size="10.00">main_mam_simple</text>
</g>
<!-- ds_parsed_plus&#45;&gt;mam_simple -->
<g id="edge7" class="edge">
<title>ds_parsed_plus&#45;&gt;mam_simple</title>
<path fill="none" stroke="black" d="M616.52,-431.82C624.56,-366.78 654.96,-146.91 703.75,-99 716.49,-86.49 734.13,-79.51 751.43,-75.69"/>
<polygon fill="black" stroke="black" points="752,-79.14 761.2,-73.88 750.73,-72.26 752,-79.14"/>
</g>
<!-- decnreub -->
<g id="node22" class="node">
<title>decnreub</title>
<polygon fill="none" stroke="black" points="852.88,-468 770.88,-468 770.88,-432 852.88,-432 852.88,-468"/>
<text xml:space="preserve" text-anchor="middle" x="811.88" y="-446.5" font-family="Helvetica,sans-Serif" font-size="10.00">main_decnreub</text>
</g>
<!-- ds_parsed_plus&#45;&gt;decnreub -->
<g id="edge8" class="edge">
<title>ds_parsed_plus&#45;&gt;decnreub</title>
<path fill="none" stroke="black" d="M666,-450C694.69,-450 730.27,-450 758.99,-450"/>
<polygon fill="black" stroke="black" points="758.93,-453.5 768.93,-450 758.93,-446.5 758.93,-453.5"/>
</g>
<!-- multimark -->
<g id="node23" class="node">
<title>multimark</title>
<polygon fill="none" stroke="black" points="854.38,-306 769.38,-306 769.38,-270 854.38,-270 854.38,-306"/>
<text xml:space="preserve" text-anchor="middle" x="811.88" y="-284.5" font-family="Helvetica,sans-Serif" font-size="10.00">main_multimark</text>
</g>
<!-- ds_parsed_plus&#45;&gt;multimark -->
<g id="edge9" class="edge">
<title>ds_parsed_plus&#45;&gt;multimark</title>
<path fill="none" stroke="black" d="M632.12,-431.72C647.85,-414.75 670.6,-388.24 685.75,-362 696.93,-342.63 687.02,-329.85 703.75,-315 718.55,-301.86 738.82,-294.93 757.75,-291.33"/>
<polygon fill="black" stroke="black" points="758.17,-294.81 767.49,-289.78 757.07,-287.9 758.17,-294.81"/>
</g>
<!-- wordlist -->
<g id="node24" class="node">
<title>wordlist</title>
<polygon fill="none" stroke="black" points="849.88,-630 773.88,-630 773.88,-594 849.88,-594 849.88,-630"/>
<text xml:space="preserve" text-anchor="middle" x="811.88" y="-608.5" font-family="Helvetica,sans-Serif" font-size="10.00">main_wordlist</text>
</g>
<!-- ds_parsed_plus&#45;&gt;wordlist -->
<g id="edge10" class="edge">
<title>ds_parsed_plus&#45;&gt;wordlist</title>
<path fill="none" stroke="black" d="M621.39,-468.45C633.54,-497.82 661.32,-554.94 703.75,-585 720.82,-597.1 742.8,-603.79 762.4,-607.48"/>
<polygon fill="black" stroke="black" points="761.68,-610.91 772.11,-609.08 762.81,-604 761.68,-610.91"/>
</g>
<!-- explicit_xataf -->
<g id="node25" class="node">
<title>explicit_xataf</title>
<polygon fill="none" stroke="black" points="861.88,-576 761.88,-576 761.88,-540 861.88,-540 861.88,-576"/>
<text xml:space="preserve" text-anchor="middle" x="811.88" y="-554.5" font-family="Helvetica,sans-Serif" font-size="10.00">main_explicit_xataf</text>
</g>
<!-- ds_parsed_plus&#45;&gt;explicit_xataf -->
<g id="edge11" class="edge">
<title>ds_parsed_plus&#45;&gt;explicit_xataf</title>
<path fill="none" stroke="black" d="M629.58,-468.27C646,-486.8 673.84,-514.99 703.75,-531 718.18,-538.72 734.88,-544.3 750.75,-548.3"/>
<polygon fill="black" stroke="black" points="749.55,-551.61 760.09,-550.48 751.15,-544.8 749.55,-551.61"/>
</g>
<!-- diff_ctr -->
<g id="node28" class="node">
<title>diff_ctr</title>
<polygon fill="none" stroke="black" points="869,-522 754.75,-522 754.75,-486 869,-486 869,-522"/>
<text xml:space="preserve" text-anchor="middle" x="811.88" y="-500.5" font-family="Helvetica,sans-Serif" font-size="10.00">main_diff_ctr_vs_mam</text>
</g>
<!-- ds_parsed_plus&#45;&gt;diff_ctr -->
<g id="edge12" class="edge">
<title>ds_parsed_plus&#45;&gt;diff_ctr</title>
<path fill="none" stroke="black" d="M665.77,-465.97C678.17,-469.7 691.41,-473.58 703.75,-477 716.53,-480.54 730.22,-484.14 743.4,-487.5"/>
<polygon fill="black" stroke="black" points="742.29,-490.83 752.85,-489.9 744.01,-484.05 742.29,-490.83"/>
</g>
<!-- ds_parsed_plain -->
<g id="node3" class="node">
<title>ds_parsed_plain</title>
<path fill="none" stroke="black" d="M666.75,-843.73C666.75,-845.53 642.83,-847 613.38,-847 583.92,-847 560,-845.53 560,-843.73 560,-843.73 560,-814.27 560,-814.27 560,-812.47 583.92,-811 613.38,-811 642.83,-811 666.75,-812.47 666.75,-814.27 666.75,-814.27 666.75,-843.73 666.75,-843.73"/>
<path fill="none" stroke="black" d="M666.75,-843.73C666.75,-841.92 642.83,-840.45 613.38,-840.45 583.92,-840.45 560,-841.92 560,-843.73"/>
<text xml:space="preserve" text-anchor="middle" x="613.38" y="-825.5" font-family="Helvetica,sans-Serif" font-size="10.00">../MAM&#45;parsed/plain/</text>
</g>
<!-- tmpl_survey -->
<g id="node17" class="node">
<title>tmpl_survey</title>
<polygon fill="none" stroke="black" points="859.62,-900 764.12,-900 764.12,-864 859.62,-864 859.62,-900"/>
<text xml:space="preserve" text-anchor="middle" x="811.88" y="-878.5" font-family="Helvetica,sans-Serif" font-size="10.00">main_tmpl_survey</text>
</g>
<!-- ds_parsed_plain&#45;&gt;tmpl_survey -->
<g id="edge13" class="edge">
<title>ds_parsed_plain&#45;&gt;tmpl_survey</title>
<path fill="none" stroke="black" d="M667.22,-844.72C679.21,-848.19 691.9,-851.78 703.75,-855 719.69,-859.33 737.03,-863.8 753.03,-867.83"/>
<polygon fill="black" stroke="black" points="751.83,-871.14 762.38,-870.17 753.53,-864.34 751.83,-871.14"/>
</g>
<!-- diff_wsgo -->
<g id="node26" class="node">
<title>diff_wsgo</title>
<polygon fill="none" stroke="black" points="853.62,-846 770.12,-846 770.12,-810 853.62,-810 853.62,-846"/>
<text xml:space="preserve" text-anchor="middle" x="811.88" y="-824.5" font-family="Helvetica,sans-Serif" font-size="10.00">main_diff_wsgo</text>
</g>
<!-- ds_parsed_plain&#45;&gt;diff_wsgo -->
<g id="edge14" class="edge">
<title>ds_parsed_plain&#45;&gt;diff_wsgo</title>
<path fill="none" stroke="black" d="M667.03,-828.73C695.41,-828.59 730.31,-828.41 758.62,-828.27"/>
<polygon fill="black" stroke="black" points="758.42,-831.77 768.4,-828.22 758.38,-824.77 758.42,-831.77"/>
</g>
<!-- ds_ws -->
<g id="node4" class="node">
<title>ds_ws</title>
<path fill="none" stroke="black" d="M663.75,-789C663.75,-791.21 641.17,-793 613.38,-793 585.58,-793 563,-791.21 563,-789 563,-789 563,-753 563,-753 563,-750.79 585.58,-749 613.38,-749 641.17,-749 663.75,-750.79 663.75,-753 663.75,-753 663.75,-789 663.75,-789"/>
<path fill="none" stroke="black" d="M663.75,-789C663.75,-786.79 641.17,-785 613.38,-785 585.58,-785 563,-786.79 563,-789"/>
<text xml:space="preserve" text-anchor="middle" x="613.38" y="-773.5" font-family="Helvetica,sans-Serif" font-size="10.00">in/mam&#45;ws/</text>
<text xml:space="preserve" text-anchor="middle" x="613.38" y="-761.5" font-family="Helvetica,sans-Serif" font-size="10.00">(Wikisource JSON)</text>
</g>
<!-- ds_ws&#45;&gt;diff_wsgo -->
<g id="edge39" class="edge">
<title>ds_ws&#45;&gt;diff_wsgo</title>
<path fill="none" stroke="black" d="M663.8,-788.34C676.74,-792.68 690.71,-797.18 703.75,-801 721.49,-806.2 741.06,-811.32 758.56,-815.67"/>
<polygon fill="black" stroke="black" points="757.71,-819.06 768.26,-818.05 759.38,-812.27 757.71,-819.06"/>
</g>
<!-- parse_ws -->
<g id="node29" class="node">
<title>parse_ws</title>
<polygon fill="none" stroke="black" points="854,-738 769.75,-738 769.75,-702 854,-702 854,-738"/>
<text xml:space="preserve" text-anchor="middle" x="811.88" y="-716.5" font-family="Helvetica,sans-Serif" font-size="10.00">main_parse_ws</text>
</g>
<!-- ds_ws&#45;&gt;parse_ws -->
<g id="edge40" class="edge">
<title>ds_ws&#45;&gt;parse_ws</title>
<path fill="none" stroke="black" d="M663.98,-757.53C676.91,-754.06 690.84,-750.36 703.75,-747 721.49,-742.38 740.91,-737.45 758.29,-733.08"/>
<polygon fill="black" stroke="black" points="759.06,-736.5 767.91,-730.67 757.36,-729.71 759.06,-736.5"/>
</g>
<!-- ws_bot_proto -->
<g id="node30" class="node">
<title>ws_bot_proto</title>
<polygon fill="none" stroke="black" points="862.25,-792 761.5,-792 761.5,-756 862.25,-756 862.25,-792"/>
<text xml:space="preserve" text-anchor="middle" x="811.88" y="-770.5" font-family="Helvetica,sans-Serif" font-size="10.00">main_ws_bot_proto</text>
</g>
<!-- ds_ws&#45;&gt;ws_bot_proto -->
<g id="edge41" class="edge">
<title>ds_ws&#45;&gt;ws_bot_proto</title>
<path fill="none" stroke="black" d="M664.21,-771.76C690.18,-772.16 722.16,-772.65 749.63,-773.06"/>
<polygon fill="black" stroke="black" points="749.52,-776.56 759.58,-773.22 749.63,-769.56 749.52,-776.56"/>
</g>
<!-- ds_simple -->
<g id="node5" class="node">
<title>ds_simple</title>
<path fill="none" stroke="black" d="M1064.12,-86.73C1064.12,-88.53 1041.88,-90 1014.5,-90 987.12,-90 964.88,-88.53 964.88,-86.73 964.88,-86.73 964.88,-57.27 964.88,-57.27 964.88,-55.47 987.12,-54 1014.5,-54 1041.88,-54 1064.12,-55.47 1064.12,-57.27 1064.12,-57.27 1064.12,-86.73 1064.12,-86.73"/>
<path fill="none" stroke="black" d="M1064.12,-86.73C1064.12,-84.92 1041.88,-83.45 1014.5,-83.45 987.12,-83.45 964.88,-84.92 964.88,-86.73"/>
<text xml:space="preserve" text-anchor="middle" x="1014.5" y="-68.5" font-family="Helvetica,sans-Serif" font-size="10.00">../MAM&#45;simple/out/</text>
</g>
<!-- mam4sef -->
<g id="node19" class="node">
<title>mam4sef</title>
<polygon fill="none" stroke="black" points="1208.25,-36 1125.5,-36 1125.5,0 1208.25,0 1208.25,-36"/>
<text xml:space="preserve" text-anchor="middle" x="1166.88" y="-14.5" font-family="Helvetica,sans-Serif" font-size="10.00">main_mam4sef</text>
</g>
<!-- ds_simple&#45;&gt;mam4sef -->
<g id="edge19" class="edge">
<title>ds_simple&#45;&gt;mam4sef</title>
<path fill="none" stroke="black" d="M1063.08,-54.91C1079.46,-49.03 1097.86,-42.42 1114.52,-36.44"/>
<polygon fill="black" stroke="black" points="1115.53,-39.8 1123.76,-33.12 1113.16,-33.21 1115.53,-39.8"/>
</g>
<!-- mam4ajf -->
<g id="node20" class="node">
<title>mam4ajf</title>
<polygon fill="none" stroke="black" points="1206.75,-90 1127,-90 1127,-54 1206.75,-54 1206.75,-90"/>
<text xml:space="preserve" text-anchor="middle" x="1166.88" y="-68.5" font-family="Helvetica,sans-Serif" font-size="10.00">main_mam4ajf</text>
</g>
<!-- ds_simple&#45;&gt;mam4ajf -->
<g id="edge20" class="edge">
<title>ds_simple&#45;&gt;mam4ajf</title>
<path fill="none" stroke="black" d="M1064.32,-72C1080.77,-72 1099.14,-72 1115.69,-72"/>
<polygon fill="black" stroke="black" points="1115.29,-75.5 1125.29,-72 1115.29,-68.5 1115.29,-75.5"/>
</g>
<!-- osis -->
<g id="node21" class="node">
<title>osis</title>
<polygon fill="none" stroke="black" points="1197,-144 1136.75,-144 1136.75,-108 1197,-108 1197,-144"/>
<text xml:space="preserve" text-anchor="middle" x="1166.88" y="-122.5" font-family="Helvetica,sans-Serif" font-size="10.00">main_osis</text>
</g>
<!-- ds_simple&#45;&gt;osis -->
<g id="edge21" class="edge">
<title>ds_simple&#45;&gt;osis</title>
<path fill="none" stroke="black" d="M1063.08,-89.09C1083.22,-96.32 1106.43,-104.65 1125.69,-111.57"/>
<polygon fill="black" stroke="black" points="1124.51,-114.86 1135.1,-114.95 1126.87,-108.27 1124.51,-114.86"/>
</g>
<!-- ds_with_doc -->
<g id="node6" class="node">
<title>ds_with_doc</title>
<path fill="none" stroke="black" d="M1072,-194.73C1072,-196.53 1046.23,-198 1014.5,-198 982.77,-198 957,-196.53 957,-194.73 957,-194.73 957,-165.27 957,-165.27 957,-163.47 982.77,-162 1014.5,-162 1046.23,-162 1072,-163.47 1072,-165.27 1072,-165.27 1072,-194.73 1072,-194.73"/>
<path fill="none" stroke="black" d="M1072,-194.73C1072,-192.92 1046.23,-191.45 1014.5,-191.45 982.77,-191.45 957,-192.92 957,-194.73"/>
<text xml:space="preserve" text-anchor="middle" x="1014.5" y="-176.5" font-family="Helvetica,sans-Serif" font-size="10.00">../MAM&#45;with&#45;doc/docs/</text>
</g>
<!-- ds_sefaria -->
<g id="node7" class="node">
<title>ds_sefaria</title>
<path fill="none" stroke="black" d="M1377.5,-60.73C1377.5,-62.53 1351.56,-64 1319.62,-64 1287.69,-64 1261.75,-62.53 1261.75,-60.73 1261.75,-60.73 1261.75,-31.27 1261.75,-31.27 1261.75,-29.47 1287.69,-28 1319.62,-28 1351.56,-28 1377.5,-29.47 1377.5,-31.27 1377.5,-31.27 1377.5,-60.73 1377.5,-60.73"/>
<path fill="none" stroke="black" d="M1377.5,-60.73C1377.5,-58.92 1351.56,-57.45 1319.62,-57.45 1287.69,-57.45 1261.75,-58.92 1261.75,-60.73"/>
<text xml:space="preserve" text-anchor="middle" x="1319.62" y="-42.5" font-family="Helvetica,sans-Serif" font-size="10.00">../MAM&#45;for&#45;Sefaria/out/</text>
</g>
<!-- ds_osis -->
<g id="node8" class="node">
<title>ds_osis</title>
<path fill="none" stroke="black" d="M1358.75,-167.73C1358.75,-169.53 1341.21,-171 1319.62,-171 1298.04,-171 1280.5,-169.53 1280.5,-167.73 1280.5,-167.73 1280.5,-138.27 1280.5,-138.27 1280.5,-136.47 1298.04,-135 1319.62,-135 1341.21,-135 1358.75,-136.47 1358.75,-138.27 1358.75,-138.27 1358.75,-167.73 1358.75,-167.73"/>
<path fill="none" stroke="black" d="M1358.75,-167.73C1358.75,-165.92 1341.21,-164.45 1319.62,-164.45 1298.04,-164.45 1280.5,-165.92 1280.5,-167.73"/>
<text xml:space="preserve" text-anchor="middle" x="1319.62" y="-149.5" font-family="Helvetica,sans-Serif" font-size="10.00">../MAM&#45;OSIS/</text>
</g>
<!-- ds_out -->
<g id="node9" class="node">
<title>ds_out</title>
<path fill="none" stroke="black" d="M1053.25,-607C1053.25,-609.21 1035.88,-611 1014.5,-611 993.12,-611 975.75,-609.21 975.75,-607 975.75,-607 975.75,-571 975.75,-571 975.75,-568.79 993.12,-567 1014.5,-567 1035.88,-567 1053.25,-568.79 1053.25,-571 1053.25,-571 1053.25,-607 1053.25,-607"/>
<path fill="none" stroke="black" d="M1053.25,-607C1053.25,-604.79 1035.88,-603 1014.5,-603 993.12,-603 975.75,-604.79 975.75,-607"/>
<text xml:space="preserve" text-anchor="middle" x="1014.5" y="-591.5" font-family="Helvetica,sans-Serif" font-size="10.00">out/</text>
<text xml:space="preserve" text-anchor="middle" x="1014.5" y="-579.5" font-family="Helvetica,sans-Serif" font-size="10.00">(local outputs)</text>
</g>
<!-- ds_mamgo_auto -->
<g id="node10" class="node">
<title>ds_mamgo_auto</title>
<path fill="none" stroke="black" d="M1067.5,-842.73C1067.5,-844.53 1043.74,-846 1014.5,-846 985.26,-846 961.5,-844.53 961.5,-842.73 961.5,-842.73 961.5,-813.27 961.5,-813.27 961.5,-811.47 985.26,-810 1014.5,-810 1043.74,-810 1067.5,-811.47 1067.5,-813.27 1067.5,-813.27 1067.5,-842.73 1067.5,-842.73"/>
<path fill="none" stroke="black" d="M1067.5,-842.73C1067.5,-840.92 1043.74,-839.45 1014.5,-839.45 985.26,-839.45 961.5,-840.92 961.5,-842.73"/>
<text xml:space="preserve" text-anchor="middle" x="1014.5" y="-824.5" font-family="Helvetica,sans-Serif" font-size="10.00">../mamgo&#45;auto&#45;edits/</text>
</g>
<!-- download_go -->
<g id="node11" class="node">
<title>download_go</title>
<polygon fill="none" stroke="gray" stroke-dasharray="5,2" points="139.38,-639 10.88,-639 10.88,-603 139.38,-603 139.38,-639"/>
<text xml:space="preserve" text-anchor="middle" x="75.12" y="-617.5" font-family="Helvetica,sans-Serif" font-size="10.00" fill="gray">main_download_fr_google</text>
</g>
<!-- download_go&#45;&gt;ds_go_csv -->
<g id="edge1" class="edge">
<title>download_go&#45;&gt;ds_go_csv</title>
<path fill="none" stroke="gray" d="M139.53,-621C151.59,-621 164.05,-621 175.58,-621"/>
<polygon fill="gray" stroke="gray" points="175.24,-624.5 185.24,-621 175.24,-617.5 175.24,-624.5"/>
</g>
<!-- download_ws -->
<g id="node12" class="node">
<title>download_ws</title>
<polygon fill="none" stroke="gray" stroke-dasharray="5,2" points="447.5,-760 301,-760 301,-724 447.5,-724 447.5,-760"/>
<text xml:space="preserve" text-anchor="middle" x="374.25" y="-738.5" font-family="Helvetica,sans-Serif" font-size="10.00" fill="gray">main_download_fr_wikisource</text>
</g>
<!-- download_ws&#45;&gt;ds_ws -->
<g id="edge38" class="edge">
<title>download_ws&#45;&gt;ds_ws</title>
<path fill="none" stroke="gray" d="M447.68,-750.86C480.8,-754.91 519.6,-759.65 551.22,-763.52"/>
<polygon fill="gray" stroke="gray" points="550.67,-766.98 561.02,-764.72 551.52,-760.03 550.67,-766.98"/>
</g>
<!-- download_sef -->
<g id="node13" class="node">
<title>download_sef</title>
<polygon fill="none" stroke="gray" stroke-dasharray="5,2" points="876.5,-684 747.25,-684 747.25,-648 876.5,-648 876.5,-684"/>
<text xml:space="preserve" text-anchor="middle" x="811.88" y="-662.5" font-family="Helvetica,sans-Serif" font-size="10.00" fill="gray">main_download_fr_sefaria</text>
</g>
<!-- download_sef&#45;&gt;ds_out -->
<g id="edge43" class="edge">
<title>download_sef&#45;&gt;ds_out</title>
<path fill="none" stroke="gray" d="M876.83,-652.6C891.24,-648.83 906.32,-644.29 920,-639 936.76,-632.52 954.33,-623.71 969.66,-615.29"/>
<polygon fill="gray" stroke="gray" points="971.05,-618.53 978.06,-610.58 967.63,-612.42 971.05,-618.53"/>
</g>
<!-- parse_go&#45;&gt;ds_parsed_plus -->
<g id="edge3" class="edge">
<title>parse_go&#45;&gt;ds_parsed_plus</title>
<path fill="none" stroke="black" d="M400.63,-602.7C443.3,-571.93 529.49,-509.77 577.71,-475"/>
<polygon fill="black" stroke="black" points="579.53,-478 585.59,-469.31 575.44,-472.32 579.53,-478"/>
</g>
<!-- parse_go&#45;&gt;ds_parsed_plain -->
<g id="edge4" class="edge">
<title>parse_go&#45;&gt;ds_parsed_plain</title>
<path fill="none" stroke="black" d="M395.63,-639.36C427.68,-668.49 491.42,-727.5 542,-781 550.44,-789.93 550.36,-794.38 560,-802 561.3,-803.03 562.65,-804.04 564.04,-805.03"/>
<polygon fill="black" stroke="black" points="561.98,-807.87 572.28,-810.35 565.78,-801.99 561.98,-807.87"/>
</g>
<!-- foi&#45;&gt;ds_with_doc -->
<g id="edge15" class="edge">
<title>foi&#45;&gt;ds_with_doc</title>
<path fill="none" stroke="black" d="M884.42,-143.67C896.32,-146.71 908.52,-149.9 920,-153 928.37,-155.26 937.15,-157.7 945.82,-160.16"/>
<polygon fill="black" stroke="black" points="944.69,-163.48 955.27,-162.85 946.61,-156.75 944.69,-163.48"/>
</g>
<!-- mam_with_doc&#45;&gt;ds_with_doc -->
<g id="edge16" class="edge">
<title>mam_with_doc&#45;&gt;ds_with_doc</title>
<path fill="none" stroke="black" d="M866.37,-220.9C883.53,-216.59 902.6,-211.7 920,-207 928.37,-204.74 937.15,-202.3 945.82,-199.84"/>
<polygon fill="black" stroke="black" points="946.61,-203.25 955.27,-197.15 944.69,-196.52 946.61,-203.25"/>
</g>
<!-- tmpl_survey&#45;&gt;ds_out -->
<g id="edge26" class="edge">
<title>tmpl_survey&#45;&gt;ds_out</title>
<path fill="none" stroke="black" d="M860.01,-879.94C880.64,-876.77 903.78,-869.81 920,-855 955.14,-822.92 990.83,-686.17 1005.97,-622.22"/>
<polygon fill="black" stroke="black" points="1009.34,-623.18 1008.21,-612.64 1002.52,-621.58 1009.34,-623.18"/>
</g>
<!-- mam_simple&#45;&gt;ds_simple -->
<g id="edge18" class="edge">
<title>mam_simple&#45;&gt;ds_simple</title>
<path fill="none" stroke="black" d="M861.18,-72C888.82,-72 923.74,-72 953.17,-72"/>
<polygon fill="black" stroke="black" points="953.05,-75.5 963.05,-72 953.05,-68.5 953.05,-75.5"/>
</g>
<!-- mam4sef&#45;&gt;ds_sefaria -->
<g id="edge22" class="edge">
<title>mam4sef&#45;&gt;ds_sefaria</title>
<path fill="none" stroke="black" d="M1208.67,-25.58C1221.47,-27.95 1235.96,-30.65 1250.13,-33.28"/>
<polygon fill="black" stroke="black" points="1249.43,-36.71 1259.9,-35.09 1250.71,-29.82 1249.43,-36.71"/>
</g>
<!-- mam4ajf&#45;&gt;ds_sefaria -->
<g id="edge23" class="edge">
<title>mam4ajf&#45;&gt;ds_sefaria</title>
<path fill="none" stroke="black" d="M1207.09,-65.24C1220.3,-62.96 1235.45,-60.35 1250.24,-57.8"/>
<polygon fill="black" stroke="black" points="1250.69,-61.27 1259.94,-56.12 1249.5,-54.37 1250.69,-61.27"/>
</g>
<!-- osis&#45;&gt;ds_osis -->
<g id="edge24" class="edge">
<title>osis&#45;&gt;ds_osis</title>
<path fill="none" stroke="black" d="M1197.3,-131.27C1217.62,-134.91 1245.15,-139.84 1268.85,-144.09"/>
<polygon fill="black" stroke="black" points="1268.18,-147.52 1278.64,-145.84 1269.41,-140.63 1268.18,-147.52"/>
</g>
<!-- decnreub&#45;&gt;ds_out -->
<g id="edge27" class="edge">
<title>decnreub&#45;&gt;ds_out</title>
<path fill="none" stroke="black" d="M853.14,-454.08C874.31,-457.67 899.94,-464.4 920,-477 952,-497.11 978.46,-531.82 994.96,-557.28"/>
<polygon fill="black" stroke="black" points="991.91,-559 1000.2,-565.6 997.83,-555.27 991.91,-559"/>
</g>
<!-- multimark&#45;&gt;ds_out -->
<g id="edge28" class="edge">
<title>multimark&#45;&gt;ds_out</title>
<path fill="none" stroke="black" d="M854.73,-289.25C876.62,-291.99 902.44,-298.82 920,-315 989.72,-379.22 1007.46,-497.52 1011.97,-555.37"/>
<polygon fill="black" stroke="black" points="1008.47,-555.5 1012.64,-565.24 1015.45,-555.03 1008.47,-555.5"/>
</g>
<!-- wordlist&#45;&gt;ds_out -->
<g id="edge29" class="edge">
<title>wordlist&#45;&gt;ds_out</title>
<path fill="none" stroke="black" d="M850.14,-607.73C882.35,-604.04 929.14,-598.67 964.4,-594.63"/>
<polygon fill="black" stroke="black" points="964.37,-598.16 973.91,-593.54 963.57,-591.2 964.37,-598.16"/>
</g>
<!-- explicit_xataf&#45;&gt;ds_out -->
<g id="edge30" class="edge">
<title>explicit_xataf&#45;&gt;ds_out</title>
<path fill="none" stroke="black" d="M862.21,-565.62C893.31,-570.43 933.32,-576.61 964.38,-581.41"/>
<polygon fill="black" stroke="black" points="963.48,-584.81 973.89,-582.88 964.54,-577.89 963.48,-584.81"/>
</g>
<!-- diff_wsgo&#45;&gt;ds_out -->
<g id="edge31" class="edge">
<title>diff_wsgo&#45;&gt;ds_out</title>
<path fill="none" stroke="black" d="M853.93,-826.18C875.71,-823.27 901.68,-816.47 920,-801 974.97,-754.59 998.77,-669.56 1008.12,-622.52"/>
<polygon fill="black" stroke="black" points="1011.52,-623.38 1009.92,-612.91 1004.64,-622.1 1011.52,-623.38"/>
</g>
<!-- diff_wsgo&#45;&gt;ds_mamgo_auto -->
<g id="edge32" class="edge">
<title>diff_wsgo&#45;&gt;ds_mamgo_auto</title>
<path fill="none" stroke="black" d="M853.96,-828C881.53,-828 918.39,-828 949.74,-828"/>
<polygon fill="black" stroke="black" points="949.5,-831.5 959.5,-828 949.5,-824.5 949.5,-831.5"/>
</g>
<!-- diff_gogo -->
<g id="node27" class="node">
<title>diff_gogo</title>
<polygon fill="none" stroke="black" points="852.5,-414 771.25,-414 771.25,-378 852.5,-378 852.5,-414"/>
<text xml:space="preserve" text-anchor="middle" x="811.88" y="-392.5" font-family="Helvetica,sans-Serif" font-size="10.00">main_diff_gogo</text>
</g>
<!-- diff_gogo&#45;&gt;ds_out -->
<g id="edge33" class="edge">
<title>diff_gogo&#45;&gt;ds_out</title>
<path fill="none" stroke="black" d="M852.84,-398.47C874.55,-401.56 900.8,-408.33 920,-423 964.38,-456.9 990.89,-518.29 1003.8,-556.16"/>
<polygon fill="black" stroke="black" points="1000.32,-556.79 1006.76,-565.2 1006.97,-554.61 1000.32,-556.79"/>
</g>
<!-- diff_ctr&#45;&gt;ds_out -->
<g id="edge34" class="edge">
<title>diff_ctr&#45;&gt;ds_out</title>
<path fill="none" stroke="black" d="M869.27,-514.77C885.95,-518.86 904.02,-524.22 920,-531 938.96,-539.04 958.54,-550.6 974.85,-561.29"/>
<polygon fill="black" stroke="black" points="972.53,-563.95 982.79,-566.6 976.43,-558.13 972.53,-563.95"/>
</g>
<!-- parse_ws&#45;&gt;ds_out -->
<g id="edge35" class="edge">
<title>parse_ws&#45;&gt;ds_out</title>
<path fill="none" stroke="black" d="M854.25,-715.39C875.11,-711.67 900.13,-704.99 920,-693 950.15,-674.82 976.15,-643.86 993.02,-620.44"/>
<polygon fill="black" stroke="black" points="995.72,-622.68 998.59,-612.48 989.99,-618.66 995.72,-622.68"/>
</g>
<!-- ws_bot_proto&#45;&gt;ds_out -->
<g id="edge36" class="edge">
<title>ws_bot_proto&#45;&gt;ds_out</title>
<path fill="none" stroke="black" d="M862.52,-769.74C881.95,-766.08 903.48,-759.34 920,-747 962.46,-715.27 989.21,-658.09 1002.75,-621.92"/>
<polygon fill="black" stroke="black" points="1005.92,-623.43 1006.01,-612.84 999.33,-621.06 1005.92,-623.43"/>
</g>
<!-- ws_bot -->
<g id="node31" class="node">
<title>ws_bot</title>
<polygon fill="none" stroke="black" points="411.12,-818 337.38,-818 337.38,-782 411.12,-782 411.12,-818"/>
<text xml:space="preserve" text-anchor="middle" x="374.25" y="-802.5" font-family="Helvetica,sans-Serif" font-size="10.00">main_ws_bot</text>
<text xml:space="preserve" text-anchor="middle" x="374.25" y="-790.5" font-family="Helvetica,sans-Serif" font-size="10.00">(live edits)</text>
</g>
<!-- ws_bot&#45;&gt;ds_ws -->
<g id="edge42" class="edge">
<title>ws_bot&#45;&gt;ds_ws</title>
<path fill="none" stroke="black" stroke-dasharray="5,2" d="M411.52,-795.56C448.76,-791.01 507.37,-783.84 551.68,-778.42"/>
<polygon fill="black" stroke="black" points="551.9,-781.92 561.4,-777.23 551.05,-774.97 551.9,-781.92"/>
<text xml:space="preserve" text-anchor="middle" x="503.75" y="-801.4" font-family="Helvetica,sans-Serif" font-size="9.00">writes live</text>
<text xml:space="preserve" text-anchor="middle" x="503.75" y="-790.9" font-family="Helvetica,sans-Serif" font-size="9.00">then re&#45;downloads</text>
</g>
<!-- gen_docs -->
<g id="node32" class="node">
<title>gen_docs</title>
<polygon fill="none" stroke="black" points="920,-198 703.75,-198 703.75,-162 920,-162 920,-198"/>
<text xml:space="preserve" text-anchor="middle" x="811.88" y="-176.5" font-family="Helvetica,sans-Serif" font-size="10.00">main_gen_misc_authored_english_documents</text>
</g>
<!-- gen_docs&#45;&gt;ds_with_doc -->
<g id="edge17" class="edge">
<title>gen_docs&#45;&gt;ds_with_doc</title>
<path fill="none" stroke="black" d="M920.24,-180C928.78,-180 937.26,-180 945.43,-180"/>
<polygon fill="black" stroke="black" points="945.21,-183.5 955.21,-180 945.21,-176.5 945.21,-183.5"/>
</g>
<!-- mam_xml_copy -->
<g id="node33" class="node">
<title>mam_xml_copy</title>
<polygon fill="none" stroke="black" points="150.25,-693 0,-693 0,-657 150.25,-657 150.25,-693"/>
<text xml:space="preserve" text-anchor="middle" x="75.12" y="-671.5" font-family="Helvetica,sans-Serif" font-size="10.00">main_mam_xml_copy_py_files</text>
</g>
<!-- mgc -->
<g id="node34" class="node">
<title>mgc</title>
<polygon fill="none" stroke="black" points="918.88,-360 704.88,-360 704.88,-324 918.88,-324 918.88,-360"/>
<text xml:space="preserve" text-anchor="middle" x="811.88" y="-338.5" font-family="Helvetica,sans-Serif" font-size="10.00">main_mgc_match_go_changes_to_gogo_diffs</text>
</g>
<!-- mgc&#45;&gt;ds_out -->
<g id="edge37" class="edge">
<title>mgc&#45;&gt;ds_out</title>
<path fill="none" stroke="black" d="M907.74,-360.37C912.09,-362.89 916.21,-365.76 920,-369 976.94,-417.74 1000.08,-507.21 1008.76,-555.68"/>
<polygon fill="black" stroke="black" points="1005.27,-556.01 1010.38,-565.29 1012.17,-554.85 1005.27,-556.01"/>
</g>
<!-- osis_split -->
<g id="node35" class="node">
<title>osis_split</title>
<polygon fill="none" stroke="black" points="1224.75,-198 1109,-198 1109,-162 1224.75,-162 1224.75,-198"/>
<text xml:space="preserve" text-anchor="middle" x="1166.88" y="-176.5" font-family="Helvetica,sans-Serif" font-size="10.00">main_osis_split_mapm</text>
</g>
<!-- osis_split&#45;&gt;ds_osis -->
<g id="edge25" class="edge">
<title>osis_split&#45;&gt;ds_osis</title>
<path fill="none" stroke="black" d="M1224.87,-169.79C1239.47,-167.18 1255.06,-164.38 1269.25,-161.84"/>
<polygon fill="black" stroke="black" points="1269.56,-165.34 1278.79,-160.14 1268.33,-158.45 1269.56,-165.34"/>
</g>
</g>
</svg>
