<?xml version="1.0" encoding="UTF-8" standalone="no"?>
<!DOCTYPE svg PUBLIC "-//W3C//DTD SVG 1.1//EN"
 "http://www.w3.org/Graphics/SVG/1.1/DTD/svg11.dtd">
<!-- Generated by graphviz version 14.1.2 (20260124.0452)
 -->
<!-- Title: mam_pipeline Pages: 1 -->
<svg width="1386pt" height="800pt"
 viewBox="0.00 0.00 1386.00 800.00" xmlns="http://www.w3.org/2000/svg" xmlns:xlink="http://www.w3.org/1999/xlink">
<g id="graph0" class="graph" transform="scale(1 1) rotate(0) translate(4 796)">
<title>mam_pipeline</title>
<polygon fill="white" stroke="none" points="-4,4 -4,-796 1381.5,-796 1381.5,4 -4,4"/>
<!-- ds_go_csv -->
<g id="node1" class="node">
<title>ds_go_csv</title>
<path fill="none" stroke="black" d="M264,-543C264,-545.21 246.8,-547 225.62,-547 204.45,-547 187.25,-545.21 187.25,-543 187.25,-543 187.25,-507 187.25,-507 187.25,-504.79 204.45,-503 225.62,-503 246.8,-503 264,-504.79 264,-507 264,-507 264,-543 264,-543"/>
<path fill="none" stroke="black" d="M264,-543C264,-540.79 246.8,-539 225.62,-539 204.45,-539 187.25,-540.79 187.25,-543"/>
<text xml:space="preserve" text-anchor="middle" x="225.62" y="-527.5" font-family="Helvetica,sans-Serif" font-size="10.00">in/mam&#45;go/</text>
<text xml:space="preserve" text-anchor="middle" x="225.62" y="-515.5" font-family="Helvetica,sans-Serif" font-size="10.00">(Google CSV)</text>
</g>
<!-- parse_go -->
<g id="node14" class="node">
<title>parse_go</title>
<polygon fill="none" stroke="black" points="415.25,-543 333.25,-543 333.25,-507 415.25,-507 415.25,-543"/>
<text xml:space="preserve" text-anchor="middle" x="374.25" y="-521.5" font-family="Helvetica,sans-Serif" font-size="10.00">main_parse_go</text>
</g>
<!-- ds_go_csv&#45;&gt;parse_go -->
<g id="edge2" class="edge">
<title>ds_go_csv&#45;&gt;parse_go</title>
<path fill="none" stroke="black" d="M264.38,-525C281.74,-525 302.6,-525 321.4,-525"/>
<polygon fill="black" stroke="black" points="321.28,-528.5 331.28,-525 321.28,-521.5 321.28,-528.5"/>
</g>
<!-- ds_parsed_plus -->
<g id="node2" class="node">
<title>ds_parsed_plus</title>
<path fill="none" stroke="black" d="M665.62,-410.73C665.62,-412.53 642.21,-414 613.38,-414 584.54,-414 561.12,-412.53 561.12,-410.73 561.12,-410.73 561.12,-381.27 561.12,-381.27 561.12,-379.47 584.54,-378 613.38,-378 642.21,-378 665.62,-379.47 665.62,-381.27 665.62,-381.27 665.62,-410.73 665.62,-410.73"/>
<path fill="none" stroke="black" d="M665.62,-410.73C665.62,-408.92 642.21,-407.45 613.38,-407.45 584.54,-407.45 561.12,-408.92 561.12,-410.73"/>
<text xml:space="preserve" text-anchor="middle" x="613.38" y="-392.5" font-family="Helvetica,sans-Serif" font-size="10.00">../MAM&#45;parsed/plus/</text>
</g>
<!-- foi -->
<g id="node15" class="node">
<title>foi</title>
<polygon fill="none" stroke="black" points="884,-144 739.75,-144 739.75,-108 884,-108 884,-144"/>
<text xml:space="preserve" text-anchor="middle" x="811.88" y="-122.5" font-family="Helvetica,sans-Serif" font-size="10.00">main_foi_features_of_interest</text>
</g>
<!-- ds_parsed_plus&#45;&gt;foi -->
<g id="edge5" class="edge">
<title>ds_parsed_plus&#45;&gt;foi</title>
<path fill="none" stroke="black" d="M615.5,-377.59C619.3,-332.22 635.58,-214.33 703.75,-153 711.05,-146.43 719.72,-141.41 728.92,-137.58"/>
<polygon fill="black" stroke="black" points="729.86,-140.96 738.06,-134.26 727.47,-134.38 729.86,-140.96"/>
</g>
<!-- mam_with_doc -->
<g id="node16" class="node">
<title>mam_with_doc</title>
<polygon fill="none" stroke="black" points="866,-198 757.75,-198 757.75,-162 866,-162 866,-198"/>
<text xml:space="preserve" text-anchor="middle" x="811.88" y="-176.5" font-family="Helvetica,sans-Serif" font-size="10.00">main_mam_with_doc</text>
</g>
<!-- ds_parsed_plus&#45;&gt;mam_with_doc -->
<g id="edge6" class="edge">
<title>ds_parsed_plus&#45;&gt;mam_with_doc</title>
<path fill="none" stroke="black" d="M622.6,-377.53C643.32,-331.12 696.55,-212.92 703.75,-207 715.85,-197.05 731.14,-190.7 746.34,-186.67"/>
<polygon fill="black" stroke="black" points="746.92,-190.13 755.87,-184.47 745.34,-183.31 746.92,-190.13"/>
</g>
<!-- mam_simple -->
<g id="node18" class="node">
<title>mam_simple</title>
<polygon fill="none" stroke="black" points="860.75,-90 763,-90 763,-54 860.75,-54 860.75,-90"/>
<text xml:space="preserve" text-anchor="middle" x="811.88" y="-68.5" font-family="Helvetica,sans-Serif" font-size="10.00">main_mam_simple</text>
</g>
<!-- ds_parsed_plus&#45;&gt;mam_simple -->
<g id="edge7" class="edge">
<title>ds_parsed_plus&#45;&gt;mam_simple</title>
<path fill="none" stroke="black" d="M614.08,-377.51C614.3,-325.51 622.39,-176.75 703.75,-99 716.6,-86.72 734.19,-79.79 751.41,-75.95"/>
<polygon fill="black" stroke="black" points="751.94,-79.41 761.12,-74.13 750.65,-72.53 751.94,-79.41"/>
</g>
<!-- decnreub -->
<g id="node22" class="node">
<title>decnreub</title>
<polygon fill="none" stroke="black" points="852.88,-414 770.88,-414 770.88,-378 852.88,-378 852.88,-414"/>
<text xml:space="preserve" text-anchor="middle" x="811.88" y="-392.5" font-family="Helvetica,sans-Serif" font-size="10.00">main_decnreub</text>
</g>
<!-- ds_parsed_plus&#45;&gt;decnreub -->
<g id="edge8" class="edge">
<title>ds_parsed_plus&#45;&gt;decnreub</title>
<path fill="none" stroke="black" d="M666,-396C694.69,-396 730.27,-396 758.99,-396"/>
<polygon fill="black" stroke="black" points="758.93,-399.5 768.93,-396 758.93,-392.5 758.93,-399.5"/>
</g>
<!-- multimark -->
<g id="node23" class="node">
<title>multimark</title>
<polygon fill="none" stroke="black" points="854.38,-360 769.38,-360 769.38,-324 854.38,-324 854.38,-360"/>
<text xml:space="preserve" text-anchor="middle" x="811.88" y="-338.5" font-family="Helvetica,sans-Serif" font-size="10.00">main_multimark</text>
</g>
<!-- ds_parsed_plus&#45;&gt;multimark -->
<g id="edge9" class="edge">
<title>ds_parsed_plus&#45;&gt;multimark</title>
<path fill="none" stroke="black" d="M665.77,-380.03C678.17,-376.3 691.41,-372.42 703.75,-369 721.34,-364.13 740.65,-359.15 757.98,-354.81"/>
<polygon fill="black" stroke="black" points="758.71,-358.24 767.57,-352.43 757.02,-351.45 758.71,-358.24"/>
</g>
<!-- wordlist -->
<g id="node24" class="node">
<title>wordlist</title>
<polygon fill="none" stroke="black" points="849.88,-576 773.88,-576 773.88,-540 849.88,-540 849.88,-576"/>
<text xml:space="preserve" text-anchor="middle" x="811.88" y="-554.5" font-family="Helvetica,sans-Serif" font-size="10.00">main_wordlist</text>
</g>
<!-- ds_parsed_plus&#45;&gt;wordlist -->
<g id="edge10" class="edge">
<title>ds_parsed_plus&#45;&gt;wordlist</title>
<path fill="none" stroke="black" d="M621.39,-414.45C633.54,-443.82 661.32,-500.94 703.75,-531 720.82,-543.1 742.8,-549.79 762.4,-553.48"/>
<polygon fill="black" stroke="black" points="761.68,-556.91 772.11,-555.08 762.81,-550 761.68,-556.91"/>
</g>
<!-- explicit_xataf -->
<g id="node25" class="node">
<title>explicit_xataf</title>
<polygon fill="none" stroke="black" points="861.88,-522 761.88,-522 761.88,-486 861.88,-486 861.88,-522"/>
<text xml:space="preserve" text-anchor="middle" x="811.88" y="-500.5" font-family="Helvetica,sans-Serif" font-size="10.00">main_explicit_xataf</text>
</g>
<!-- ds_parsed_plus&#45;&gt;explicit_xataf -->
<g id="edge11" class="edge">
<title>ds_parsed_plus&#45;&gt;explicit_xataf</title>
<path fill="none" stroke="black" d="M629.58,-414.27C646,-432.8 673.84,-460.99 703.75,-477 718.18,-484.72 734.88,-490.3 750.75,-494.3"/>
<polygon fill="black" stroke="black" points="749.55,-497.61 760.09,-496.48 751.15,-490.8 749.55,-497.61"/>
</g>
<!-- diff_ctr -->
<g id="node27" class="node">
<title>diff_ctr</title>
<polygon fill="none" stroke="black" points="869,-468 754.75,-468 754.75,-432 869,-432 869,-468"/>
<text xml:space="preserve" text-anchor="middle" x="811.88" y="-446.5" font-family="Helvetica,sans-Serif" font-size="10.00">main_diff_ctr_vs_mam</text>
</g>
<!-- ds_parsed_plus&#45;&gt;diff_ctr -->
<g id="edge12" class="edge">
<title>ds_parsed_plus&#45;&gt;diff_ctr</title>
<path fill="none" stroke="black" d="M665.77,-411.97C678.17,-415.7 691.41,-419.58 703.75,-423 716.53,-426.54 730.22,-430.14 743.4,-433.5"/>
<polygon fill="black" stroke="black" points="742.29,-436.83 752.85,-435.9 744.01,-430.05 742.29,-436.83"/>
</g>
<!-- ds_parsed_plain -->
<g id="node3" class="node">
<title>ds_parsed_plain</title>
<path fill="none" stroke="black" d="M666.75,-735.73C666.75,-737.53 642.83,-739 613.38,-739 583.92,-739 560,-737.53 560,-735.73 560,-735.73 560,-706.27 560,-706.27 560,-704.47 583.92,-703 613.38,-703 642.83,-703 666.75,-704.47 666.75,-706.27 666.75,-706.27 666.75,-735.73 666.75,-735.73"/>
<path fill="none" stroke="black" d="M666.75,-735.73C666.75,-733.92 642.83,-732.45 613.38,-732.45 583.92,-732.45 560,-733.92 560,-735.73"/>
<text xml:space="preserve" text-anchor="middle" x="613.38" y="-717.5" font-family="Helvetica,sans-Serif" font-size="10.00">../MAM&#45;parsed/plain/</text>
</g>
<!-- tmpl_survey -->
<g id="node17" class="node">
<title>tmpl_survey</title>
<polygon fill="none" stroke="black" points="859.62,-792 764.12,-792 764.12,-756 859.62,-756 859.62,-792"/>
<text xml:space="preserve" text-anchor="middle" x="811.88" y="-770.5" font-family="Helvetica,sans-Serif" font-size="10.00">main_tmpl_survey</text>
</g>
<!-- ds_parsed_plain&#45;&gt;tmpl_survey -->
<g id="edge13" class="edge">
<title>ds_parsed_plain&#45;&gt;tmpl_survey</title>
<path fill="none" stroke="black" d="M667.22,-736.72C679.21,-740.19 691.9,-743.78 703.75,-747 719.69,-751.33 737.03,-755.8 753.03,-759.83"/>
<polygon fill="black" stroke="black" points="751.83,-763.14 762.38,-762.17 753.53,-756.34 751.83,-763.14"/>
</g>
<!-- diff_wsgo -->
<g id="node26" class="node">
<title>diff_wsgo</title>
<polygon fill="none" stroke="black" points="853.62,-738 770.12,-738 770.12,-702 853.62,-702 853.62,-738"/>
<text xml:space="preserve" text-anchor="middle" x="811.88" y="-716.5" font-family="Helvetica,sans-Serif" font-size="10.00">main_diff_wsgo</text>
</g>
<!-- ds_parsed_plain&#45;&gt;diff_wsgo -->
<g id="edge14" class="edge">
<title>ds_parsed_plain&#45;&gt;diff_wsgo</title>
<path fill="none" stroke="black" d="M667.03,-720.73C695.41,-720.59 730.31,-720.41 758.62,-720.27"/>
<polygon fill="black" stroke="black" points="758.42,-723.77 768.4,-720.22 758.38,-716.77 758.42,-723.77"/>
</g>
<!-- ds_ws -->
<g id="node4" class="node">
<title>ds_ws</title>
<path fill="none" stroke="black" d="M663.75,-681C663.75,-683.21 641.17,-685 613.38,-685 585.58,-685 563,-683.21 563,-681 563,-681 563,-645 563,-645 563,-642.79 585.58,-641 613.38,-641 641.17,-641 663.75,-642.79 663.75,-645 663.75,-645 663.75,-681 663.75,-681"/>
<path fill="none" stroke="black" d="M663.75,-681C663.75,-678.79 641.17,-677 613.38,-677 585.58,-677 563,-678.79 563,-681"/>
<text xml:space="preserve" text-anchor="middle" x="613.38" y="-665.5" font-family="Helvetica,sans-Serif" font-size="10.00">in/mam&#45;ws/</text>
<text xml:space="preserve" text-anchor="middle" x="613.38" y="-653.5" font-family="Helvetica,sans-Serif" font-size="10.00">(Wikisource JSON)</text>
</g>
<!-- ds_ws&#45;&gt;diff_wsgo -->
<g id="edge37" class="edge">
<title>ds_ws&#45;&gt;diff_wsgo</title>
<path fill="none" stroke="black" d="M663.8,-680.34C676.74,-684.68 690.71,-689.18 703.75,-693 721.49,-698.2 741.06,-703.32 758.56,-707.67"/>
<polygon fill="black" stroke="black" points="757.71,-711.06 768.26,-710.05 759.38,-704.27 757.71,-711.06"/>
</g>
<!-- parse_ws -->
<g id="node28" class="node">
<title>parse_ws</title>
<polygon fill="none" stroke="black" points="854,-684 769.75,-684 769.75,-648 854,-648 854,-684"/>
<text xml:space="preserve" text-anchor="middle" x="811.88" y="-662.5" font-family="Helvetica,sans-Serif" font-size="10.00">main_parse_ws</text>
</g>
<!-- ds_ws&#45;&gt;parse_ws -->
<g id="edge38" class="edge">
<title>ds_ws&#45;&gt;parse_ws</title>
<path fill="none" stroke="black" d="M664.21,-663.76C692.92,-664.2 728.98,-664.75 758.16,-665.2"/>
<polygon fill="black" stroke="black" points="757.82,-668.69 767.87,-665.34 757.92,-661.69 757.82,-668.69"/>
</g>
<!-- ws_bot_proto -->
<g id="node29" class="node">
<title>ws_bot_proto</title>
<polygon fill="none" stroke="black" points="862.25,-630 761.5,-630 761.5,-594 862.25,-594 862.25,-630"/>
<text xml:space="preserve" text-anchor="middle" x="811.88" y="-608.5" font-family="Helvetica,sans-Serif" font-size="10.00">main_ws_bot_proto</text>
</g>
<!-- ds_ws&#45;&gt;ws_bot_proto -->
<g id="edge39" class="edge">
<title>ds_ws&#45;&gt;ws_bot_proto</title>
<path fill="none" stroke="black" d="M663.98,-649.53C676.91,-646.06 690.84,-642.36 703.75,-639 718.84,-635.07 735.14,-630.92 750.37,-627.08"/>
<polygon fill="black" stroke="black" points="750.92,-630.55 759.77,-624.71 749.21,-623.76 750.92,-630.55"/>
</g>
<!-- ds_simple -->
<g id="node5" class="node">
<title>ds_simple</title>
<path fill="none" stroke="black" d="M1064.12,-86.73C1064.12,-88.53 1041.88,-90 1014.5,-90 987.12,-90 964.88,-88.53 964.88,-86.73 964.88,-86.73 964.88,-57.27 964.88,-57.27 964.88,-55.47 987.12,-54 1014.5,-54 1041.88,-54 1064.12,-55.47 1064.12,-57.27 1064.12,-57.27 1064.12,-86.73 1064.12,-86.73"/>
<path fill="none" stroke="black" d="M1064.12,-86.73C1064.12,-84.92 1041.88,-83.45 1014.5,-83.45 987.12,-83.45 964.88,-84.92 964.88,-86.73"/>
<text xml:space="preserve" text-anchor="middle" x="1014.5" y="-68.5" font-family="Helvetica,sans-Serif" font-size="10.00">../MAM&#45;simple/out/</text>
</g>
<!-- mam4sef -->
<g id="node19" class="node">
<title>mam4sef</title>
<polygon fill="none" stroke="black" points="1208.25,-36 1125.5,-36 1125.5,0 1208.25,0 1208.25,-36"/>
<text xml:space="preserve" text-anchor="middle" x="1166.88" y="-14.5" font-family="Helvetica,sans-Serif" font-size="10.00">main_mam4sef</text>
</g>
<!-- ds_simple&#45;&gt;mam4sef -->
<g id="edge19" class="edge">
<title>ds_simple&#45;&gt;mam4sef</title>
<path fill="none" stroke="black" d="M1063.08,-54.91C1079.46,-49.03 1097.86,-42.42 1114.52,-36.44"/>
<polygon fill="black" stroke="black" points="1115.53,-39.8 1123.76,-33.12 1113.16,-33.21 1115.53,-39.8"/>
</g>
<!-- mam4ajf -->
<g id="node20" class="node">
<title>mam4ajf</title>
<polygon fill="none" stroke="black" points="1206.75,-90 1127,-90 1127,-54 1206.75,-54 1206.75,-90"/>
<text xml:space="preserve" text-anchor="middle" x="1166.88" y="-68.5" font-family="Helvetica,sans-Serif" font-size="10.00">main_mam4ajf</text>
</g>
<!-- ds_simple&#45;&gt;mam4ajf -->
<g id="edge20" class="edge">
<title>ds_simple&#45;&gt;mam4ajf</title>
<path fill="none" stroke="black" d="M1064.32,-72C1080.77,-72 1099.14,-72 1115.69,-72"/>
<polygon fill="black" stroke="black" points="1115.29,-75.5 1125.29,-72 1115.29,-68.5 1115.29,-75.5"/>
</g>
<!-- osis -->
<g id="node21" class="node">
<title>osis</title>
<polygon fill="none" stroke="black" points="1197,-144 1136.75,-144 1136.75,-108 1197,-108 1197,-144"/>
<text xml:space="preserve" text-anchor="middle" x="1166.88" y="-122.5" font-family="Helvetica,sans-Serif" font-size="10.00">main_osis</text>
</g>
<!-- ds_simple&#45;&gt;osis -->
<g id="edge21" class="edge">
<title>ds_simple&#45;&gt;osis</title>
<path fill="none" stroke="black" d="M1063.08,-89.09C1083.22,-96.32 1106.43,-104.65 1125.69,-111.57"/>
<polygon fill="black" stroke="black" points="1124.51,-114.86 1135.1,-114.95 1126.87,-108.27 1124.51,-114.86"/>
</g>
<!-- ds_with_doc -->
<g id="node6" class="node">
<title>ds_with_doc</title>
<path fill="none" stroke="black" d="M1072,-194.73C1072,-196.53 1046.23,-198 1014.5,-198 982.77,-198 957,-196.53 957,-194.73 957,-194.73 957,-165.27 957,-165.27 957,-163.47 982.77,-162 1014.5,-162 1046.23,-162 1072,-163.47 1072,-165.27 1072,-165.27 1072,-194.73 1072,-194.73"/>
<path fill="none" stroke="black" d="M1072,-194.73C1072,-192.92 1046.23,-191.45 1014.5,-191.45 982.77,-191.45 957,-192.92 957,-194.73"/>
<text xml:space="preserve" text-anchor="middle" x="1014.5" y="-176.5" font-family="Helvetica,sans-Serif" font-size="10.00">../MAM&#45;with&#45;doc/docs/</text>
</g>
<!-- ds_sefaria -->
<g id="node7" class="node">
<title>ds_sefaria</title>
<path fill="none" stroke="black" d="M1377.5,-60.73C1377.5,-62.53 1351.56,-64 1319.62,-64 1287.69,-64 1261.75,-62.53 1261.75,-60.73 1261.75,-60.73 1261.75,-31.27 1261.75,-31.27 1261.75,-29.47 1287.69,-28 1319.62,-28 1351.56,-28 1377.5,-29.47 1377.5,-31.27 1377.5,-31.27 1377.5,-60.73 1377.5,-60.73"/>
<path fill="none" stroke="black" d="M1377.5,-60.73C1377.5,-58.92 1351.56,-57.45 1319.62,-57.45 1287.69,-57.45 1261.75,-58.92 1261.75,-60.73"/>
<text xml:space="preserve" text-anchor="middle" x="1319.62" y="-42.5" font-family="Helvetica,sans-Serif" font-size="10.00">../MAM&#45;for&#45;Sefaria/out/</text>
</g>
<!-- ds_osis -->
<g id="node8" class="node">
<title>ds_osis</title>
<path fill="none" stroke="black" d="M1358.75,-167.73C1358.75,-169.53 1341.21,-171 1319.62,-171 1298.04,-171 1280.5,-169.53 1280.5,-167.73 1280.5,-167.73 1280.5,-138.27 1280.5,-138.27 1280.5,-136.47 1298.04,-135 1319.62,-135 1341.21,-135 1358.75,-136.47 1358.75,-138.27 1358.75,-138.27 1358.75,-167.73 1358.75,-167.73"/>
<path fill="none" stroke="black" d="M1358.75,-167.73C1358.75,-165.92 1341.21,-164.45 1319.62,-164.45 1298.04,-164.45 1280.5,-165.92 1280.5,-167.73"/>
<text xml:space="preserve" text-anchor="middle" x="1319.62" y="-149.5" font-family="Helvetica,sans-Serif" font-size="10.00">../MAM&#45;OSIS/</text>
</g>
<!-- ds_out -->
<g id="node9" class="node">
<title>ds_out</title>
<path fill="none" stroke="black" d="M1053.25,-557C1053.25,-559.21 1035.88,-561 1014.5,-561 993.12,-561 975.75,-559.21 975.75,-557 975.75,-557 975.75,-521 975.75,-521 975.75,-518.79 993.12,-517 1014.5,-517 1035.88,-517 1053.25,-518.79 1053.25,-521 1053.25,-521 1053.25,-557 1053.25,-557"/>
<path fill="none" stroke="black" d="M1053.25,-557C1053.25,-554.79 1035.88,-553 1014.5,-553 993.12,-553 975.75,-554.79 975.75,-557"/>
<text xml:space="preserve" text-anchor="middle" x="1014.5" y="-541.5" font-family="Helvetica,sans-Serif" font-size="10.00">out/</text>
<text xml:space="preserve" text-anchor="middle" x="1014.5" y="-529.5" font-family="Helvetica,sans-Serif" font-size="10.00">(local outputs)</text>
</g>
<!-- ds_mamgo_auto -->
<g id="node10" class="node">
<title>ds_mamgo_auto</title>
<path fill="none" stroke="black" d="M1067.5,-734.73C1067.5,-736.53 1043.74,-738 1014.5,-738 985.26,-738 961.5,-736.53 961.5,-734.73 961.5,-734.73 961.5,-705.27 961.5,-705.27 961.5,-703.47 985.26,-702 1014.5,-702 1043.74,-702 1067.5,-703.47 1067.5,-705.27 1067.5,-705.27 1067.5,-734.73 1067.5,-734.73"/>
<path fill="none" stroke="black" d="M1067.5,-734.73C1067.5,-732.92 1043.74,-731.45 1014.5,-731.45 985.26,-731.45 961.5,-732.92 961.5,-734.73"/>
<text xml:space="preserve" text-anchor="middle" x="1014.5" y="-716.5" font-family="Helvetica,sans-Serif" font-size="10.00">../mamgo&#45;auto&#45;edits/</text>
</g>
<!-- download_go -->
<g id="node11" class="node">
<title>download_go</title>
<polygon fill="none" stroke="gray" stroke-dasharray="5,2" points="139.38,-543 10.88,-543 10.88,-507 139.38,-507 139.38,-543"/>
<text xml:space="preserve" text-anchor="middle" x="75.12" y="-521.5" font-family="Helvetica,sans-Serif" font-size="10.00" fill="gray">main_download_fr_google</text>
</g>
<!-- download_go&#45;&gt;ds_go_csv -->
<g id="edge1" class="edge">
<title>download_go&#45;&gt;ds_go_csv</title>
<path fill="none" stroke="gray" d="M139.53,-525C151.59,-525 164.05,-525 175.58,-525"/>
<polygon fill="gray" stroke="gray" points="175.24,-528.5 185.24,-525 175.24,-521.5 175.24,-528.5"/>
</g>
<!-- download_ws -->
<g id="node12" class="node">
<title>download_ws</title>
<polygon fill="none" stroke="gray" stroke-dasharray="5,2" points="447.5,-711 301,-711 301,-675 447.5,-675 447.5,-711"/>
<text xml:space="preserve" text-anchor="middle" x="374.25" y="-689.5" font-family="Helvetica,sans-Serif" font-size="10.00" fill="gray">main_download_fr_wikisource</text>
</g>
<!-- download_ws&#45;&gt;ds_ws -->
<g id="edge36" class="edge">
<title>download_ws&#45;&gt;ds_ws</title>
<path fill="none" stroke="gray" d="M447.68,-683.84C480.8,-679.65 519.6,-674.74 551.22,-670.74"/>
<polygon fill="gray" stroke="gray" points="551.54,-674.22 561.02,-669.5 550.66,-667.28 551.54,-674.22"/>
</g>
<!-- download_sef -->
<g id="node13" class="node">
<title>download_sef</title>
<polygon fill="none" stroke="gray" stroke-dasharray="5,2" points="876.5,-306 747.25,-306 747.25,-270 876.5,-270 876.5,-306"/>
<text xml:space="preserve" text-anchor="middle" x="811.88" y="-284.5" font-family="Helvetica,sans-Serif" font-size="10.00" fill="gray">main_download_fr_sefaria</text>
</g>
<!-- download_sef&#45;&gt;ds_out -->
<g id="edge41" class="edge">
<title>download_sef&#45;&gt;ds_out</title>
<path fill="none" stroke="gray" d="M877,-294.09C892.44,-298.12 907.94,-304.61 920,-315 977.81,-364.8 1000.62,-456.22 1009.02,-505.46"/>
<polygon fill="gray" stroke="gray" points="1005.54,-505.92 1010.57,-515.24 1012.46,-504.82 1005.54,-505.92"/>
</g>
<!-- parse_go&#45;&gt;ds_parsed_plus -->
<g id="edge3" class="edge">
<title>parse_go&#45;&gt;ds_parsed_plus</title>
<path fill="none" stroke="black" d="M409.22,-506.52C451.37,-483.59 523.27,-444.47 569.26,-419.45"/>
<polygon fill="black" stroke="black" points="570.79,-422.61 577.9,-414.76 567.44,-416.46 570.79,-422.61"/>
</g>
<!-- parse_go&#45;&gt;ds_parsed_plain -->
<g id="edge4" class="edge">
<title>parse_go&#45;&gt;ds_parsed_plain</title>
<path fill="none" stroke="black" d="M395.66,-543.35C411.57,-558.57 433.28,-581.45 447.5,-605 459.49,-624.86 449.73,-636.98 465.5,-654 487.71,-677.97 520.16,-694 548.92,-704.36"/>
<polygon fill="black" stroke="black" points="547.7,-707.64 558.29,-707.56 549.96,-701.02 547.7,-707.64"/>
</g>
<!-- foi&#45;&gt;ds_with_doc -->
<g id="edge15" class="edge">
<title>foi&#45;&gt;ds_with_doc</title>
<path fill="none" stroke="black" d="M884.42,-143.67C896.32,-146.71 908.52,-149.9 920,-153 928.37,-155.26 937.15,-157.7 945.82,-160.16"/>
<polygon fill="black" stroke="black" points="944.69,-163.48 955.27,-162.85 946.61,-156.75 944.69,-163.48"/>
</g>
<!-- mam_with_doc&#45;&gt;ds_with_doc -->
<g id="edge16" class="edge">
<title>mam_with_doc&#45;&gt;ds_with_doc</title>
<path fill="none" stroke="black" d="M866.38,-180C890.64,-180 919.62,-180 945.42,-180"/>
<polygon fill="black" stroke="black" points="945.12,-183.5 955.12,-180 945.12,-176.5 945.12,-183.5"/>
</g>
<!-- tmpl_survey&#45;&gt;ds_out -->
<g id="edge26" class="edge">
<title>tmpl_survey&#45;&gt;ds_out</title>
<path fill="none" stroke="black" d="M859.99,-771.21C880.37,-767.88 903.32,-760.98 920,-747 948.2,-723.36 984.74,-624.41 1002.64,-571.96"/>
<polygon fill="black" stroke="black" points="1005.9,-573.24 1005.79,-562.65 999.27,-571 1005.9,-573.24"/>
</g>
<!-- mam_simple&#45;&gt;ds_simple -->
<g id="edge18" class="edge">
<title>mam_simple&#45;&gt;ds_simple</title>
<path fill="none" stroke="black" d="M861.18,-72C888.82,-72 923.74,-72 953.17,-72"/>
<polygon fill="black" stroke="black" points="953.05,-75.5 963.05,-72 953.05,-68.5 953.05,-75.5"/>
</g>
<!-- mam4sef&#45;&gt;ds_sefaria -->
<g id="edge22" class="edge">
<title>mam4sef&#45;&gt;ds_sefaria</title>
<path fill="none" stroke="black" d="M1208.67,-25.58C1221.47,-27.95 1235.96,-30.65 1250.13,-33.28"/>
<polygon fill="black" stroke="black" points="1249.43,-36.71 1259.9,-35.09 1250.71,-29.82 1249.43,-36.71"/>
</g>
<!-- mam4ajf&#45;&gt;ds_sefaria -->
<g id="edge23" class="edge">
<title>mam4ajf&#45;&gt;ds_sefaria</title>
<path fill="none" stroke="black" d="M1207.09,-65.24C1220.3,-62.96 1235.45,-60.35 1250.24,-57.8"/>
<polygon fill="black" stroke="black" points="1250.69,-61.27 1259.94,-56.12 1249.5,-54.37 1250.69,-61.27"/>
</g>
<!-- osis&#45;&gt;ds_osis -->
<g id="edge24" class="edge">
<title>osis&#45;&gt;ds_osis</title>
<path fill="none" stroke="black" d="M1197.3,-131.27C1217.62,-134.91 1245.15,-139.84 1268.85,-144.09"/>
<polygon fill="black" stroke="black" points="1268.18,-147.52 1278.64,-145.84 1269.41,-140.63 1268.18,-147.52"/>
</g>
<!-- decnreub&#45;&gt;ds_out -->
<g id="edge27" class="edge">
<title>decnreub&#45;&gt;ds_out</title>
<path fill="none" stroke="black" d="M853.23,-399.94C874.42,-403.49 900.05,-410.22 920,-423 952.83,-444.03 979.42,-480.51 995.73,-506.96"/>
<polygon fill="black" stroke="black" points="992.56,-508.47 1000.69,-515.25 998.56,-504.87 992.56,-508.47"/>
</g>
<!-- multimark&#45;&gt;ds_out -->
<g id="edge28" class="edge">
<title>multimark&#45;&gt;ds_out</title>
<path fill="none" stroke="black" d="M854.71,-344.66C876.07,-347.84 901.4,-354.64 920,-369 965.26,-403.94 991.61,-467.29 1004.22,-506.01"/>
<polygon fill="black" stroke="black" points="1000.79,-506.76 1007.11,-515.26 1007.47,-504.67 1000.79,-506.76"/>
</g>
<!-- wordlist&#45;&gt;ds_out -->
<g id="edge29" class="edge">
<title>wordlist&#45;&gt;ds_out</title>
<path fill="none" stroke="black" d="M850.14,-554.47C882.35,-551.42 929.14,-546.99 964.4,-543.65"/>
<polygon fill="black" stroke="black" points="964.28,-547.18 973.9,-542.75 963.62,-540.21 964.28,-547.18"/>
</g>
<!-- explicit_xataf&#45;&gt;ds_out -->
<g id="edge30" class="edge">
<title>explicit_xataf&#45;&gt;ds_out</title>
<path fill="none" stroke="black" d="M862.21,-512.61C893.31,-518.03 933.32,-525.01 964.38,-530.43"/>
<polygon fill="black" stroke="black" points="963.44,-533.82 973.9,-532.09 964.65,-526.92 963.44,-533.82"/>
</g>
<!-- diff_wsgo&#45;&gt;ds_out -->
<g id="edge31" class="edge">
<title>diff_wsgo&#45;&gt;ds_out</title>
<path fill="none" stroke="black" d="M853.95,-717.1C875.34,-713.85 900.94,-707.07 920,-693 961.44,-662.4 988.25,-607.45 1002.11,-572.13"/>
<polygon fill="black" stroke="black" points="1005.37,-573.42 1005.63,-562.83 998.82,-570.94 1005.37,-573.42"/>
</g>
<!-- diff_wsgo&#45;&gt;ds_mamgo_auto -->
<g id="edge32" class="edge">
<title>diff_wsgo&#45;&gt;ds_mamgo_auto</title>
<path fill="none" stroke="black" d="M853.96,-720C881.53,-720 918.39,-720 949.74,-720"/>
<polygon fill="black" stroke="black" points="949.5,-723.5 959.5,-720 949.5,-716.5 949.5,-723.5"/>
</g>
<!-- diff_ctr&#45;&gt;ds_out -->
<g id="edge33" class="edge">
<title>diff_ctr&#45;&gt;ds_out</title>
<path fill="none" stroke="black" d="M869.4,-460.46C886.09,-464.55 904.12,-469.98 920,-477 940.14,-485.9 960.73,-499.04 977.44,-510.93"/>
<polygon fill="black" stroke="black" points="974.93,-513.43 985.07,-516.48 979.05,-507.76 974.93,-513.43"/>
</g>
<!-- parse_ws&#45;&gt;ds_out -->
<g id="edge34" class="edge">
<title>parse_ws&#45;&gt;ds_out</title>
<path fill="none" stroke="black" d="M854.41,-661.18C875.19,-657.41 900.09,-650.74 920,-639 949.2,-621.78 974.88,-592.71 991.91,-570.33"/>
<polygon fill="black" stroke="black" points="994.62,-572.55 997.76,-562.43 989,-568.38 994.62,-572.55"/>
</g>
<!-- ws_bot_proto&#45;&gt;ds_out -->
<g id="edge35" class="edge">
<title>ws_bot_proto&#45;&gt;ds_out</title>
<path fill="none" stroke="black" d="M862.6,-601.77C880.9,-597.4 901.64,-591.75 920,-585 935.3,-579.38 951.42,-572.01 965.88,-564.83"/>
<polygon fill="black" stroke="black" points="967.4,-567.99 974.73,-560.34 964.23,-561.74 967.4,-567.99"/>
</g>
<!-- ws_bot -->
<g id="node30" class="node">
<title>ws_bot</title>
<polygon fill="none" stroke="black" points="411.12,-650 337.38,-650 337.38,-614 411.12,-614 411.12,-650"/>
<text xml:space="preserve" text-anchor="middle" x="374.25" y="-634.5" font-family="Helvetica,sans-Serif" font-size="10.00">main_ws_bot</text>
<text xml:space="preserve" text-anchor="middle" x="374.25" y="-622.5" font-family="Helvetica,sans-Serif" font-size="10.00">(live edits)</text>
</g>
<!-- ws_bot&#45;&gt;ds_ws -->
<g id="edge40" class="edge">
<title>ws_bot&#45;&gt;ds_ws</title>
<path fill="none" stroke="black" stroke-dasharray="5,2" d="M411.5,-634.28C445.38,-636.69 497.3,-641.12 542,-648 545.02,-648.47 548.11,-648.98 551.22,-649.53"/>
<polygon fill="black" stroke="black" points="550.57,-652.97 561.04,-651.36 551.85,-646.08 550.57,-652.97"/>
<text xml:space="preserve" text-anchor="middle" x="503.75" y="-660.45" font-family="Helvetica,sans-Serif" font-size="9.00">writes live</text>
<text xml:space="preserve" text-anchor="middle" x="503.75" y="-649.95" font-family="Helvetica,sans-Serif" font-size="9.00">then re&#45;downloads</text>
</g>
<!-- gen_docs -->
<g id="node31" class="node">
<title>gen_docs</title>
<polygon fill="none" stroke="black" points="920,-252 703.75,-252 703.75,-216 920,-216 920,-252"/>
<text xml:space="preserve" text-anchor="middle" x="811.88" y="-230.5" font-family="Helvetica,sans-Serif" font-size="10.00">main_gen_misc_authored_english_documents</text>
</g>
<!-- gen_docs&#45;&gt;ds_with_doc -->
<g id="edge17" class="edge">
<title>gen_docs&#45;&gt;ds_with_doc</title>
<path fill="none" stroke="black" d="M887.59,-215.52C898.48,-212.72 909.54,-209.83 920,-207 928.37,-204.74 937.15,-202.3 945.82,-199.84"/>
<polygon fill="black" stroke="black" points="946.61,-203.25 955.27,-197.15 944.69,-196.52 946.61,-203.25"/>
</g>
<!-- mam_xml_copy -->
<g id="node32" class="node">
<title>mam_xml_copy</title>
<polygon fill="none" stroke="black" points="150.25,-597 0,-597 0,-561 150.25,-561 150.25,-597"/>
<text xml:space="preserve" text-anchor="middle" x="75.12" y="-575.5" font-family="Helvetica,sans-Serif" font-size="10.00">main_mam_xml_copy_py_files</text>
</g>
<!-- osis_split -->
<g id="node33" class="node">
<title>osis_split</title>
<polygon fill="none" stroke="black" points="1224.75,-198 1109,-198 1109,-162 1224.75,-162 1224.75,-198"/>
<text xml:space="preserve" text-anchor="middle" x="1166.88" y="-176.5" font-family="Helvetica,sans-Serif" font-size="10.00">main_osis_split_mapm</text>
</g>
<!-- osis_split&#45;&gt;ds_osis -->
<g id="edge25" class="edge">
<title>osis_split&#45;&gt;ds_osis</title>
<path fill="none" stroke="black" d="M1224.87,-169.79C1239.47,-167.18 1255.06,-164.38 1269.25,-161.84"/>
<polygon fill="black" stroke="black" points="1269.56,-165.34 1278.79,-160.14 1268.33,-158.45 1269.56,-165.34"/>
</g>
</g>
</svg>
