<?xml version="1.0" encoding="UTF-8" standalone="no"?>
<!DOCTYPE svg PUBLIC "-//W3C//DTD SVG 1.1//EN"
 "http://www.w3.org/Graphics/SVG/1.1/DTD/svg11.dtd">
<!-- Generated by graphviz version 14.1.2 (20260124.0452)
 -->
<!-- Title: template_call_graph Pages: 1 -->
<svg width="456pt" height="422pt"
 viewBox="0.00 0.00 456.00 422.00" xmlns="http://www.w3.org/2000/svg" xmlns:xlink="http://www.w3.org/1999/xlink">
<g id="graph0" class="graph" transform="scale(1 1) rotate(0) translate(4 418)">
<title>template_call_graph</title>
<polygon fill="white" stroke="none" points="-4,4 -4,-418 452,-418 452,4 -4,4"/>
<!-- E -->
<g id="node1" class="node">
<title>E</title>
<polygon fill="none" stroke="black" stroke-width="2" points="54,-225 0,-225 0,-189 54,-189 54,-225"/>
<text xml:space="preserve" text-anchor="middle" x="27" y="-201.97" font-family="SBL Hebrew,Helvetica" font-size="12.00">E</text>
</g>
<!-- מ:כפול -->
<g id="node4" class="node">
<title>מ:כפול</title>
<polygon fill="none" stroke="black" points="159.75,-225 105.75,-225 105.75,-189 159.75,-189 159.75,-225"/>
<text xml:space="preserve" text-anchor="middle" x="132.75" y="-201.97" font-family="SBL Hebrew,Helvetica" font-size="12.00">מ:כפול</text>
</g>
<!-- E&#45;&gt;מ:כפול -->
<g id="edge1" class="edge">
<title>E&#45;&gt;מ:כפול</title>
<path fill="none" stroke="black" d="M54.45,-207C66.52,-207 81.04,-207 94.21,-207"/>
<polygon fill="black" stroke="black" points="93.84,-210.5 103.84,-207 93.84,-203.5 93.84,-210.5"/>
<text xml:space="preserve" text-anchor="middle" x="79.88" y="-208.95" font-family="Helvetica,sans-Serif" font-size="9.00">201</text>
</g>
<!-- מ:טעם ומתג באות אחת -->
<g id="node2" class="node">
<title>מ:טעם ומתג באות אחת</title>
<g id="a_node2"><a xlink:title="מ:טעם ומתג באות אחת">
<polygon fill="none" stroke="black" points="322,-414 241.5,-414 241.5,-378 322,-378 322,-414"/>
<text xml:space="preserve" text-anchor="middle" x="281.75" y="-390.98" font-family="SBL Hebrew,Helvetica" font-size="12.00">מ:טעם … אחת</text>
</a>
</g>
</g>
<!-- שני טעמים באות אחת קמץ&#45;תחתון&#45;פתח&#45;עליון -->
<g id="node3" class="node">
<title>שני טעמים באות אחת קמץ&#45;תחתון&#45;פתח&#45;עליון</title>
<g id="a_node3"><a xlink:title="שני טעמים באות אחת קמץ&#45;תחתון&#45;פתח&#45;עליון">
<polygon fill="none" stroke="black" points="352.75,-360 210.75,-360 210.75,-324 352.75,-324 352.75,-360"/>
<text xml:space="preserve" text-anchor="middle" x="281.75" y="-336.98" font-family="SBL Hebrew,Helvetica" font-size="12.00">שני … קמץ&#45;תחתון&#45;פתח&#45;עליון</text>
</a>
</g>
</g>
<!-- מ:טעם -->
<g id="node11" class="node">
<title>מ:טעם</title>
<polygon fill="none" stroke="black" points="448,-360 394,-360 394,-324 448,-324 448,-360"/>
<text xml:space="preserve" text-anchor="middle" x="421" y="-336.98" font-family="SBL Hebrew,Helvetica" font-size="12.00">מ:טעם</text>
</g>
<!-- שני טעמים באות אחת קמץ&#45;תחתון&#45;פתח&#45;עליון&#45;&gt;מ:טעם -->
<g id="edge10" class="edge">
<title>שני טעמים באות אחת קמץ&#45;תחתון&#45;פתח&#45;עליון&#45;&gt;מ:טעם</title>
<path fill="none" stroke="black" d="M352.98,-342C363.07,-342 373.11,-342 382.24,-342"/>
<polygon fill="black" stroke="black" points="382.11,-345.5 392.11,-342 382.11,-338.5 382.11,-345.5"/>
<text xml:space="preserve" text-anchor="middle" x="373.38" y="-343.95" font-family="Helvetica,sans-Serif" font-size="9.00">1</text>
</g>
<!-- מ:כפול&#45;&gt;מ:טעם ומתג באות אחת -->
<g id="edge2" class="edge">
<title>מ:כפול&#45;&gt;מ:טעם ומתג באות אחת</title>
<path fill="none" stroke="black" d="M137.29,-225.33C144.74,-258.92 165.26,-330.44 210.75,-369 216.62,-373.98 223.52,-378.1 230.65,-381.49"/>
<polygon fill="black" stroke="black" points="229.21,-384.68 239.78,-385.36 231.94,-378.24 229.21,-384.68"/>
<text xml:space="preserve" text-anchor="middle" x="185.25" y="-350.14" font-family="Helvetica,sans-Serif" font-size="9.00">1</text>
</g>
<!-- מ:כפול&#45;&gt;שני טעמים באות אחת קמץ&#45;תחתון&#45;פתח&#45;עליון -->
<g id="edge9" class="edge">
<title>מ:כפול&#45;&gt;שני טעמים באות אחת קמץ&#45;תחתון&#45;פתח&#45;עליון</title>
<path fill="none" stroke="black" d="M142.43,-225.18C154.62,-248.9 178.91,-290.3 210.75,-315 211.91,-315.9 213.1,-316.77 214.32,-317.61"/>
<polygon fill="black" stroke="black" points="212.48,-320.59 222.84,-322.8 216.12,-314.61 212.48,-320.59"/>
<text xml:space="preserve" text-anchor="middle" x="185.25" y="-299.97" font-family="Helvetica,sans-Serif" font-size="9.00">2</text>
</g>
<!-- מ:לגרמיה&#45;2 -->
<g id="node5" class="node">
<title>מ:לגרמיה&#45;2</title>
<polygon fill="none" stroke="black" points="315.62,-306 247.88,-306 247.88,-270 315.62,-270 315.62,-306"/>
<text xml:space="preserve" text-anchor="middle" x="281.75" y="-282.98" font-family="SBL Hebrew,Helvetica" font-size="12.00">מ:לגרמיה&#45;2</text>
</g>
<!-- מ:כפול&#45;&gt;מ:לגרמיה&#45;2 -->
<g id="edge3" class="edge">
<title>מ:כפול&#45;&gt;מ:לגרמיה&#45;2</title>
<path fill="none" stroke="black" d="M156.72,-225.34C171.55,-236.61 191.59,-250.78 210.75,-261 219,-265.4 228.13,-269.46 237,-273.02"/>
<polygon fill="black" stroke="black" points="235.6,-276.23 246.19,-276.56 238.12,-269.7 235.6,-276.23"/>
<text xml:space="preserve" text-anchor="middle" x="185.25" y="-251.19" font-family="Helvetica,sans-Serif" font-size="9.00">14</text>
</g>
<!-- מ:פסק -->
<g id="node6" class="node">
<title>מ:פסק</title>
<polygon fill="none" stroke="black" points="308.75,-252 254.75,-252 254.75,-216 308.75,-216 308.75,-252"/>
<text xml:space="preserve" text-anchor="middle" x="281.75" y="-228.97" font-family="SBL Hebrew,Helvetica" font-size="12.00">מ:פסק</text>
</g>
<!-- מ:כפול&#45;&gt;מ:פסק -->
<g id="edge4" class="edge">
<title>מ:כפול&#45;&gt;מ:פסק</title>
<path fill="none" stroke="black" d="M160.03,-211.83C183.34,-216.11 217.63,-222.41 243.72,-227.2"/>
<polygon fill="black" stroke="black" points="242.74,-230.58 253.21,-228.94 244.01,-223.69 242.74,-230.58"/>
<text xml:space="preserve" text-anchor="middle" x="185.25" y="-219.24" font-family="Helvetica,sans-Serif" font-size="9.00">7</text>
</g>
<!-- מ:קמץ -->
<g id="node7" class="node">
<title>מ:קמץ</title>
<polygon fill="none" stroke="black" points="308.75,-198 254.75,-198 254.75,-162 308.75,-162 308.75,-198"/>
<text xml:space="preserve" text-anchor="middle" x="281.75" y="-174.97" font-family="SBL Hebrew,Helvetica" font-size="12.00">מ:קמץ</text>
</g>
<!-- מ:כפול&#45;&gt;מ:קמץ -->
<g id="edge5" class="edge">
<title>מ:כפול&#45;&gt;מ:קמץ</title>
<path fill="none" stroke="black" d="M160.03,-202.17C183.34,-197.89 217.63,-191.59 243.72,-186.8"/>
<polygon fill="black" stroke="black" points="244.01,-190.31 253.21,-185.06 242.74,-183.42 244.01,-190.31"/>
<text xml:space="preserve" text-anchor="middle" x="185.25" y="-200.22" font-family="Helvetica,sans-Serif" font-size="9.00">4</text>
</g>
<!-- נוסח -->
<g id="node8" class="node">
<title>נוסח</title>
<polygon fill="none" stroke="black" points="308.75,-144 254.75,-144 254.75,-108 308.75,-108 308.75,-144"/>
<text xml:space="preserve" text-anchor="middle" x="281.75" y="-120.97" font-family="SBL Hebrew,Helvetica" font-size="12.00">נוסח</text>
</g>
<!-- מ:כפול&#45;&gt;נוסח -->
<g id="edge6" class="edge">
<title>מ:כפול&#45;&gt;נוסח</title>
<path fill="none" stroke="black" d="M156.72,-188.66C171.55,-177.39 191.59,-163.22 210.75,-153 221.18,-147.44 233.01,-142.43 243.94,-138.27"/>
<polygon fill="black" stroke="black" points="244.87,-141.66 253.06,-134.94 242.47,-135.09 244.87,-141.66"/>
<text xml:space="preserve" text-anchor="middle" x="185.25" y="-175.29" font-family="Helvetica,sans-Serif" font-size="9.00">119</text>
</g>
<!-- סס -->
<g id="node9" class="node">
<title>סס</title>
<polygon fill="none" stroke="black" points="308.75,-90 254.75,-90 254.75,-54 308.75,-54 308.75,-90"/>
<text xml:space="preserve" text-anchor="middle" x="281.75" y="-66.97" font-family="SBL Hebrew,Helvetica" font-size="12.00">סס</text>
</g>
<!-- מ:כפול&#45;&gt;סס -->
<g id="edge7" class="edge">
<title>מ:כפול&#45;&gt;סס</title>
<path fill="none" stroke="black" d="M142.43,-188.82C154.62,-165.1 178.91,-123.7 210.75,-99 220.32,-91.58 232.18,-85.98 243.39,-81.87"/>
<polygon fill="black" stroke="black" points="244.47,-85.2 252.85,-78.72 242.26,-78.56 244.47,-85.2"/>
<text xml:space="preserve" text-anchor="middle" x="185.25" y="-134.49" font-family="Helvetica,sans-Serif" font-size="9.00">18</text>
</g>
<!-- פפ -->
<g id="node10" class="node">
<title>פפ</title>
<polygon fill="none" stroke="black" points="308.75,-36 254.75,-36 254.75,0 308.75,0 308.75,-36"/>
<text xml:space="preserve" text-anchor="middle" x="281.75" y="-12.97" font-family="SBL Hebrew,Helvetica" font-size="12.00">פפ</text>
</g>
<!-- מ:כפול&#45;&gt;פפ -->
<g id="edge8" class="edge">
<title>מ:כפול&#45;&gt;פפ</title>
<path fill="none" stroke="black" d="M137.3,-188.69C144.78,-155.13 165.34,-83.65 210.75,-45 220.15,-37 232.17,-31.23 243.6,-27.12"/>
<polygon fill="black" stroke="black" points="244.38,-30.55 252.82,-24.15 242.23,-23.89 244.38,-30.55"/>
<text xml:space="preserve" text-anchor="middle" x="185.25" y="-83.64" font-family="Helvetica,sans-Serif" font-size="9.00">2</text>
</g>
</g>
</svg>
