<?xml version="1.0" encoding="UTF-8" standalone="no"?>
<!DOCTYPE svg PUBLIC "-//W3C//DTD SVG 1.1//EN"
 "http://www.w3.org/Graphics/SVG/1.1/DTD/svg11.dtd">
<!-- Generated by graphviz version 14.1.2 (20260124.0452)
 -->
<!-- Title: template_call_graph Pages: 1 -->
<svg width="883pt" height="1295pt"
 viewBox="0.00 0.00 883.00 1295.00" xmlns="http://www.w3.org/2000/svg" xmlns:xlink="http://www.w3.org/1999/xlink">
<g id="graph0" class="graph" transform="scale(1 1) rotate(0) translate(4 1291.25)">
<title>template_call_graph</title>
<polygon fill="white" stroke="none" points="-4,4 -4,-1291.25 879,-1291.25 879,4 -4,4"/>
<text xml:space="preserve" text-anchor="middle" x="437.5" y="-5.75" font-family="Times New Roman,serif" font-size="10.00">נוסח has been contracted</text>
<!-- C -->
<g id="node1" class="node">
<title>C</title>
<polygon fill="none" stroke="black" stroke-width="2" points="189.12,-1233.25 135.12,-1233.25 135.12,-1197.25 189.12,-1197.25 189.12,-1233.25"/>
<text xml:space="preserve" text-anchor="middle" x="162.12" y="-1210.22" font-family="SBL Hebrew,Helvetica" font-size="12.00">C</text>
</g>
<!-- מ:פסוק -->
<g id="node10" class="node">
<title>מ:פסוק</title>
<polygon fill="none" stroke="black" points="357.25,-1253.25 303.25,-1253.25 303.25,-1217.25 357.25,-1217.25 357.25,-1253.25"/>
<text xml:space="preserve" text-anchor="middle" x="330.25" y="-1230.22" font-family="SBL Hebrew,Helvetica" font-size="12.00">מ:פסוק</text>
</g>
<!-- C&#45;&gt;מ:פסוק -->
<g id="edge1" class="edge">
<title>C&#45;&gt;מ:פסוק</title>
<path fill="none" stroke="black" d="M189.45,-1218.42C216.95,-1221.73 260.35,-1226.95 291.5,-1230.7"/>
<polygon fill="black" stroke="black" points="290.93,-1234.16 301.27,-1231.88 291.76,-1227.21 290.93,-1234.16"/>
<text xml:space="preserve" text-anchor="middle" x="258.25" y="-1231.84" font-family="Helvetica,sans-Serif" font-size="9.00">895</text>
</g>
<!-- ש -->
<g id="node11" class="node">
<title>ש</title>
<polygon fill="none" stroke="black" points="357.25,-1092.25 303.25,-1092.25 303.25,-1056.25 357.25,-1056.25 357.25,-1092.25"/>
<text xml:space="preserve" text-anchor="middle" x="330.25" y="-1069.22" font-family="SBL Hebrew,Helvetica" font-size="12.00">ש</text>
</g>
<!-- C&#45;&gt;ש -->
<g id="edge2" class="edge">
<title>C&#45;&gt;ש</title>
<path fill="none" stroke="black" d="M189.39,-1213.94C216.5,-1211.26 258.49,-1203.21 285.25,-1179.25 307.17,-1159.62 318.47,-1127.32 324.1,-1103.72"/>
<polygon fill="black" stroke="black" points="327.49,-1104.6 326.17,-1094.09 320.64,-1103.13 327.49,-1104.6"/>
<text xml:space="preserve" text-anchor="middle" x="258.25" y="-1207.63" font-family="Helvetica,sans-Serif" font-size="9.00">1</text>
</g>
<!-- D -->
<g id="node2" class="node">
<title>D</title>
<polygon fill="none" stroke="black" stroke-width="2" points="54,-1102.25 0,-1102.25 0,-1066.25 54,-1066.25 54,-1102.25"/>
<text xml:space="preserve" text-anchor="middle" x="27" y="-1079.22" font-family="SBL Hebrew,Helvetica" font-size="12.00">D</text>
</g>
<!-- מ:אין פרשה בתחילת פרק -->
<g id="node6" class="node">
<title>מ:אין פרשה בתחילת פרק</title>
<g id="a_node6"><a xlink:title="מ:אין פרשה בתחילת פרק&#10;מ:אין פרשה בתחילת פרק בספרי אמ&quot;ת&#10;מ:אין רווח של פרשה בתחילת פרשת השבוע&#10;מ:ספר חדש&#10;מ:רווח בתרי עשר בפסוק הראשון&#10;מ:רווח לספר בתהלים בפסוק הראשון&#10;ר4">
<polygon fill="none" stroke="black" points="205.75,-1287.25 118.5,-1287.25 118.5,-1251.25 205.75,-1251.25 205.75,-1287.25"/>
<text xml:space="preserve" text-anchor="middle" x="162.12" y="-1264.22" font-family="SBL Hebrew,Helvetica" font-size="12.00">מ:אין … פרק, …</text>
</a>
</g>
</g>
<!-- D&#45;&gt;מ:אין פרשה בתחילת פרק -->
<g id="edge3" class="edge">
<title>D&#45;&gt;מ:אין פרשה בתחילת פרק</title>
<path fill="none" stroke="black" d="M33.15,-1102.64C43.08,-1135.01 67.81,-1202.47 111,-1242.25 111.63,-1242.83 112.27,-1243.4 112.92,-1243.96"/>
<polygon fill="black" stroke="black" points="110.71,-1246.67 120.81,-1249.86 114.91,-1241.07 110.71,-1246.67"/>
<text xml:space="preserve" text-anchor="middle" x="82.5" y="-1222.94" font-family="Helvetica,sans-Serif" font-size="9.00">4484</text>
</g>
<!-- מ:קישור בהערה -->
<g id="node9" class="node">
<title>מ:קישור בהערה</title>
<g id="a_node9"><a xlink:title="מ:קישור בהערה&#10;מ:ששש&#10;ססס&#10;פפפ&#10;ר1">
<polygon fill="none" stroke="black" points="213.25,-1132.25 111,-1132.25 111,-1096.25 213.25,-1096.25 213.25,-1132.25"/>
<text xml:space="preserve" text-anchor="middle" x="162.12" y="-1109.22" font-family="SBL Hebrew,Helvetica" font-size="12.00">מ:קישור בהערה, …</text>
</a>
</g>
</g>
<!-- D&#45;&gt;מ:קישור בהערה -->
<g id="edge6" class="edge">
<title>D&#45;&gt;מ:קישור בהערה</title>
<path fill="none" stroke="black" d="M54.45,-1091.77C60.22,-1093.33 66.3,-1094.9 72,-1096.25 80.85,-1098.35 90.22,-1100.41 99.44,-1102.35"/>
<polygon fill="black" stroke="black" points="98.58,-1105.75 109.08,-1104.34 100,-1098.89 98.58,-1105.75"/>
<text xml:space="preserve" text-anchor="middle" x="82.5" y="-1102.59" font-family="Helvetica,sans-Serif" font-size="9.00">430</text>
</g>
<!-- D&#45;&gt;ש -->
<g id="edge9" class="edge">
<title>D&#45;&gt;ש</title>
<path fill="none" stroke="black" d="M47.27,-1102.68C63.01,-1116.35 86.57,-1133.85 111,-1141.25 154.49,-1154.42 169.36,-1153.02 213.25,-1141.25 243.78,-1133.07 274.58,-1114.69 296.77,-1099.25"/>
<polygon fill="black" stroke="black" points="298.69,-1102.18 304.79,-1093.51 294.62,-1096.49 298.69,-1102.18"/>
<text xml:space="preserve" text-anchor="middle" x="162.12" y="-1152.56" font-family="Helvetica,sans-Serif" font-size="9.00">14</text>
</g>
<!-- מ:הערה -->
<g id="node12" class="node">
<title>מ:הערה</title>
<polygon fill="none" stroke="black" points="189.12,-993.25 135.12,-993.25 135.12,-957.25 189.12,-957.25 189.12,-993.25"/>
<text xml:space="preserve" text-anchor="middle" x="162.12" y="-970.23" font-family="SBL Hebrew,Helvetica" font-size="12.00">מ:הערה</text>
</g>
<!-- D&#45;&gt;מ:הערה -->
<g id="edge4" class="edge">
<title>D&#45;&gt;מ:הערה</title>
<path fill="none" stroke="black" d="M54.3,-1079.05C66.82,-1075.69 81.53,-1070.38 93,-1062.25 104.79,-1053.89 126.31,-1025.23 142.02,-1003.06"/>
<polygon fill="black" stroke="black" points="144.81,-1005.17 147.69,-994.97 139.08,-1001.15 144.81,-1005.17"/>
<text xml:space="preserve" text-anchor="middle" x="82.5" y="-1074.73" font-family="Helvetica,sans-Serif" font-size="9.00">4</text>
</g>
<!-- מ:הערה&#45;2 -->
<g id="node13" class="node">
<title>מ:הערה&#45;2</title>
<polygon fill="none" stroke="black" points="192.62,-892.25 131.62,-892.25 131.62,-856.25 192.62,-856.25 192.62,-892.25"/>
<text xml:space="preserve" text-anchor="middle" x="162.12" y="-869.23" font-family="SBL Hebrew,Helvetica" font-size="12.00">מ:הערה&#45;2</text>
</g>
<!-- D&#45;&gt;מ:הערה&#45;2 -->
<g id="edge5" class="edge">
<title>D&#45;&gt;מ:הערה&#45;2</title>
<path fill="none" stroke="black" d="M29.1,-1065.85C31.78,-1035.03 40.94,-972.25 72,-930.75 84.66,-913.83 104.01,-900.69 121.45,-891.35"/>
<polygon fill="black" stroke="black" points="122.74,-894.62 130.08,-886.98 119.58,-888.38 122.74,-894.62"/>
<text xml:space="preserve" text-anchor="middle" x="82.5" y="-932.7" font-family="Helvetica,sans-Serif" font-size="9.00">4</text>
</g>
<!-- סס -->
<g id="node14" class="node">
<title>סס</title>
<polygon fill="none" stroke="black" points="357.25,-487.25 303.25,-487.25 303.25,-451.25 357.25,-451.25 357.25,-487.25"/>
<text xml:space="preserve" text-anchor="middle" x="330.25" y="-464.23" font-family="SBL Hebrew,Helvetica" font-size="12.00">סס</text>
</g>
<!-- D&#45;&gt;סס -->
<g id="edge7" class="edge">
<title>D&#45;&gt;סס</title>
<path fill="none" stroke="black" d="M32.61,-1065.81C43.89,-1020.26 73.41,-898.7 93,-796.25 102.68,-745.65 80.32,-723.13 111,-681.75 141.07,-641.19 183.37,-672.95 213.25,-632.25 245.68,-588.07 197.62,-553.53 231.25,-510.25 239.2,-500.02 267.94,-488.67 292.25,-480.51"/>
<polygon fill="black" stroke="black" points="293.16,-483.9 301.58,-477.47 290.99,-477.24 293.16,-483.9"/>
<text xml:space="preserve" text-anchor="middle" x="162.12" y="-683.7" font-family="Helvetica,sans-Serif" font-size="9.00">1513</text>
</g>
<!-- פפ -->
<g id="node15" class="node">
<title>פפ</title>
<polygon fill="none" stroke="black" points="357.25,-827.25 303.25,-827.25 303.25,-791.25 357.25,-791.25 357.25,-827.25"/>
<text xml:space="preserve" text-anchor="middle" x="330.25" y="-804.23" font-family="SBL Hebrew,Helvetica" font-size="12.00">פפ</text>
</g>
<!-- D&#45;&gt;פפ -->
<g id="edge8" class="edge">
<title>D&#45;&gt;פפ</title>
<path fill="none" stroke="black" d="M31.82,-1066.09C37.52,-1042.14 50.01,-999.51 72,-969.25 85.1,-951.23 91.57,-948.65 111,-937.75 153.09,-914.15 169.61,-921.83 213.25,-901.25 246.96,-885.35 256.47,-881.94 285.25,-858.25 293.12,-851.77 300.84,-843.87 307.56,-836.31"/>
<polygon fill="black" stroke="black" points="310.1,-838.73 313.96,-828.86 304.79,-834.17 310.1,-838.73"/>
<text xml:space="preserve" text-anchor="middle" x="162.12" y="-939.7" font-family="Helvetica,sans-Serif" font-size="9.00">1540</text>
</g>
<!-- E -->
<g id="node3" class="node">
<title>E</title>
<polygon fill="none" stroke="black" stroke-width="2" points="54,-535.25 0,-535.25 0,-499.25 54,-499.25 54,-535.25"/>
<text xml:space="preserve" text-anchor="middle" x="27" y="-512.23" font-family="SBL Hebrew,Helvetica" font-size="12.00">E</text>
</g>
<!-- כתיב ולא קרי -->
<g id="node4" class="node">
<title>כתיב ולא קרי</title>
<g id="a_node4"><a xlink:title="כתיב ולא קרי&#10;מ:כו&quot;ק בין שני מקפים&#10;מ:כו&quot;ק כתיב מילה חדה וקרי תרתין מילין בין שני מקפים&#10;מ:כו&quot;ק כתיב תרתין מילין וקרי מילה חדה&#10;מ:כו&quot;ק קרי שונה מהכתיב בשתי מילים&#10;מ:כו&quot;ק של שלוש מילים בהערה אחת&#10;מ:נו&quot;ן הפוכה&#10;מ:צינור&#10;מ:קו&quot;כ קרי שונה מהכתיב בשתי מילים&#10;מ:קישור פנימי בהערה&#10;מודגש&#10;קרי ולא כתיב&#10;ר0&#10;ר2&#10;ר3">
<polygon fill="none" stroke="black" points="203.5,-589.25 120.75,-589.25 120.75,-553.25 203.5,-553.25 203.5,-589.25"/>
<text xml:space="preserve" text-anchor="middle" x="162.12" y="-566.23" font-family="SBL Hebrew,Helvetica" font-size="12.00">כתיב … קרי, …</text>
</a>
</g>
</g>
<!-- E&#45;&gt;כתיב ולא קרי -->
<g id="edge11" class="edge">
<title>E&#45;&gt;כתיב ולא קרי</title>
<path fill="none" stroke="black" d="M54.3,-527.92C70.15,-534.35 90.87,-542.75 109.84,-550.45"/>
<polygon fill="black" stroke="black" points="108.47,-553.67 119.06,-554.19 111.1,-547.18 108.47,-553.67"/>
<text xml:space="preserve" text-anchor="middle" x="82.5" y="-544.58" font-family="Helvetica,sans-Serif" font-size="9.00">1393</text>
</g>
<!-- מ:כו&quot;ק כתיב מילה חדה וקרי תרתין מילין -->
<g id="node7" class="node">
<title>מ:כו&quot;ק כתיב מילה חדה וקרי תרתין מילין</title>
<g id="a_node7"><a xlink:title="מ:כו&quot;ק כתיב מילה חדה וקרי תרתין מילין">
<polygon fill="none" stroke="black" points="203.12,-838.25 121.12,-838.25 121.12,-802.25 203.12,-802.25 203.12,-838.25"/>
<text xml:space="preserve" text-anchor="middle" x="162.12" y="-815.23" font-family="SBL Hebrew,Helvetica" font-size="12.00">מ:כו&quot;ק … מילין</text>
</a>
</g>
</g>
<!-- E&#45;&gt;מ:כו&quot;ק כתיב מילה חדה וקרי תרתין מילין -->
<g id="edge16" class="edge">
<title>E&#45;&gt;מ:כו&quot;ק כתיב מילה חדה וקרי תרתין מילין</title>
<path fill="none" stroke="black" d="M29.63,-535.61C33.2,-568.95 43.8,-640.93 72,-694.25 78.55,-706.63 86.41,-705.39 93,-717.75 108.21,-746.29 92.04,-762.05 111,-788.25 112.64,-790.52 114.5,-792.67 116.51,-794.69"/>
<polygon fill="black" stroke="black" points="113.86,-797.03 123.71,-800.92 118.43,-791.73 113.86,-797.03"/>
<text xml:space="preserve" text-anchor="middle" x="82.5" y="-719.7" font-family="Helvetica,sans-Serif" font-size="9.00">13</text>
</g>
<!-- מ:כו&quot;ק של שתי מילים בהערה אחת -->
<g id="node8" class="node">
<title>מ:כו&quot;ק של שתי מילים בהערה אחת</title>
<g id="a_node8"><a xlink:title="מ:כו&quot;ק של שתי מילים בהערה אחת&#10;מ:קו&quot;כ כתיב מילה חדה וקרי תרתין מילין">
<polygon fill="none" stroke="black" points="210.25,-535.25 114,-535.25 114,-499.25 210.25,-499.25 210.25,-535.25"/>
<text xml:space="preserve" text-anchor="middle" x="162.12" y="-512.23" font-family="SBL Hebrew,Helvetica" font-size="12.00">מ:כו&quot;ק … אחת, …</text>
</a>
</g>
</g>
<!-- E&#45;&gt;מ:כו&quot;ק של שתי מילים בהערה אחת -->
<g id="edge17" class="edge">
<title>E&#45;&gt;מ:כו&quot;ק של שתי מילים בהערה אחת</title>
<path fill="none" stroke="black" d="M54.3,-517.25C68.03,-517.25 85.42,-517.25 102.16,-517.25"/>
<polygon fill="black" stroke="black" points="102.08,-520.75 112.08,-517.25 102.08,-513.75 102.08,-520.75"/>
<text xml:space="preserve" text-anchor="middle" x="82.5" y="-519.2" font-family="Helvetica,sans-Serif" font-size="9.00">9</text>
</g>
<!-- E&#45;&gt;מ:קישור בהערה -->
<g id="edge22" class="edge">
<title>E&#45;&gt;מ:קישור בהערה</title>
<path fill="none" stroke="black" d="M27.94,-535.49C27.94,-615.79 30.54,-937.79 72,-1028.25 77.57,-1040.39 85.03,-1039.03 93,-1049.75 102.86,-1063 99.69,-1070.22 111,-1082.25 113.22,-1084.61 115.65,-1086.88 118.2,-1089.03"/>
<polygon fill="black" stroke="black" points="115.97,-1091.73 126.04,-1095 120.21,-1086.16 115.97,-1091.73"/>
<text xml:space="preserve" text-anchor="middle" x="82.5" y="-1051.7" font-family="Helvetica,sans-Serif" font-size="9.00">4988</text>
</g>
<!-- E&#45;&gt;ש -->
<g id="edge28" class="edge">
<title>E&#45;&gt;ש</title>
<path fill="none" stroke="black" d="M28.73,-535.4C31.69,-603.74 43.93,-845.29 72,-916.25 77.72,-930.72 85.92,-930.4 93,-944.25 105.28,-968.29 92.32,-982.76 111,-1002.25 159.2,-1052.55 243.18,-1067.73 291.71,-1072.3"/>
<polygon fill="black" stroke="black" points="291.19,-1075.77 301.44,-1073.1 291.76,-1068.79 291.19,-1075.77"/>
<text xml:space="preserve" text-anchor="middle" x="162.12" y="-1059.62" font-family="Helvetica,sans-Serif" font-size="9.00">3202</text>
</g>
<!-- E&#45;&gt;מ:הערה -->
<g id="edge14" class="edge">
<title>E&#45;&gt;מ:הערה</title>
<path fill="none" stroke="black" d="M30.7,-535.72C42.14,-613.11 87.11,-908.87 111,-943.25 114.81,-948.74 119.9,-953.49 125.37,-957.54"/>
<polygon fill="black" stroke="black" points="123.24,-960.32 133.53,-962.85 127.06,-954.46 123.24,-960.32"/>
<text xml:space="preserve" text-anchor="middle" x="82.5" y="-885.69" font-family="Helvetica,sans-Serif" font-size="9.00">27</text>
</g>
<!-- E&#45;&gt;מ:הערה&#45;2 -->
<g id="edge15" class="edge">
<title>E&#45;&gt;מ:הערה&#45;2</title>
<path fill="none" stroke="black" d="M28.66,-535.51C30.67,-573.42 38.87,-662.61 72,-728.25 78.31,-740.75 86.81,-739.19 93,-751.75 112.09,-790.49 85.5,-812.39 111,-847.25 113.97,-851.31 117.74,-854.82 121.87,-857.84"/>
<polygon fill="black" stroke="black" points="119.7,-860.62 130.04,-862.9 123.38,-854.66 119.7,-860.62"/>
<text xml:space="preserve" text-anchor="middle" x="82.5" y="-753.7" font-family="Helvetica,sans-Serif" font-size="9.00">27</text>
</g>
<!-- E&#45;&gt;סס -->
<g id="edge24" class="edge">
<title>E&#45;&gt;סס</title>
<path fill="none" stroke="black" d="M38.05,-498.99C51.4,-476.86 77.27,-440.69 111,-425.75 171.34,-399.02 248.32,-427.32 292.87,-449.12"/>
<polygon fill="black" stroke="black" points="291.08,-452.14 301.59,-453.53 294.24,-445.89 291.08,-452.14"/>
<text xml:space="preserve" text-anchor="middle" x="162.12" y="-427.7" font-family="Helvetica,sans-Serif" font-size="9.00">35</text>
</g>
<!-- E&#45;&gt;פפ -->
<g id="edge25" class="edge">
<title>E&#45;&gt;פפ</title>
<path fill="none" stroke="black" d="M34.61,-535.56C54.18,-589.77 110.5,-745.76 111,-746.25 145.2,-780.29 170.34,-760.69 213.25,-782.75 221.91,-787.2 222.19,-791.69 231.25,-795.25 250.37,-802.76 272.99,-806.31 291.69,-807.96"/>
<polygon fill="black" stroke="black" points="291.3,-811.44 301.53,-808.67 291.8,-804.46 291.3,-811.44"/>
<text xml:space="preserve" text-anchor="middle" x="162.12" y="-784.7" font-family="Helvetica,sans-Serif" font-size="9.00">8</text>
</g>
<!-- כו&quot;ק -->
<g id="node16" class="node">
<title>כו&quot;ק</title>
<polygon fill="none" stroke="black" points="189.12,-190.25 135.12,-190.25 135.12,-154.25 189.12,-154.25 189.12,-190.25"/>
<text xml:space="preserve" text-anchor="middle" x="162.12" y="-167.22" font-family="SBL Hebrew,Helvetica" font-size="12.00">כו&quot;ק</text>
</g>
<!-- E&#45;&gt;כו&quot;ק -->
<g id="edge10" class="edge">
<title>E&#45;&gt;כו&quot;ק</title>
<path fill="none" stroke="black" d="M29.1,-498.95C32.66,-444.25 45.24,-283.06 72,-238.75 84.52,-218.02 106.17,-201.63 125,-190.32"/>
<polygon fill="black" stroke="black" points="126.55,-193.46 133.49,-185.46 123.07,-187.39 126.55,-193.46"/>
<text xml:space="preserve" text-anchor="middle" x="82.5" y="-240.7" font-family="Helvetica,sans-Serif" font-size="9.00">882</text>
</g>
<!-- מ:אות&#45;מיוחדת&#45;במילה -->
<g id="node17" class="node">
<title>מ:אות&#45;מיוחדת&#45;במילה</title>
<polygon fill="none" stroke="black" points="634.5,-421.25 524.75,-421.25 524.75,-385.25 634.5,-385.25 634.5,-421.25"/>
<text xml:space="preserve" text-anchor="middle" x="579.62" y="-398.23" font-family="SBL Hebrew,Helvetica" font-size="12.00">מ:אות&#45;מיוחדת&#45;במילה</text>
</g>
<!-- E&#45;&gt;מ:אות&#45;מיוחדת&#45;במילה -->
<g id="edge12" class="edge">
<title>E&#45;&gt;מ:אות&#45;מיוחדת&#45;במילה</title>
<path fill="none" stroke="black" d="M34.06,-498.99C40.9,-480.6 53.55,-452.28 72,-433.25 85.85,-418.96 92.23,-417.87 111,-411.25 247.53,-363.07 420.74,-378.13 513.29,-391.7"/>
<polygon fill="black" stroke="black" points="512.53,-395.13 522.94,-393.16 513.58,-388.21 512.53,-395.13"/>
<text xml:space="preserve" text-anchor="middle" x="330.25" y="-380.71" font-family="Helvetica,sans-Serif" font-size="9.00">79</text>
</g>
<!-- מ:דחי -->
<g id="node18" class="node">
<title>מ:דחי</title>
<polygon fill="none" stroke="black" points="470.62,-336.25 416.62,-336.25 416.62,-300.25 470.62,-300.25 470.62,-336.25"/>
<text xml:space="preserve" text-anchor="middle" x="443.62" y="-313.23" font-family="SBL Hebrew,Helvetica" font-size="12.00">מ:דחי</text>
</g>
<!-- E&#45;&gt;מ:דחי -->
<g id="edge13" class="edge">
<title>E&#45;&gt;מ:דחי</title>
<path fill="none" stroke="black" d="M30.42,-498.77C35.83,-460.52 50.15,-374.73 72,-356.25 126.4,-310.24 320.17,-331.92 391,-324.25 395.51,-323.76 400.25,-323.23 404.94,-322.7"/>
<polygon fill="black" stroke="black" points="405.33,-326.18 414.87,-321.56 404.53,-319.22 405.33,-326.18"/>
<text xml:space="preserve" text-anchor="middle" x="258.25" y="-327.72" font-family="Helvetica,sans-Serif" font-size="9.00">2287</text>
</g>
<!-- מ:כפול -->
<g id="node19" class="node">
<title>מ:כפול</title>
<polygon fill="none" stroke="black" points="189.12,-481.25 135.12,-481.25 135.12,-445.25 189.12,-445.25 189.12,-481.25"/>
<text xml:space="preserve" text-anchor="middle" x="162.12" y="-458.23" font-family="SBL Hebrew,Helvetica" font-size="12.00">מ:כפול</text>
</g>
<!-- E&#45;&gt;מ:כפול -->
<g id="edge18" class="edge">
<title>E&#45;&gt;מ:כפול</title>
<path fill="none" stroke="black" d="M54.3,-506.58C74.36,-498.45 102.23,-487.14 124.47,-478.12"/>
<polygon fill="black" stroke="black" points="125.52,-481.47 133.48,-474.47 122.89,-474.98 125.52,-481.47"/>
<text xml:space="preserve" text-anchor="middle" x="82.5" y="-500.19" font-family="Helvetica,sans-Serif" font-size="9.00">34</text>
</g>
<!-- מ:לגרמיה&#45;2 -->
<g id="node20" class="node">
<title>מ:לגרמיה&#45;2</title>
<polygon fill="none" stroke="black" points="875,-407.25 807.25,-407.25 807.25,-371.25 875,-371.25 875,-407.25"/>
<text xml:space="preserve" text-anchor="middle" x="841.12" y="-384.23" font-family="SBL Hebrew,Helvetica" font-size="12.00">מ:לגרמיה&#45;2</text>
</g>
<!-- E&#45;&gt;מ:לגרמיה&#45;2 -->
<g id="edge19" class="edge">
<title>E&#45;&gt;מ:לגרמיה&#45;2</title>
<path fill="none" stroke="black" d="M27.48,-498.77C26.53,-444.86 27.88,-283.75 72,-160.25 96.94,-90.44 86.99,-19.25 161.12,-19.25 161.12,-19.25 161.12,-19.25 724.5,-19.25 795.69,-19.25 828.18,-271.92 837.32,-359.66"/>
<polygon fill="black" stroke="black" points="833.81,-359.8 838.3,-369.4 840.78,-359.09 833.81,-359.8"/>
<text xml:space="preserve" text-anchor="middle" x="443.62" y="-21.2" font-family="Helvetica,sans-Serif" font-size="9.00">1800</text>
</g>
<!-- מ:מקף אפור -->
<g id="node21" class="node">
<title>מ:מקף אפור</title>
<polygon fill="none" stroke="black" points="478.25,-264.25 409,-264.25 409,-228.25 478.25,-228.25 478.25,-264.25"/>
<text xml:space="preserve" text-anchor="middle" x="443.62" y="-241.22" font-family="SBL Hebrew,Helvetica" font-size="12.00">מ:מקף אפור</text>
</g>
<!-- E&#45;&gt;מ:מקף אפור -->
<g id="edge20" class="edge">
<title>E&#45;&gt;מ:מקף אפור</title>
<path fill="none" stroke="black" d="M28.73,-498.91C31.99,-429 47.92,-181.24 111,-145.25 219.55,-83.31 287.07,-101.84 391,-171.25 408.04,-182.63 421.06,-201.71 429.76,-217.78"/>
<polygon fill="black" stroke="black" points="426.51,-219.12 434.17,-226.44 432.75,-215.94 426.51,-219.12"/>
<text xml:space="preserve" text-anchor="middle" x="258.25" y="-117.98" font-family="Helvetica,sans-Serif" font-size="9.00">114</text>
</g>
<!-- מ:פסק -->
<g id="node22" class="node">
<title>מ:פסק</title>
<polygon fill="none" stroke="black" points="357.25,-620.25 303.25,-620.25 303.25,-584.25 357.25,-584.25 357.25,-620.25"/>
<text xml:space="preserve" text-anchor="middle" x="330.25" y="-597.23" font-family="SBL Hebrew,Helvetica" font-size="12.00">מ:פסק</text>
</g>
<!-- E&#45;&gt;מ:פסק -->
<g id="edge21" class="edge">
<title>E&#45;&gt;מ:פסק</title>
<path fill="none" stroke="black" d="M40.57,-535.4C55.07,-554.71 80.83,-584.33 111,-598.25 169.44,-625.21 246.39,-618.16 291.57,-610.36"/>
<polygon fill="black" stroke="black" points="292.2,-613.8 301.4,-608.55 290.93,-606.92 292.2,-613.8"/>
<text xml:space="preserve" text-anchor="middle" x="162.12" y="-619.36" font-family="Helvetica,sans-Serif" font-size="9.00">503</text>
</g>
<!-- מ:קמץ -->
<g id="node23" class="node">
<title>מ:קמץ</title>
<polygon fill="none" stroke="black" points="357.25,-282.25 303.25,-282.25 303.25,-246.25 357.25,-246.25 357.25,-282.25"/>
<text xml:space="preserve" text-anchor="middle" x="330.25" y="-259.23" font-family="SBL Hebrew,Helvetica" font-size="12.00">מ:קמץ</text>
</g>
<!-- E&#45;&gt;מ:קמץ -->
<g id="edge23" class="edge">
<title>E&#45;&gt;מ:קמץ</title>
<path fill="none" stroke="black" d="M29.65,-498.86C33.99,-454.67 47.13,-344.28 72,-318.25 84.4,-305.27 93.52,-311.84 111,-307.75 144.84,-299.83 238.89,-281.56 291.82,-271.4"/>
<polygon fill="black" stroke="black" points="292.44,-274.84 301.6,-269.52 291.12,-267.97 292.44,-274.84"/>
<text xml:space="preserve" text-anchor="middle" x="162.12" y="-309.7" font-family="Helvetica,sans-Serif" font-size="9.00">357</text>
</g>
<!-- קו&quot;כ -->
<g id="node24" class="node">
<title>קו&quot;כ</title>
<polygon fill="none" stroke="black" points="285.25,-1036.25 231.25,-1036.25 231.25,-1000.25 285.25,-1000.25 285.25,-1036.25"/>
<text xml:space="preserve" text-anchor="middle" x="258.25" y="-1013.23" font-family="SBL Hebrew,Helvetica" font-size="12.00">קו&quot;כ</text>
</g>
<!-- E&#45;&gt;קו&quot;כ -->
<g id="edge26" class="edge">
<title>E&#45;&gt;קו&quot;כ</title>
<path fill="none" stroke="black" d="M28.69,-535.68C31.55,-607.46 43.73,-868.1 72,-945.25 82.56,-974.07 84.67,-986.47 111,-1002.25 143.83,-1021.92 188.34,-1024.05 219.61,-1022.43"/>
<polygon fill="black" stroke="black" points="219.64,-1025.93 229.38,-1021.75 219.16,-1018.95 219.64,-1025.93"/>
<text xml:space="preserve" text-anchor="middle" x="82.5" y="-990.38" font-family="Helvetica,sans-Serif" font-size="9.00">126</text>
</g>
<!-- קו&quot;כ&#45;אם -->
<g id="node25" class="node">
<title>קו&quot;כ&#45;אם</title>
<polygon fill="none" stroke="black" points="189.12,-257.25 135.12,-257.25 135.12,-221.25 189.12,-221.25 189.12,-257.25"/>
<text xml:space="preserve" text-anchor="middle" x="162.12" y="-234.22" font-family="SBL Hebrew,Helvetica" font-size="12.00">קו&quot;כ&#45;אם</text>
</g>
<!-- E&#45;&gt;קו&quot;כ&#45;אם -->
<g id="edge27" class="edge">
<title>E&#45;&gt;קו&quot;כ&#45;אם</title>
<path fill="none" stroke="black" d="M28.86,-499.07C31.62,-447.78 41.97,-303.46 72,-268.75 84.92,-253.82 105.57,-246.41 123.75,-242.75"/>
<polygon fill="black" stroke="black" points="124.16,-246.23 133.44,-241.13 123,-239.33 124.16,-246.23"/>
<text xml:space="preserve" text-anchor="middle" x="82.5" y="-270.7" font-family="Helvetica,sans-Serif" font-size="9.00">130</text>
</g>
<!-- מ:אות תלויה -->
<g id="node5" class="node">
<title>מ:אות תלויה</title>
<g id="a_node5"><a xlink:title="מ:אות תלויה&#10;מ:אות&#45;ק">
<polygon fill="none" stroke="black" points="766,-468.25 681,-468.25 681,-432.25 766,-432.25 766,-468.25"/>
<text xml:space="preserve" text-anchor="middle" x="723.5" y="-445.23" font-family="SBL Hebrew,Helvetica" font-size="12.00">מ:אות תלויה, …</text>
</a>
</g>
</g>
<!-- מ:כו&quot;ק כתיב מילה חדה וקרי תרתין מילין&#45;&gt;מ:לגרמיה&#45;2 -->
<g id="edge41" class="edge">
<title>מ:כו&quot;ק כתיב מילה חדה וקרי תרתין מילין&#45;&gt;מ:לגרמיה&#45;2</title>
<path fill="none" stroke="black" d="M198.04,-838.74C203.17,-841.55 208.36,-844.44 213.25,-847.25 221.38,-851.92 222.79,-854.21 231.25,-858.25 272.98,-878.19 283,-893.25 329.25,-893.25 329.25,-893.25 329.25,-893.25 724.5,-893.25 822.5,-893.25 837.44,-526.64 839.72,-418.77"/>
<polygon fill="black" stroke="black" points="843.21,-419.06 839.9,-409 836.21,-418.93 843.21,-419.06"/>
<text xml:space="preserve" text-anchor="middle" x="501.5" y="-895.2" font-family="Helvetica,sans-Serif" font-size="9.00">1</text>
</g>
<!-- מ:כו&quot;ק כתיב מילה חדה וקרי תרתין מילין&#45;&gt;מ:פסק -->
<g id="edge42" class="edge">
<title>מ:כו&quot;ק כתיב מילה חדה וקרי תרתין מילין&#45;&gt;מ:פסק</title>
<path fill="none" stroke="black" d="M197.85,-801.85C203.45,-797.87 208.85,-793.32 213.25,-788.25 225.9,-773.68 217.28,-762.06 231.25,-748.75 249.96,-730.93 267.36,-745.88 285.25,-727.25 310.49,-700.97 321.34,-659.36 325.94,-631.45"/>
<polygon fill="black" stroke="black" points="329.36,-632.32 327.34,-621.91 322.43,-631.3 329.36,-632.32"/>
<text xml:space="preserve" text-anchor="middle" x="258.25" y="-750.7" font-family="Helvetica,sans-Serif" font-size="9.00">3</text>
</g>
<!-- מ:כו&quot;ק של שתי מילים בהערה אחת&#45;&gt;מ:פסק -->
<g id="edge43" class="edge">
<title>מ:כו&quot;ק של שתי מילים בהערה אחת&#45;&gt;מ:פסק</title>
<path fill="none" stroke="black" d="M210.66,-533.89C239.07,-544.19 272.12,-556.91 285.25,-564.75 290.99,-568.18 296.72,-572.36 302.06,-576.68"/>
<polygon fill="black" stroke="black" points="299.58,-579.15 309.46,-582.97 304.11,-573.82 299.58,-579.15"/>
<text xml:space="preserve" text-anchor="middle" x="258.25" y="-566.7" font-family="Helvetica,sans-Serif" font-size="9.00">2</text>
</g>
<!-- מ:עלייה -->
<g id="node27" class="node">
<title>מ:עלייה</title>
<polygon fill="none" stroke="black" points="470.62,-1253.25 416.62,-1253.25 416.62,-1217.25 470.62,-1217.25 470.62,-1253.25"/>
<text xml:space="preserve" text-anchor="middle" x="443.62" y="-1230.22" font-family="SBL Hebrew,Helvetica" font-size="12.00">מ:עלייה</text>
</g>
<!-- מ:פסוק&#45;&gt;מ:עלייה -->
<g id="edge49" class="edge">
<title>מ:פסוק&#45;&gt;מ:עלייה</title>
<path fill="none" stroke="black" d="M357.64,-1235.25C371.79,-1235.25 389.47,-1235.25 405.03,-1235.25"/>
<polygon fill="black" stroke="black" points="404.91,-1238.75 414.91,-1235.25 404.91,-1231.75 404.91,-1238.75"/>
<text xml:space="preserve" text-anchor="middle" x="383.12" y="-1237.2" font-family="Helvetica,sans-Serif" font-size="9.00">532</text>
</g>
<!-- מ:הערה&#45;&gt;מ:אות&#45;מיוחדת&#45;במילה -->
<g id="edge38" class="edge">
<title>מ:הערה&#45;&gt;מ:אות&#45;מיוחדת&#45;במילה</title>
<path fill="none" stroke="black" d="M189.62,-978.35C215.58,-980.14 255.49,-979.42 285.25,-963.25 406.13,-897.57 404.59,-837.44 478.25,-721.25 538.58,-626.07 565.2,-491.78 574.49,-432.88"/>
<polygon fill="black" stroke="black" points="577.95,-433.41 575.99,-423 571.03,-432.36 577.95,-433.41"/>
<text xml:space="preserve" text-anchor="middle" x="383.12" y="-894.83" font-family="Helvetica,sans-Serif" font-size="9.00">6</text>
</g>
<!-- מ:הערה&#45;2&#45;&gt;פפ -->
<g id="edge40" class="edge">
<title>מ:הערה&#45;2&#45;&gt;פפ</title>
<path fill="none" stroke="black" d="M193.08,-860.2C204.88,-854.83 218.61,-848.79 231.25,-843.75 251.09,-835.83 273.54,-827.86 291.95,-821.57"/>
<polygon fill="black" stroke="black" points="293.04,-824.9 301.39,-818.38 290.8,-818.27 293.04,-824.9"/>
<text xml:space="preserve" text-anchor="middle" x="258.25" y="-845.7" font-family="Helvetica,sans-Serif" font-size="9.00">3</text>
</g>
<!-- מ:הערה&#45;2&#45;&gt;מ:אות&#45;מיוחדת&#45;במילה -->
<g id="edge39" class="edge">
<title>מ:הערה&#45;2&#45;&gt;מ:אות&#45;מיוחדת&#45;במילה</title>
<path fill="none" stroke="black" d="M192.88,-876.41C234.24,-877.8 309.4,-874.29 357.25,-836.25 427.38,-780.51 533.35,-519.67 567.56,-432.05"/>
<polygon fill="black" stroke="black" points="570.73,-433.55 571.09,-422.96 564.2,-431.02 570.73,-433.55"/>
<text xml:space="preserve" text-anchor="middle" x="383.12" y="-820.16" font-family="Helvetica,sans-Serif" font-size="9.00">9</text>
</g>
<!-- כו&quot;ק&#45;&gt;מ:אות&#45;מיוחדת&#45;במילה -->
<g id="edge29" class="edge">
<title>כו&quot;ק&#45;&gt;מ:אות&#45;מיוחדת&#45;במילה</title>
<path fill="none" stroke="black" d="M189.52,-168.41C247.96,-161.41 390.09,-152.88 478.25,-219.25 530.35,-258.48 558.7,-332.97 571.02,-374.12"/>
<polygon fill="black" stroke="black" points="567.6,-374.91 573.72,-383.57 574.33,-372.99 567.6,-374.91"/>
<text xml:space="preserve" text-anchor="middle" x="383.12" y="-179.96" font-family="Helvetica,sans-Serif" font-size="9.00">1</text>
</g>
<!-- כו&quot;ק&#45;&gt;מ:דחי -->
<g id="edge30" class="edge">
<title>כו&quot;ק&#45;&gt;מ:דחי</title>
<path fill="none" stroke="black" d="M189.32,-174.16C235.92,-178.92 333.68,-195.24 391,-250.25 392.9,-252.07 408.62,-272.86 422.22,-290.97"/>
<polygon fill="black" stroke="black" points="419.35,-292.97 428.15,-298.87 424.95,-288.77 419.35,-292.97"/>
<text xml:space="preserve" text-anchor="middle" x="330.25" y="-226.14" font-family="Helvetica,sans-Serif" font-size="9.00">7</text>
</g>
<!-- כו&quot;ק&#45;&gt;מ:לגרמיה&#45;2 -->
<g id="edge31" class="edge">
<title>כו&quot;ק&#45;&gt;מ:לגרמיה&#45;2</title>
<path fill="none" stroke="black" d="M189.49,-156.67C228.56,-134.17 300.32,-95.25 329.25,-95.25 329.25,-95.25 329.25,-95.25 724.5,-95.25 780.99,-95.25 821.43,-285.59 835.08,-359.96"/>
<polygon fill="black" stroke="black" points="831.55,-360.15 836.77,-369.37 838.44,-358.91 831.55,-360.15"/>
<text xml:space="preserve" text-anchor="middle" x="501.5" y="-97.2" font-family="Helvetica,sans-Serif" font-size="9.00">9</text>
</g>
<!-- כו&quot;ק&#45;&gt;מ:קמץ -->
<g id="edge32" class="edge">
<title>כו&quot;ק&#45;&gt;מ:קמץ</title>
<path fill="none" stroke="black" d="M189.33,-184.55C214.39,-196.58 253.02,-215.79 285.25,-234.75 288,-236.37 290.81,-238.09 293.62,-239.86"/>
<polygon fill="black" stroke="black" points="291.48,-242.64 301.78,-245.13 295.28,-236.76 291.48,-242.64"/>
<text xml:space="preserve" text-anchor="middle" x="258.25" y="-236.7" font-family="Helvetica,sans-Serif" font-size="9.00">10</text>
</g>
<!-- מ:אות&#45;מיוחדת&#45;במילה&#45;&gt;מ:אות תלויה -->
<g id="edge34" class="edge">
<title>מ:אות&#45;מיוחדת&#45;במילה&#45;&gt;מ:אות תלויה</title>
<path fill="none" stroke="black" d="M634.67,-421.15C646.18,-424.97 658.32,-428.99 669.78,-432.79"/>
<polygon fill="black" stroke="black" points="668.49,-436.05 679.09,-435.87 670.69,-429.4 668.49,-436.05"/>
<text xml:space="preserve" text-anchor="middle" x="657.75" y="-431.51" font-family="Helvetica,sans-Serif" font-size="9.00">35</text>
</g>
<!-- מ:אות&#45;מיוחדת&#45;במילה&#45;&gt;מ:לגרמיה&#45;2 -->
<g id="edge36" class="edge">
<title>מ:אות&#45;מיוחדת&#45;במילה&#45;&gt;מ:לגרמיה&#45;2</title>
<path fill="none" stroke="black" d="M634.71,-400.33C682.43,-397.76 751.15,-394.05 795.72,-391.65"/>
<polygon fill="black" stroke="black" points="795.75,-395.15 805.55,-391.12 795.37,-388.16 795.75,-395.15"/>
<text xml:space="preserve" text-anchor="middle" x="723.5" y="-399.59" font-family="Helvetica,sans-Serif" font-size="9.00">3</text>
</g>
<!-- מ:אות&#45;ג -->
<g id="node26" class="node">
<title>מ:אות&#45;ג</title>
<polygon fill="none" stroke="black" points="750.5,-367.25 696.5,-367.25 696.5,-331.25 750.5,-331.25 750.5,-367.25"/>
<text xml:space="preserve" text-anchor="middle" x="723.5" y="-344.23" font-family="SBL Hebrew,Helvetica" font-size="12.00">מ:אות&#45;ג</text>
</g>
<!-- מ:אות&#45;מיוחדת&#45;במילה&#45;&gt;מ:אות&#45;ג -->
<g id="edge35" class="edge">
<title>מ:אות&#45;מיוחדת&#45;במילה&#45;&gt;מ:אות&#45;ג</title>
<path fill="none" stroke="black" d="M629.05,-384.82C647.49,-377.8 668.19,-369.92 685.42,-363.36"/>
<polygon fill="black" stroke="black" points="686.66,-366.64 694.76,-359.81 684.17,-360.1 686.66,-366.64"/>
<text xml:space="preserve" text-anchor="middle" x="657.75" y="-376.58" font-family="Helvetica,sans-Serif" font-size="9.00">68</text>
</g>
<!-- מ:דחי&#45;&gt;מ:אות&#45;מיוחדת&#45;במילה -->
<g id="edge37" class="edge">
<title>מ:דחי&#45;&gt;מ:אות&#45;מיוחדת&#45;במילה</title>
<path fill="none" stroke="black" d="M471.1,-335.04C490.9,-347.6 518.26,-364.96 540.43,-379.02"/>
<polygon fill="black" stroke="black" points="538.29,-381.81 548.61,-384.21 542.04,-375.9 538.29,-381.81"/>
<text xml:space="preserve" text-anchor="middle" x="501.5" y="-357.61" font-family="Helvetica,sans-Serif" font-size="9.00">6</text>
</g>
<!-- מ:כפול&#45;&gt;סס -->
<g id="edge47" class="edge">
<title>מ:כפול&#45;&gt;סס</title>
<path fill="none" stroke="black" d="M189.45,-464.2C216.95,-465.19 260.35,-466.76 291.5,-467.89"/>
<polygon fill="black" stroke="black" points="291.14,-471.38 301.26,-468.24 291.4,-464.38 291.14,-471.38"/>
<text xml:space="preserve" text-anchor="middle" x="258.25" y="-469.59" font-family="Helvetica,sans-Serif" font-size="9.00">18</text>
</g>
<!-- מ:כפול&#45;&gt;פפ -->
<g id="edge48" class="edge">
<title>מ:כפול&#45;&gt;פפ</title>
<path fill="none" stroke="black" d="M189.62,-471.72C198.53,-475.89 207.63,-481.88 213.25,-490.25 255.36,-552.96 185.6,-599.07 231.25,-659.25 246.86,-679.83 267.44,-662.04 285.25,-680.75 311.14,-707.95 321.85,-751.03 326.24,-779.71"/>
<polygon fill="black" stroke="black" points="322.76,-780.09 327.56,-789.54 329.7,-779.16 322.76,-780.09"/>
<text xml:space="preserve" text-anchor="middle" x="258.25" y="-682.7" font-family="Helvetica,sans-Serif" font-size="9.00">2</text>
</g>
<!-- מ:כפול&#45;&gt;מ:לגרמיה&#45;2 -->
<g id="edge44" class="edge">
<title>מ:כפול&#45;&gt;מ:לגרמיה&#45;2</title>
<path fill="none" stroke="black" d="M189.53,-471.78C198.44,-475.96 207.55,-481.93 213.25,-490.25 249.7,-543.46 186.04,-588.24 231.25,-634.25 262.09,-665.63 285.25,-648.25 329.25,-648.25 329.25,-648.25 329.25,-648.25 724.5,-648.25 824.14,-648.25 838.5,-486.43 840.15,-418.61"/>
<polygon fill="black" stroke="black" points="843.64,-419.03 840.3,-408.98 836.64,-418.92 843.64,-419.03"/>
<text xml:space="preserve" text-anchor="middle" x="501.5" y="-650.2" font-family="Helvetica,sans-Serif" font-size="9.00">14</text>
</g>
<!-- מ:כפול&#45;&gt;מ:פסק -->
<g id="edge45" class="edge">
<title>מ:כפול&#45;&gt;מ:פסק</title>
<path fill="none" stroke="black" d="M189.52,-472.57C216.14,-483 257.22,-502.01 285.25,-528.75 298.5,-541.39 309.18,-558.87 316.7,-573.61"/>
<polygon fill="black" stroke="black" points="313.44,-574.92 320.95,-582.39 319.74,-571.87 313.44,-574.92"/>
<text xml:space="preserve" text-anchor="middle" x="258.25" y="-530.7" font-family="Helvetica,sans-Serif" font-size="9.00">7</text>
</g>
<!-- מ:כפול&#45;&gt;מ:קמץ -->
<g id="edge46" class="edge">
<title>מ:כפול&#45;&gt;מ:קמץ</title>
<path fill="none" stroke="black" d="M189.42,-449.83C217.81,-433.9 262.05,-404.59 285.25,-366.25 301.88,-338.77 288.79,-324.93 303.25,-296.25 304,-294.77 304.82,-293.3 305.7,-291.84"/>
<polygon fill="black" stroke="black" points="308.43,-294.05 311.26,-283.84 302.68,-290.06 308.43,-294.05"/>
<text xml:space="preserve" text-anchor="middle" x="258.25" y="-423.1" font-family="Helvetica,sans-Serif" font-size="9.00">4</text>
</g>
<!-- מ:קמץ&#45;&gt;מ:דחי -->
<g id="edge50" class="edge">
<title>מ:קמץ&#45;&gt;מ:דחי</title>
<path fill="none" stroke="black" d="M357.64,-277.05C372.21,-284.11 390.51,-292.98 406.39,-300.68"/>
<polygon fill="black" stroke="black" points="404.53,-303.67 415.06,-304.88 407.59,-297.37 404.53,-303.67"/>
<text xml:space="preserve" text-anchor="middle" x="383.12" y="-294.82" font-family="Helvetica,sans-Serif" font-size="9.00">14</text>
</g>
<!-- מ:קמץ&#45;&gt;מ:מקף אפור -->
<g id="edge51" class="edge">
<title>מ:קמץ&#45;&gt;מ:מקף אפור</title>
<path fill="none" stroke="black" d="M357.64,-259.98C369.61,-258.05 384.09,-255.71 397.68,-253.51"/>
<polygon fill="black" stroke="black" points="398.01,-257.01 407.32,-251.96 396.89,-250.1 398.01,-257.01"/>
<text xml:space="preserve" text-anchor="middle" x="383.12" y="-258.81" font-family="Helvetica,sans-Serif" font-size="9.00">2</text>
</g>
<!-- קו&quot;כ&#45;&gt;מ:לגרמיה&#45;2 -->
<g id="edge56" class="edge">
<title>קו&quot;כ&#45;&gt;מ:לגרמיה&#45;2</title>
<path fill="none" stroke="black" d="M285.61,-1016.9C310.48,-1015.74 348.83,-1014.25 382.12,-1014.25 382.12,-1014.25 382.12,-1014.25 724.5,-1014.25 780.08,-1014.25 771.71,-959.99 789.25,-907.25 819.78,-815.45 834.83,-514.85 838.94,-418.94"/>
<polygon fill="black" stroke="black" points="842.43,-419.19 839.35,-409.06 835.44,-418.9 842.43,-419.19"/>
<text xml:space="preserve" text-anchor="middle" x="501.5" y="-1016.2" font-family="Helvetica,sans-Serif" font-size="9.00">1</text>
</g>
<!-- קו&quot;כ&#45;אם&#45;&gt;מ:דחי -->
<g id="edge57" class="edge">
<title>קו&quot;כ&#45;אם&#45;&gt;מ:דחי</title>
<path fill="none" stroke="black" d="M189.46,-253.48C201.89,-259.81 217.08,-267 231.25,-272.25 290,-294 361.94,-306.94 404.93,-313.31"/>
<polygon fill="black" stroke="black" points="404.36,-316.76 414.76,-314.72 405.35,-309.84 404.36,-316.76"/>
<text xml:space="preserve" text-anchor="middle" x="330.25" y="-307.12" font-family="Helvetica,sans-Serif" font-size="9.00">4</text>
</g>
<!-- קו&quot;כ&#45;אם&#45;&gt;מ:לגרמיה&#45;2 -->
<g id="edge58" class="edge">
<title>קו&quot;כ&#45;אם&#45;&gt;מ:לגרמיה&#45;2</title>
<path fill="none" stroke="black" d="M189.37,-226.24C238.04,-203.34 346.13,-158.25 442.62,-158.25 442.62,-158.25 442.62,-158.25 724.5,-158.25 813.63,-158.25 834.06,-297.48 838.74,-359.76"/>
<polygon fill="black" stroke="black" points="835.24,-359.86 839.38,-369.61 842.22,-359.41 835.24,-359.86"/>
<text xml:space="preserve" text-anchor="middle" x="501.5" y="-160.2" font-family="Helvetica,sans-Serif" font-size="9.00">2</text>
</g>
<!-- קו&quot;כ&#45;אם&#45;&gt;מ:קמץ -->
<g id="edge59" class="edge">
<title>קו&quot;כ&#45;אם&#45;&gt;מ:קמץ</title>
<path fill="none" stroke="black" d="M189.45,-243.21C216.95,-247.35 260.35,-253.88 291.5,-258.57"/>
<polygon fill="black" stroke="black" points="290.87,-262.01 301.28,-260.04 291.91,-255.09 290.87,-262.01"/>
<text xml:space="preserve" text-anchor="middle" x="258.25" y="-259.5" font-family="Helvetica,sans-Serif" font-size="9.00">1</text>
</g>
<!-- מ:אות&#45;ג&#45;&gt;מ:לגרמיה&#45;2 -->
<g id="edge33" class="edge">
<title>מ:אות&#45;ג&#45;&gt;מ:לגרמיה&#45;2</title>
<path fill="none" stroke="black" d="M750.74,-358.33C764.14,-362.96 780.81,-368.73 796.11,-374.02"/>
<polygon fill="black" stroke="black" points="794.92,-377.32 805.52,-377.28 797.21,-370.7 794.92,-377.32"/>
<text xml:space="preserve" text-anchor="middle" x="786.62" y="-373.59" font-family="Helvetica,sans-Serif" font-size="9.00">1</text>
</g>
<!-- נוסח -->
<g id="node28" class="node">
<title>נוסח</title>
<polygon fill="none" stroke="black" points="189.12,-737.25 135.12,-737.25 135.12,-701.25 189.12,-701.25 189.12,-737.25"/>
<text xml:space="preserve" text-anchor="middle" x="162.12" y="-714.23" font-family="SBL Hebrew,Helvetica" font-size="12.00">נוסח</text>
</g>
<!-- נוסח&#45;&gt;ש -->
<g id="edge55" class="edge">
<title>נוסח&#45;&gt;ש</title>
<path fill="none" stroke="black" d="M189.41,-730.52C198.3,-735.6 207.44,-742.47 213.25,-751.25 239.86,-791.46 217.17,-812.13 231.25,-858.25 237.07,-877.32 290.17,-991.14 315.68,-1045.45"/>
<polygon fill="black" stroke="black" points="312.47,-1046.85 319.89,-1054.41 318.8,-1043.87 312.47,-1046.85"/>
<text xml:space="preserve" text-anchor="middle" x="258.25" y="-977.65" font-family="Helvetica,sans-Serif" font-size="9.00">58</text>
</g>
<!-- נוסח&#45;&gt;פפ -->
<g id="edge54" class="edge">
<title>נוסח&#45;&gt;פפ</title>
<path fill="none" stroke="black" d="M189.47,-736.7C201.9,-744.62 217.09,-753.85 231.25,-761.25 254.45,-773.37 261.79,-773.15 285.25,-784.75 287.79,-786 290.39,-787.33 292.99,-788.7"/>
<polygon fill="black" stroke="black" points="291.15,-791.68 301.62,-793.34 294.47,-785.52 291.15,-791.68"/>
<text xml:space="preserve" text-anchor="middle" x="258.25" y="-786.7" font-family="Helvetica,sans-Serif" font-size="9.00">1</text>
</g>
<!-- נוסח&#45;&gt;מ:פסק -->
<g id="edge52" class="edge">
<title>נוסח&#45;&gt;מ:פסק</title>
<path fill="none" stroke="black" d="M189.25,-720.07C216.05,-719.58 257.62,-714.92 285.25,-693.25 304.73,-677.97 316.11,-651.89 322.39,-631.56"/>
<polygon fill="black" stroke="black" points="325.7,-632.7 325.04,-622.12 318.97,-630.8 325.7,-632.7"/>
<text xml:space="preserve" text-anchor="middle" x="258.25" y="-717.39" font-family="Helvetica,sans-Serif" font-size="9.00">1</text>
</g>
<!-- נוסח&#45;&gt;מ:קמץ -->
<g id="edge53" class="edge">
<title>נוסח&#45;&gt;מ:קמץ</title>
<path fill="none" stroke="black" d="M189.37,-706.56C197.84,-701.48 206.72,-694.98 213.25,-687.25 226.49,-671.58 220.87,-662.44 231.25,-644.75 251.04,-611.01 271.38,-611.82 285.25,-575.25 329.31,-459.07 257.93,-411.95 303.25,-296.25 303.78,-294.9 304.39,-293.56 305.06,-292.25"/>
<polygon fill="black" stroke="black" points="307.94,-294.23 310.36,-283.92 302.04,-290.47 307.94,-294.23"/>
<text xml:space="preserve" text-anchor="middle" x="258.25" y="-646.7" font-family="Helvetica,sans-Serif" font-size="9.00">2</text>
</g>
</g>
</svg>
