<?xml version="1.0" encoding="UTF-8" standalone="no"?>
<!DOCTYPE svg PUBLIC "-//W3C//DTD SVG 1.1//EN"
 "http://www.w3.org/Graphics/SVG/1.1/DTD/svg11.dtd">
<!-- Generated by graphviz version 14.1.2 (20260124.0452)
 -->
<!-- Title: template_call_graph Pages: 1 -->
<svg width="287pt" height="314pt"
 viewBox="0.00 0.00 287.00 314.00" xmlns="http://www.w3.org/2000/svg" xmlns:xlink="http://www.w3.org/1999/xlink">
<g id="graph0" class="graph" transform="scale(1 1) rotate(0) translate(4 310)">
<title>template_call_graph</title>
<polygon fill="white" stroke="none" points="-4,4 -4,-310 283.25,-310 283.25,4 -4,4"/>
<!-- E -->
<g id="node1" class="node">
<title>E</title>
<polygon fill="none" stroke="black" stroke-width="2" points="54,-171 0,-171 0,-135 54,-135 54,-171"/>
<text xml:space="preserve" text-anchor="middle" x="27" y="-147.97" font-family="SBL Hebrew,Helvetica" font-size="12.00">E</text>
</g>
<!-- מ:כפול -->
<g id="node2" class="node">
<title>מ:כפול</title>
<polygon fill="none" stroke="black" points="159.75,-171 105.75,-171 105.75,-135 159.75,-135 159.75,-171"/>
<text xml:space="preserve" text-anchor="middle" x="132.75" y="-147.97" font-family="SBL Hebrew,Helvetica" font-size="12.00">מ:כפול</text>
</g>
<!-- E&#45;&gt;מ:כפול -->
<g id="edge1" class="edge">
<title>E&#45;&gt;מ:כפול</title>
<path fill="none" stroke="black" d="M54.45,-153C66.52,-153 81.04,-153 94.21,-153"/>
<polygon fill="black" stroke="black" points="93.84,-156.5 103.84,-153 93.84,-149.5 93.84,-156.5"/>
<text xml:space="preserve" text-anchor="middle" x="79.88" y="-154.95" font-family="Helvetica,sans-Serif" font-size="9.00">183</text>
</g>
<!-- מ:לגרמיה&#45;2 -->
<g id="node3" class="node">
<title>מ:לגרמיה&#45;2</title>
<polygon fill="none" stroke="black" points="279.25,-306 211.5,-306 211.5,-270 279.25,-270 279.25,-306"/>
<text xml:space="preserve" text-anchor="middle" x="245.38" y="-282.98" font-family="SBL Hebrew,Helvetica" font-size="12.00">מ:לגרמיה&#45;2</text>
</g>
<!-- מ:כפול&#45;&gt;מ:לגרמיה&#45;2 -->
<g id="edge2" class="edge">
<title>מ:כפול&#45;&gt;מ:לגרמיה&#45;2</title>
<path fill="none" stroke="black" d="M144.83,-171.28C158.86,-193.68 184.47,-232.19 211.5,-261 211.76,-261.27 212.01,-261.55 212.28,-261.82"/>
<polygon fill="black" stroke="black" points="209.62,-264.12 219.27,-268.49 214.45,-259.05 209.62,-264.12"/>
<text xml:space="preserve" text-anchor="middle" x="185.62" y="-240.93" font-family="Helvetica,sans-Serif" font-size="9.00">14</text>
</g>
<!-- מ:פסק -->
<g id="node4" class="node">
<title>מ:פסק</title>
<polygon fill="none" stroke="black" points="272.38,-252 218.38,-252 218.38,-216 272.38,-216 272.38,-252"/>
<text xml:space="preserve" text-anchor="middle" x="245.38" y="-228.97" font-family="SBL Hebrew,Helvetica" font-size="12.00">מ:פסק</text>
</g>
<!-- מ:כפול&#45;&gt;מ:פסק -->
<g id="edge3" class="edge">
<title>מ:כפול&#45;&gt;מ:פסק</title>
<path fill="none" stroke="black" d="M158.85,-171.38C174.13,-182.57 193.84,-197 210.49,-209.19"/>
<polygon fill="black" stroke="black" points="208.01,-211.71 218.15,-214.8 212.15,-206.07 208.01,-211.71"/>
<text xml:space="preserve" text-anchor="middle" x="185.62" y="-197.88" font-family="Helvetica,sans-Serif" font-size="9.00">7</text>
</g>
<!-- מ:קמץ -->
<g id="node5" class="node">
<title>מ:קמץ</title>
<polygon fill="none" stroke="black" points="272.38,-198 218.38,-198 218.38,-162 272.38,-162 272.38,-198"/>
<text xml:space="preserve" text-anchor="middle" x="245.38" y="-174.97" font-family="SBL Hebrew,Helvetica" font-size="12.00">מ:קמץ</text>
</g>
<!-- מ:כפול&#45;&gt;מ:קמץ -->
<g id="edge4" class="edge">
<title>מ:כפול&#45;&gt;מ:קמץ</title>
<path fill="none" stroke="black" d="M160.25,-159.47C174.34,-162.91 191.9,-167.19 207.32,-170.96"/>
<polygon fill="black" stroke="black" points="206.08,-174.26 216.62,-173.23 207.74,-167.46 206.08,-174.26"/>
<text xml:space="preserve" text-anchor="middle" x="185.62" y="-169.26" font-family="Helvetica,sans-Serif" font-size="9.00">4</text>
</g>
<!-- נוסח -->
<g id="node6" class="node">
<title>נוסח</title>
<polygon fill="none" stroke="black" points="272.38,-144 218.38,-144 218.38,-108 272.38,-108 272.38,-144"/>
<text xml:space="preserve" text-anchor="middle" x="245.38" y="-120.97" font-family="SBL Hebrew,Helvetica" font-size="12.00">נוסח</text>
</g>
<!-- מ:כפול&#45;&gt;נוסח -->
<g id="edge5" class="edge">
<title>מ:כפול&#45;&gt;נוסח</title>
<path fill="none" stroke="black" d="M160.25,-146.53C174.34,-143.09 191.9,-138.81 207.32,-135.04"/>
<polygon fill="black" stroke="black" points="207.74,-138.54 216.62,-132.77 206.08,-131.74 207.74,-138.54"/>
<text xml:space="preserve" text-anchor="middle" x="185.62" y="-143.87" font-family="Helvetica,sans-Serif" font-size="9.00">104</text>
</g>
<!-- סס -->
<g id="node7" class="node">
<title>סס</title>
<polygon fill="none" stroke="black" points="272.38,-90 218.38,-90 218.38,-54 272.38,-54 272.38,-90"/>
<text xml:space="preserve" text-anchor="middle" x="245.38" y="-66.97" font-family="SBL Hebrew,Helvetica" font-size="12.00">סס</text>
</g>
<!-- מ:כפול&#45;&gt;סס -->
<g id="edge6" class="edge">
<title>מ:כפול&#45;&gt;סס</title>
<path fill="none" stroke="black" d="M158.85,-134.62C174.13,-123.43 193.84,-109 210.49,-96.81"/>
<polygon fill="black" stroke="black" points="212.15,-99.93 218.15,-91.2 208.01,-94.29 212.15,-99.93"/>
<text xml:space="preserve" text-anchor="middle" x="185.62" y="-121.71" font-family="Helvetica,sans-Serif" font-size="9.00">18</text>
</g>
<!-- פפ -->
<g id="node8" class="node">
<title>פפ</title>
<polygon fill="none" stroke="black" points="272.38,-36 218.38,-36 218.38,0 272.38,0 272.38,-36"/>
<text xml:space="preserve" text-anchor="middle" x="245.38" y="-12.97" font-family="SBL Hebrew,Helvetica" font-size="12.00">פפ</text>
</g>
<!-- מ:כפול&#45;&gt;פפ -->
<g id="edge7" class="edge">
<title>מ:כפול&#45;&gt;פפ</title>
<path fill="none" stroke="black" d="M144.83,-134.72C158.86,-112.32 184.47,-73.81 211.5,-45 211.76,-44.73 212.01,-44.45 212.28,-44.18"/>
<polygon fill="black" stroke="black" points="214.45,-46.95 219.27,-37.51 209.62,-41.88 214.45,-46.95"/>
<text xml:space="preserve" text-anchor="middle" x="185.62" y="-86.39" font-family="Helvetica,sans-Serif" font-size="9.00">2</text>
</g>
</g>
</svg>
