<?xml version="1.0" encoding="UTF-8" standalone="no"?>
<!DOCTYPE svg PUBLIC "-//W3C//DTD SVG 1.1//EN"
 "http://www.w3.org/Graphics/SVG/1.1/DTD/svg11.dtd">
<!-- Generated by graphviz version 16.0.0 (20260814.1018)
 -->
<!-- This file was generated by MAM-basics/py/main_tmpl_survey.py. -->
<!-- Title: template_call_graph Pages: 1 -->
<svg width="442pt" height="171pt"
 viewBox="0.00 0.00 442.00 171.00" xmlns="http://www.w3.org/2000/svg" xmlns:xlink="http://www.w3.org/1999/xlink">
<g id="graph0" class="graph" transform="scale(1 1) rotate(0) translate(4 167.25)">
<title>template_call_graph</title>
<polygon fill="white" stroke="none" points="-4,4 -4,-167.25 437.5,-167.25 437.5,4 -4,4"/>
<text xml:space="preserve" text-anchor="middle" x="216.75" y="-5.75" font-family="Times New Roman,serif" font-size="10.00">מ:כפול, נוסח have been discarded</text>
<!-- מ:דחי -->
<g id="node1" class="node">
<title>מ:דחי</title>
<polygon fill="#ffec8b" stroke="black" stroke-width="2.5" points="175.75,-109.25 121.75,-109.25 121.75,-73.25 175.75,-73.25 175.75,-109.25"/>
<text xml:space="preserve" text-anchor="middle" x="148.75" y="-86.97" font-family="Helvetica,sans-Serif" font-size="12.00">מ:דחי</text>
</g>
<!-- מ:אות&#45;מיוחדת&#45;במילה -->
<g id="node3" class="node">
<title>מ:אות&#45;מיוחדת&#45;במילה</title>
<polygon fill="none" stroke="black" points="338,-109.25 222.25,-109.25 222.25,-73.25 338,-73.25 338,-109.25"/>
<text xml:space="preserve" text-anchor="middle" x="280.12" y="-86.97" font-family="Helvetica,sans-Serif" font-size="12.00">מ:אות&#45;מיוחדת&#45;במילה</text>
</g>
<!-- מ:דחי&#45;&gt;מ:אות&#45;מיוחדת&#45;במילה -->
<g id="edge4" class="edge">
<title>מ:דחי&#45;&gt;מ:אות&#45;מיוחדת&#45;במילה</title>
<path fill="none" stroke="black" d="M176.87,-91.25C186.81,-91.25 198.56,-91.25 210.49,-91.25"/>
<polygon fill="black" stroke="black" points="210.41,-94.75 220.41,-91.25 210.41,-87.75 210.41,-94.75"/>
<text xml:space="preserve" text-anchor="middle" x="199" y="-93.2" font-family="Helvetica,sans-Serif" font-size="9.00">12</text>
</g>
<!-- כו״ק -->
<g id="node2" class="node">
<title>כו״ק</title>
<polygon fill="none" stroke="black" points="64.62,-163.25 10.62,-163.25 10.62,-127.25 64.62,-127.25 64.62,-163.25"/>
<text xml:space="preserve" text-anchor="middle" x="37.62" y="-140.97" font-family="Helvetica,sans-Serif" font-size="12.00">כו״ק</text>
</g>
<!-- כו״ק&#45;&gt;מ:דחי -->
<g id="edge1" class="edge">
<title>כו״ק&#45;&gt;מ:דחי</title>
<path fill="none" stroke="black" d="M65.04,-132.18C78.78,-125.38 95.79,-116.96 110.81,-109.53"/>
<polygon fill="black" stroke="black" points="112.05,-112.82 119.46,-105.25 108.95,-106.55 112.05,-112.82"/>
<text xml:space="preserve" text-anchor="middle" x="98.5" y="-118.58" font-family="Helvetica,sans-Serif" font-size="9.00">7</text>
</g>
<!-- מ:אות&#45;ג -->
<g id="node4" class="node">
<title>מ:אות&#45;ג</title>
<polygon fill="none" stroke="black" points="433.38,-136.25 379.38,-136.25 379.38,-100.25 433.38,-100.25 433.38,-136.25"/>
<text xml:space="preserve" text-anchor="middle" x="406.38" y="-113.97" font-family="Helvetica,sans-Serif" font-size="12.00">מ:אות&#45;ג</text>
</g>
<!-- מ:אות&#45;מיוחדת&#45;במילה&#45;&gt;מ:אות&#45;ג -->
<g id="edge2" class="edge">
<title>מ:אות&#45;מיוחדת&#45;במילה&#45;&gt;מ:אות&#45;ג</title>
<path fill="none" stroke="black" d="M338.16,-103.64C348.32,-105.85 358.66,-108.1 368.09,-110.15"/>
<polygon fill="black" stroke="black" points="367.07,-113.51 377.58,-112.21 368.56,-106.67 367.07,-113.51"/>
<text xml:space="preserve" text-anchor="middle" x="358.62" y="-109.91" font-family="Helvetica,sans-Serif" font-size="9.00">4</text>
</g>
<!-- מ:אות&#45;ק -->
<g id="node5" class="node">
<title>מ:אות&#45;ק</title>
<polygon fill="none" stroke="black" points="433.5,-82.25 379.25,-82.25 379.25,-46.25 433.5,-46.25 433.5,-82.25"/>
<text xml:space="preserve" text-anchor="middle" x="406.38" y="-59.98" font-family="Helvetica,sans-Serif" font-size="12.00">מ:אות&#45;ק</text>
</g>
<!-- מ:אות&#45;מיוחדת&#45;במילה&#45;&gt;מ:אות&#45;ק -->
<g id="edge3" class="edge">
<title>מ:אות&#45;מיוחדת&#45;במילה&#45;&gt;מ:אות&#45;ק</title>
<path fill="none" stroke="black" d="M338.16,-78.86C348.32,-76.65 358.66,-74.4 368.09,-72.35"/>
<polygon fill="black" stroke="black" points="368.56,-75.83 377.58,-70.29 367.07,-68.99 368.56,-75.83"/>
<text xml:space="preserve" text-anchor="middle" x="358.62" y="-76.49" font-family="Helvetica,sans-Serif" font-size="9.00">2</text>
</g>
<!-- מ:קו״כ&#45;אם&#45;2 -->
<g id="node6" class="node">
<title>מ:קו״כ&#45;אם&#45;2</title>
<polygon fill="none" stroke="black" points="75.25,-109.25 0,-109.25 0,-73.25 75.25,-73.25 75.25,-109.25"/>
<text xml:space="preserve" text-anchor="middle" x="37.62" y="-86.97" font-family="Helvetica,sans-Serif" font-size="12.00">מ:קו״כ&#45;אם&#45;2</text>
</g>
<!-- מ:קו״כ&#45;אם&#45;2&#45;&gt;מ:דחי -->
<g id="edge5" class="edge">
<title>מ:קו״כ&#45;אם&#45;2&#45;&gt;מ:דחי</title>
<path fill="none" stroke="black" d="M75.57,-91.25C86.38,-91.25 98.22,-91.25 109.13,-91.25"/>
<polygon fill="black" stroke="black" points="108.99,-94.75 118.99,-91.25 108.99,-87.75 108.99,-94.75"/>
<text xml:space="preserve" text-anchor="middle" x="98.5" y="-93.2" font-family="Helvetica,sans-Serif" font-size="9.00">8</text>
</g>
<!-- מ:קמץ -->
<g id="node7" class="node">
<title>מ:קמץ</title>
<polygon fill="none" stroke="black" points="64.62,-55.25 10.62,-55.25 10.62,-19.25 64.62,-19.25 64.62,-55.25"/>
<text xml:space="preserve" text-anchor="middle" x="37.62" y="-32.98" font-family="Helvetica,sans-Serif" font-size="12.00">מ:קמץ</text>
</g>
<!-- מ:קמץ&#45;&gt;מ:דחי -->
<g id="edge6" class="edge">
<title>מ:קמץ&#45;&gt;מ:דחי</title>
<path fill="none" stroke="black" d="M65.04,-50.32C78.78,-57.12 95.79,-65.54 110.81,-72.97"/>
<polygon fill="black" stroke="black" points="108.95,-75.95 119.46,-77.25 112.05,-69.68 108.95,-75.95"/>
<text xml:space="preserve" text-anchor="middle" x="98.5" y="-71.04" font-family="Helvetica,sans-Serif" font-size="9.00">14</text>
</g>
</g>
</svg>
