<?xml version="1.0" encoding="UTF-8" standalone="no"?>
<!DOCTYPE svg PUBLIC "-//W3C//DTD SVG 1.1//EN"
 "http://www.w3.org/Graphics/SVG/1.1/DTD/svg11.dtd">
<!-- Generated by graphviz version 16.0.0 (20260814.1018)
 -->
<!-- This file was generated by MAM-basics/py/main_tmpl_survey.py. -->
<!-- Title: template_call_graph Pages: 1 -->
<svg width="551pt" height="332pt"
 viewBox="0.00 0.00 551.00 332.00" xmlns="http://www.w3.org/2000/svg" xmlns:xlink="http://www.w3.org/1999/xlink">
<g id="graph0" class="graph" transform="scale(1 1) rotate(0) translate(4 328.25)">
<title>template_call_graph</title>
<polygon fill="white" stroke="none" points="-4,4 -4,-328.25 547,-328.25 547,4 -4,4"/>
<text xml:space="preserve" text-anchor="middle" x="271.5" y="-5.75" font-family="Times New Roman,serif" font-size="10.00">מ:כפול, נוסח have been discarded</text>
<!-- כו״ק, … -->
<g id="node1" class="node">
<title>כו״ק, …</title>
<g id="a_node1"><a xlink:title="כו״ק&#10;מ:קו״כ&#45;אם&#45;2&#10;קו״כ">
<polygon fill="none" stroke="black" points="54,-184.25 0,-184.25 0,-148.25 54,-148.25 54,-184.25"/>
<text xml:space="preserve" text-anchor="middle" x="27" y="-161.22" font-family="SBL Hebrew,Helvetica" font-size="12.00">כו״ק, …</text>
</a>
</g>
</g>
<!-- מ:אות&#45;מיוחדת&#45;במילה -->
<g id="node3" class="node">
<title>מ:אות&#45;מיוחדת&#45;במילה</title>
<polygon fill="none" stroke="black" points="426.5,-268.25 316.75,-268.25 316.75,-232.25 426.5,-232.25 426.5,-268.25"/>
<text xml:space="preserve" text-anchor="middle" x="371.62" y="-245.22" font-family="SBL Hebrew,Helvetica" font-size="12.00">מ:אות&#45;מיוחדת&#45;במילה</text>
</g>
<!-- כו״ק, …&#45;&gt;מ:אות&#45;מיוחדת&#45;במילה -->
<g id="edge1" class="edge">
<title>כו״ק, …&#45;&gt;מ:אות&#45;מיוחדת&#45;במילה</title>
<path fill="none" stroke="black" d="M48.33,-184.55C62.07,-195.86 81.17,-209.63 100.5,-217.25 166.9,-243.44 249.02,-250.21 305.17,-251.36"/>
<polygon fill="black" stroke="black" points="304.83,-254.86 314.88,-251.5 304.93,-247.86 304.83,-254.86"/>
<text xml:space="preserve" text-anchor="middle" x="177.75" y="-241.32" font-family="Helvetica,sans-Serif" font-size="9.00">2</text>
</g>
<!-- מ:דחי -->
<g id="node4" class="node">
<title>מ:דחי</title>
<polygon fill="none" stroke="black" points="262.62,-168.25 208.62,-168.25 208.62,-132.25 262.62,-132.25 262.62,-168.25"/>
<text xml:space="preserve" text-anchor="middle" x="235.62" y="-145.22" font-family="SBL Hebrew,Helvetica" font-size="12.00">מ:דחי</text>
</g>
<!-- כו״ק, …&#45;&gt;מ:דחי -->
<g id="edge2" class="edge">
<title>כו״ק, …&#45;&gt;מ:דחי</title>
<path fill="none" stroke="black" d="M54.36,-160.25C68.05,-157.42 85.09,-154.32 100.5,-152.75 133,-149.44 170.14,-149.01 197.09,-149.29"/>
<polygon fill="black" stroke="black" points="196.77,-152.79 206.82,-149.44 196.87,-145.79 196.77,-152.79"/>
<text xml:space="preserve" text-anchor="middle" x="127.5" y="-154.7" font-family="Helvetica,sans-Serif" font-size="9.00">15</text>
</g>
<!-- מ:לגרמיה&#45;2 -->
<g id="node5" class="node">
<title>מ:לגרמיה&#45;2</title>
<polygon fill="none" stroke="black" points="541.88,-115.25 474.12,-115.25 474.12,-79.25 541.88,-79.25 541.88,-115.25"/>
<text xml:space="preserve" text-anchor="middle" x="508" y="-92.22" font-family="SBL Hebrew,Helvetica" font-size="12.00">מ:לגרמיה&#45;2</text>
</g>
<!-- כו״ק, …&#45;&gt;מ:לגרמיה&#45;2 -->
<g id="edge3" class="edge">
<title>כו״ק, …&#45;&gt;מ:לגרמיה&#45;2</title>
<path fill="none" stroke="black" d="M42.17,-147.76C59.59,-127.32 91.21,-97.25 126.5,-97.25 126.5,-97.25 126.5,-97.25 372.62,-97.25 402.57,-97.25 436.26,-97.25 462.42,-97.25"/>
<polygon fill="black" stroke="black" points="462.35,-100.75 472.35,-97.25 462.35,-93.75 462.35,-100.75"/>
<text xml:space="preserve" text-anchor="middle" x="235.62" y="-99.2" font-family="Helvetica,sans-Serif" font-size="9.00">12</text>
</g>
<!-- מ:קמץ -->
<g id="node6" class="node">
<title>מ:קמץ</title>
<polygon fill="none" stroke="black" points="154.5,-208.25 100.5,-208.25 100.5,-172.25 154.5,-172.25 154.5,-208.25"/>
<text xml:space="preserve" text-anchor="middle" x="127.5" y="-185.22" font-family="SBL Hebrew,Helvetica" font-size="12.00">מ:קמץ</text>
</g>
<!-- כו״ק, …&#45;&gt;מ:קמץ -->
<g id="edge4" class="edge">
<title>כו״ק, …&#45;&gt;מ:קמץ</title>
<path fill="none" stroke="black" d="M54.4,-172.68C65,-175.26 77.41,-178.29 88.92,-181.09"/>
<polygon fill="black" stroke="black" points="88.02,-184.48 98.56,-183.44 89.67,-177.67 88.02,-184.48"/>
<text xml:space="preserve" text-anchor="middle" x="77.25" y="-180.92" font-family="Helvetica,sans-Serif" font-size="9.00">12</text>
</g>
<!-- מ:אות&#45;ג, … -->
<g id="node2" class="node">
<title>מ:אות&#45;ג, …</title>
<g id="a_node2"><a xlink:title="מ:אות&#45;ג&#10;מ:אות&#45;ק">
<polygon fill="none" stroke="black" points="540.75,-324.25 475.25,-324.25 475.25,-288.25 540.75,-288.25 540.75,-324.25"/>
<text xml:space="preserve" text-anchor="middle" x="508" y="-301.23" font-family="SBL Hebrew,Helvetica" font-size="12.00">מ:אות&#45;ג, …</text>
</a>
</g>
</g>
<!-- מ:אות&#45;מיוחדת&#45;במילה&#45;&gt;מ:אות&#45;ג, … -->
<g id="edge6" class="edge">
<title>מ:אות&#45;מיוחדת&#45;במילה&#45;&gt;מ:אות&#45;ג, …</title>
<path fill="none" stroke="black" d="M417,-268.74C432.25,-275.1 449.29,-282.2 464.4,-288.5"/>
<polygon fill="black" stroke="black" points="463.04,-291.72 473.61,-292.34 465.73,-285.26 463.04,-291.72"/>
<text xml:space="preserve" text-anchor="middle" x="449.75" y="-285.22" font-family="Helvetica,sans-Serif" font-size="9.00">53</text>
</g>
<!-- מ:אות&#45;מיוחדת&#45;במילה&#45;&gt;מ:לגרמיה&#45;2 -->
<g id="edge7" class="edge">
<title>מ:אות&#45;מיוחדת&#45;במילה&#45;&gt;מ:לגרמיה&#45;2</title>
<path fill="none" stroke="black" d="M388.83,-231.79C412.47,-204.88 456.52,-154.73 483.65,-123.84"/>
<polygon fill="black" stroke="black" points="486.18,-126.26 490.15,-116.43 480.92,-121.64 486.18,-126.26"/>
<text xml:space="preserve" text-anchor="middle" x="449.75" y="-166.54" font-family="Helvetica,sans-Serif" font-size="9.00">2</text>
</g>
<!-- מ:אות תלויה -->
<g id="node7" class="node">
<title>מ:אות תלויה</title>
<polygon fill="none" stroke="black" points="543,-267.25 473,-267.25 473,-231.25 543,-231.25 543,-267.25"/>
<text xml:space="preserve" text-anchor="middle" x="508" y="-244.22" font-family="SBL Hebrew,Helvetica" font-size="12.00">מ:אות תלויה</text>
</g>
<!-- מ:אות&#45;מיוחדת&#45;במילה&#45;&gt;מ:אות תלויה -->
<g id="edge5" class="edge">
<title>מ:אות&#45;מיוחדת&#45;במילה&#45;&gt;מ:אות תלויה</title>
<path fill="none" stroke="black" d="M426.89,-249.85C438.35,-249.76 450.34,-249.67 461.44,-249.59"/>
<polygon fill="black" stroke="black" points="461.14,-253.09 471.11,-249.52 461.09,-246.09 461.14,-253.09"/>
<text xml:space="preserve" text-anchor="middle" x="449.75" y="-251.64" font-family="Helvetica,sans-Serif" font-size="9.00">4</text>
</g>
<!-- מ:דחי&#45;&gt;מ:אות&#45;מיוחדת&#45;במילה -->
<g id="edge8" class="edge">
<title>מ:דחי&#45;&gt;מ:אות&#45;מיוחדת&#45;במילה</title>
<path fill="none" stroke="black" d="M261.2,-168.59C282.55,-184.52 313.65,-207.73 337.24,-225.34"/>
<polygon fill="black" stroke="black" points="334.88,-227.94 344.99,-231.12 339.07,-222.33 334.88,-227.94"/>
<text xml:space="preserve" text-anchor="middle" x="293.5" y="-196.21" font-family="Helvetica,sans-Serif" font-size="9.00">12</text>
</g>
<!-- מ:קמץ&#45;&gt;מ:דחי -->
<g id="edge13" class="edge">
<title>מ:קמץ&#45;&gt;מ:דחי</title>
<path fill="none" stroke="black" d="M154.73,-180.36C167.74,-175.46 183.67,-169.45 197.88,-164.1"/>
<polygon fill="black" stroke="black" points="198.79,-167.5 206.91,-160.7 196.32,-160.95 198.79,-167.5"/>
<text xml:space="preserve" text-anchor="middle" x="177.75" y="-174.59" font-family="Helvetica,sans-Serif" font-size="9.00">14</text>
</g>
<!-- מ:מקף אפור -->
<g id="node11" class="node">
<title>מ:מקף אפור</title>
<polygon fill="none" stroke="black" points="270.25,-222.25 201,-222.25 201,-186.25 270.25,-186.25 270.25,-222.25"/>
<text xml:space="preserve" text-anchor="middle" x="235.62" y="-199.22" font-family="SBL Hebrew,Helvetica" font-size="12.00">מ:מקף אפור</text>
</g>
<!-- מ:קמץ&#45;&gt;מ:מקף אפור -->
<g id="edge14" class="edge">
<title>מ:קמץ&#45;&gt;מ:מקף אפור</title>
<path fill="none" stroke="black" d="M154.73,-193.71C165.25,-195.1 177.66,-196.74 189.54,-198.3"/>
<polygon fill="black" stroke="black" points="188.8,-201.74 199.17,-199.57 189.72,-194.8 188.8,-201.74"/>
<text xml:space="preserve" text-anchor="middle" x="177.75" y="-199.2" font-family="Helvetica,sans-Serif" font-size="9.00">2</text>
</g>
<!-- מ:הערה&#45;2 -->
<g id="node8" class="node">
<title>מ:הערה&#45;2</title>
<polygon fill="none" stroke="black" points="266.12,-321.25 205.12,-321.25 205.12,-285.25 266.12,-285.25 266.12,-321.25"/>
<text xml:space="preserve" text-anchor="middle" x="235.62" y="-298.23" font-family="SBL Hebrew,Helvetica" font-size="12.00">מ:הערה&#45;2</text>
</g>
<!-- מ:הערה&#45;2&#45;&gt;מ:אות&#45;ג, … -->
<g id="edge9" class="edge">
<title>מ:הערה&#45;2&#45;&gt;מ:אות&#45;ג, …</title>
<path fill="none" stroke="black" d="M266.59,-303.58C314.37,-304.11 408.04,-305.15 463.29,-305.77"/>
<polygon fill="black" stroke="black" points="463.25,-309.26 473.29,-305.88 463.33,-302.27 463.25,-309.26"/>
<text xml:space="preserve" text-anchor="middle" x="371.62" y="-307.29" font-family="Helvetica,sans-Serif" font-size="9.00">6</text>
</g>
<!-- מ:הערה&#45;2&#45;&gt;מ:אות&#45;מיוחדת&#45;במילה -->
<g id="edge10" class="edge">
<title>מ:הערה&#45;2&#45;&gt;מ:אות&#45;מיוחדת&#45;במילה</title>
<path fill="none" stroke="black" d="M266.36,-291.49C280.22,-286.01 297.18,-279.3 313.37,-272.89"/>
<polygon fill="black" stroke="black" points="314.44,-276.24 322.45,-269.3 311.87,-269.73 314.44,-276.24"/>
<text xml:space="preserve" text-anchor="middle" x="293.5" y="-283.45" font-family="Helvetica,sans-Serif" font-size="9.00">6</text>
</g>
<!-- מ:כו״ק מיוחד -->
<g id="node9" class="node">
<title>מ:כו״ק מיוחד</title>
<polygon fill="none" stroke="black" points="408.88,-62.25 334.38,-62.25 334.38,-26.25 408.88,-26.25 408.88,-62.25"/>
<text xml:space="preserve" text-anchor="middle" x="371.62" y="-39.23" font-family="SBL Hebrew,Helvetica" font-size="12.00">מ:כו״ק מיוחד</text>
</g>
<!-- מ:כו״ק מיוחד&#45;&gt;מ:לגרמיה&#45;2 -->
<g id="edge11" class="edge">
<title>מ:כו״ק מיוחד&#45;&gt;מ:לגרמיה&#45;2</title>
<path fill="none" stroke="black" d="M409.02,-55.91C423.47,-60.77 440.14,-66.7 455,-72.75 457.76,-73.88 460.59,-75.07 463.43,-76.31"/>
<polygon fill="black" stroke="black" points="461.73,-79.38 472.29,-80.28 464.59,-72.99 461.73,-79.38"/>
<text xml:space="preserve" text-anchor="middle" x="449.75" y="-74.7" font-family="Helvetica,sans-Serif" font-size="9.00">1</text>
</g>
<!-- מ:פסק -->
<g id="node10" class="node">
<title>מ:פסק</title>
<polygon fill="none" stroke="black" points="535,-55.25 481,-55.25 481,-19.25 535,-19.25 535,-55.25"/>
<text xml:space="preserve" text-anchor="middle" x="508" y="-32.23" font-family="SBL Hebrew,Helvetica" font-size="12.00">מ:פסק</text>
</g>
<!-- מ:כו״ק מיוחד&#45;&gt;מ:פסק -->
<g id="edge12" class="edge">
<title>מ:כו״ק מיוחד&#45;&gt;מ:פסק</title>
<path fill="none" stroke="black" d="M409.17,-41.08C420.48,-40.2 433,-39.33 444.5,-38.75 452.44,-38.35 460.95,-38.06 469.06,-37.84"/>
<polygon fill="black" stroke="black" points="469.1,-41.34 479.02,-37.61 468.94,-34.34 469.1,-41.34"/>
<text xml:space="preserve" text-anchor="middle" x="449.75" y="-40.7" font-family="Helvetica,sans-Serif" font-size="9.00">5</text>
</g>
</g>
</svg>
