<?xml version="1.0" encoding="UTF-8" standalone="no"?>
<!DOCTYPE svg PUBLIC "-//W3C//DTD SVG 1.1//EN"
 "http://www.w3.org/Graphics/SVG/1.1/DTD/svg11.dtd">
<!-- Generated by graphviz version 16.0.0 (20260814.1018)
 -->
<!-- This file was generated by MAM-basics/py/main_tmpl_survey.py. -->
<!-- Title: template_call_graph Pages: 1 -->
<svg width="477pt" height="473pt"
 viewBox="0.00 0.00 477.00 473.00" xmlns="http://www.w3.org/2000/svg" xmlns:xlink="http://www.w3.org/1999/xlink">
<g id="graph0" class="graph" transform="scale(1 1) rotate(0) translate(4 469)">
<title>template_call_graph</title>
<polygon fill="white" stroke="none" points="-4,4 -4,-469 472.5,-469 472.5,4 -4,4"/>
<!-- מ:טעם ומתג באות אחת -->
<g id="node1" class="node">
<title>מ:טעם ומתג באות אחת</title>
<g id="a_node1"><a xlink:title="מ:טעם ומתג באות אחת">
<polygon fill="none" stroke="black" points="341,-343 254.5,-343 254.5,-307 341,-307 341,-343"/>
<text xml:space="preserve" text-anchor="middle" x="297.75" y="-320.73" font-family="Helvetica,sans-Serif" font-size="12.00">מ:טעם … אחת</text>
</a>
</g>
</g>
<!-- מ:כפול -->
<g id="node2" class="node">
<title>מ:כפול</title>
<polygon fill="#ffec8b" stroke="black" stroke-width="2.5" points="54,-230 0,-230 0,-194 54,-194 54,-230"/>
<text xml:space="preserve" text-anchor="middle" x="27" y="-207.72" font-family="Helvetica,sans-Serif" font-size="12.00">מ:כפול</text>
</g>
<!-- מ:כפול&#45;&gt;מ:טעם ומתג באות אחת -->
<g id="edge1" class="edge">
<title>מ:כפול&#45;&gt;מ:טעם ומתג באות אחת</title>
<path fill="none" stroke="black" d="M45,-231.01C72.68,-260.23 130.74,-314.62 193.75,-332 209.32,-336.3 226.7,-336.7 242.67,-335.42"/>
<polygon fill="black" stroke="black" points="242.93,-338.91 252.51,-334.38 242.19,-331.95 242.93,-338.91"/>
<text xml:space="preserve" text-anchor="middle" x="140.38" y="-327.09" font-family="Helvetica,sans-Serif" font-size="9.00">1</text>
</g>
<!-- שני טעמים באות אחת קמץ&#45;תחתון&#45;פתח&#45;עליון -->
<g id="node3" class="node">
<title>שני טעמים באות אחת קמץ&#45;תחתון&#45;פתח&#45;עליון</title>
<g id="a_node3"><a xlink:title="שני טעמים באות אחת קמץ&#45;תחתון&#45;פתח&#45;עליון">
<polygon fill="none" stroke="black" points="373.25,-406 222.25,-406 222.25,-370 373.25,-370 373.25,-406"/>
<text xml:space="preserve" text-anchor="middle" x="297.75" y="-383.73" font-family="Helvetica,sans-Serif" font-size="12.00">שני … קמץ&#45;תחתון&#45;פתח&#45;עליון</text>
</a>
</g>
</g>
<!-- מ:כפול&#45;&gt;שני טעמים באות אחת קמץ&#45;תחתון&#45;פתח&#45;עליון -->
<g id="edge8" class="edge">
<title>מ:כפול&#45;&gt;שני טעמים באות אחת קמץ&#45;תחתון&#45;פתח&#45;עליון</title>
<path fill="none" stroke="black" d="M35.71,-230.95C47.41,-257.87 71.85,-307.51 105,-340 137.49,-371.85 149.79,-379.27 193.75,-391 199.23,-392.46 204.93,-393.52 210.71,-394.24"/>
<polygon fill="black" stroke="black" points="210.11,-397.7 220.39,-395.11 210.74,-390.73 210.11,-397.7"/>
<text xml:space="preserve" text-anchor="middle" x="140.38" y="-387.68" font-family="Helvetica,sans-Serif" font-size="9.00">2</text>
</g>
<!-- מ:לגרמיה&#45;2 -->
<g id="node4" class="node">
<title>מ:לגרמיה&#45;2</title>
<polygon fill="none" stroke="black" points="175.75,-90 105,-90 105,-54 175.75,-54 175.75,-90"/>
<text xml:space="preserve" text-anchor="middle" x="140.38" y="-67.72" font-family="Helvetica,sans-Serif" font-size="12.00">מ:לגרמיה&#45;2</text>
</g>
<!-- מ:כפול&#45;&gt;מ:לגרמיה&#45;2 -->
<g id="edge2" class="edge">
<title>מ:כפול&#45;&gt;מ:לגרמיה&#45;2</title>
<path fill="none" stroke="black" d="M31.05,-192.78C35.81,-168.62 47.17,-127.18 72,-101.5 78.24,-95.05 86.14,-89.91 94.31,-85.86"/>
<polygon fill="black" stroke="black" points="95.57,-89.13 103.31,-81.9 92.75,-82.72 95.57,-89.13"/>
<text xml:space="preserve" text-anchor="middle" x="79.5" y="-103.45" font-family="Helvetica,sans-Serif" font-size="9.00">14</text>
</g>
<!-- מ:פסק -->
<g id="node5" class="node">
<title>מ:פסק</title>
<polygon fill="none" stroke="black" points="324.75,-465 270.75,-465 270.75,-429 324.75,-429 324.75,-465"/>
<text xml:space="preserve" text-anchor="middle" x="297.75" y="-442.73" font-family="Helvetica,sans-Serif" font-size="12.00">מ:פסק</text>
</g>
<!-- מ:כפול&#45;&gt;מ:פסק -->
<g id="edge3" class="edge">
<title>מ:כפול&#45;&gt;מ:פסק</title>
<path fill="none" stroke="black" d="M30.06,-231.07C35.23,-269.29 52.4,-355.41 105,-400 148.64,-436.99 216.89,-445.73 259.11,-447.33"/>
<polygon fill="black" stroke="black" points="258.94,-450.82 269.03,-447.57 259.11,-443.82 258.94,-450.82"/>
<text xml:space="preserve" text-anchor="middle" x="140.38" y="-436.32" font-family="Helvetica,sans-Serif" font-size="9.00">7</text>
</g>
<!-- מ:קמץ -->
<g id="node6" class="node">
<title>מ:קמץ</title>
<polygon fill="none" stroke="black" points="324.75,-212 270.75,-212 270.75,-176 324.75,-176 324.75,-212"/>
<text xml:space="preserve" text-anchor="middle" x="297.75" y="-189.72" font-family="Helvetica,sans-Serif" font-size="12.00">מ:קמץ</text>
</g>
<!-- מ:כפול&#45;&gt;מ:קמץ -->
<g id="edge4" class="edge">
<title>מ:כפול&#45;&gt;מ:קמץ</title>
<path fill="none" stroke="black" d="M55.24,-202.28C89.66,-191.08 150.88,-174.7 204.25,-179 222.56,-180.48 242.72,-183.57 259.53,-186.56"/>
<polygon fill="black" stroke="black" points="258.61,-189.95 269.08,-188.33 259.89,-183.07 258.61,-189.95"/>
<text xml:space="preserve" text-anchor="middle" x="140.38" y="-190.36" font-family="Helvetica,sans-Serif" font-size="9.00">4</text>
</g>
<!-- נוסח -->
<g id="node7" class="node">
<title>נוסח</title>
<polygon fill="none" stroke="black" points="167.38,-270 113.38,-270 113.38,-234 167.38,-234 167.38,-270"/>
<text xml:space="preserve" text-anchor="middle" x="140.38" y="-247.72" font-family="Helvetica,sans-Serif" font-size="12.00">נוסח</text>
</g>
<!-- מ:כפול&#45;&gt;נוסח -->
<g id="edge5" class="edge">
<title>מ:כפול&#45;&gt;נוסח</title>
<path fill="none" stroke="black" d="M55.25,-221.79C69.44,-226.88 87.02,-233.2 102.42,-238.73"/>
<polygon fill="black" stroke="black" points="101.16,-241.99 111.75,-242.08 103.52,-235.41 101.16,-241.99"/>
<text xml:space="preserve" text-anchor="middle" x="79.5" y="-233.95" font-family="Helvetica,sans-Serif" font-size="9.00">119</text>
</g>
<!-- סס -->
<g id="node8" class="node">
<title>סס</title>
<polygon fill="none" stroke="black" points="167.38,-36 113.38,-36 113.38,0 167.38,0 167.38,-36"/>
<text xml:space="preserve" text-anchor="middle" x="140.38" y="-13.72" font-family="Helvetica,sans-Serif" font-size="12.00">סס</text>
</g>
<!-- מ:כפול&#45;&gt;סס -->
<g id="edge6" class="edge">
<title>מ:כפול&#45;&gt;סס</title>
<path fill="none" stroke="black" d="M30.95,-193.04C35.93,-165.41 47.88,-113.27 72,-75.5 80.23,-62.61 92.23,-51.06 103.83,-41.76"/>
<polygon fill="black" stroke="black" points="105.93,-44.55 111.76,-35.71 101.69,-38.99 105.93,-44.55"/>
<text xml:space="preserve" text-anchor="middle" x="79.5" y="-77.45" font-family="Helvetica,sans-Serif" font-size="9.00">18</text>
</g>
<!-- פפ -->
<g id="node9" class="node">
<title>פפ</title>
<polygon fill="none" stroke="black" points="324.75,-149 270.75,-149 270.75,-113 324.75,-113 324.75,-149"/>
<text xml:space="preserve" text-anchor="middle" x="297.75" y="-126.72" font-family="Helvetica,sans-Serif" font-size="12.00">פפ</text>
</g>
<!-- מ:כפול&#45;&gt;פפ -->
<g id="edge7" class="edge">
<title>מ:כפול&#45;&gt;פפ</title>
<path fill="none" stroke="black" d="M53.43,-192.89C67.86,-182.96 86.64,-171.47 105,-164.5 156.25,-145.04 219.54,-136.79 259.04,-133.36"/>
<polygon fill="black" stroke="black" points="259.29,-136.85 268.98,-132.56 258.74,-129.87 259.29,-136.85"/>
<text xml:space="preserve" text-anchor="middle" x="140.38" y="-166.45" font-family="Helvetica,sans-Serif" font-size="9.00">2</text>
</g>
<!-- מ:טעם -->
<g id="node11" class="node">
<title>מ:טעם</title>
<polygon fill="none" stroke="black" points="468.5,-406 414.5,-406 414.5,-370 468.5,-370 468.5,-406"/>
<text xml:space="preserve" text-anchor="middle" x="441.5" y="-383.73" font-family="Helvetica,sans-Serif" font-size="12.00">מ:טעם</text>
</g>
<!-- שני טעמים באות אחת קמץ&#45;תחתון&#45;פתח&#45;עליון&#45;&gt;מ:טעם -->
<g id="edge15" class="edge">
<title>שני טעמים באות אחת קמץ&#45;תחתון&#45;פתח&#45;עליון&#45;&gt;מ:טעם</title>
<path fill="none" stroke="black" d="M373.36,-388C383.56,-388 393.66,-388 402.81,-388"/>
<polygon fill="black" stroke="black" points="402.7,-391.5 412.7,-388 402.7,-384.5 402.7,-391.5"/>
<text xml:space="preserve" text-anchor="middle" x="393.88" y="-389.95" font-family="Helvetica,sans-Serif" font-size="9.00">4</text>
</g>
<!-- נוסח&#45;&gt;מ:טעם ומתג באות אחת -->
<g id="edge9" class="edge">
<title>נוסח&#45;&gt;מ:טעם ומתג באות אחת</title>
<path fill="none" stroke="black" d="M167.73,-264.38C189.44,-274.58 220.82,-289.33 247.2,-301.72"/>
<polygon fill="black" stroke="black" points="245.5,-304.79 256.04,-305.87 248.48,-298.45 245.5,-304.79"/>
<text xml:space="preserve" text-anchor="middle" x="199" y="-281.76" font-family="Helvetica,sans-Serif" font-size="9.00">9</text>
</g>
<!-- נוסח&#45;&gt;שני טעמים באות אחת קמץ&#45;תחתון&#45;פתח&#45;עליון -->
<g id="edge14" class="edge">
<title>נוסח&#45;&gt;שני טעמים באות אחת קמץ&#45;תחתון&#45;פתח&#45;עליון</title>
<path fill="none" stroke="black" d="M152.55,-270.29C166.6,-292.06 192.51,-328.42 222.25,-352 228,-356.56 234.42,-360.73 241.01,-364.49"/>
<polygon fill="black" stroke="black" points="238.93,-367.35 249.4,-368.98 242.24,-361.18 238.93,-367.35"/>
<text xml:space="preserve" text-anchor="middle" x="199" y="-337.59" font-family="Helvetica,sans-Serif" font-size="9.00">6</text>
</g>
<!-- נוסח&#45;&gt;מ:פסק -->
<g id="edge10" class="edge">
<title>נוסח&#45;&gt;מ:פסק</title>
<path fill="none" stroke="black" d="M150.27,-270.33C170.67,-312.36 219.35,-412.26 222.25,-415 232.71,-424.9 246.72,-432 259.76,-436.96"/>
<polygon fill="black" stroke="black" points="258.36,-440.18 268.96,-440.14 260.65,-433.56 258.36,-440.18"/>
<text xml:space="preserve" text-anchor="middle" x="199" y="-380.21" font-family="Helvetica,sans-Serif" font-size="9.00">1</text>
</g>
<!-- נוסח&#45;&gt;מ:קמץ -->
<g id="edge11" class="edge">
<title>נוסח&#45;&gt;מ:קמץ</title>
<path fill="none" stroke="black" d="M167.73,-242.16C192.96,-232.75 231.25,-218.45 259.57,-207.88"/>
<polygon fill="black" stroke="black" points="260.7,-211.19 268.85,-204.42 258.25,-204.63 260.7,-211.19"/>
<text xml:space="preserve" text-anchor="middle" x="199" y="-233.53" font-family="Helvetica,sans-Serif" font-size="9.00">2</text>
</g>
<!-- נוסח&#45;&gt;פפ -->
<g id="edge12" class="edge">
<title>נוסח&#45;&gt;פפ</title>
<path fill="none" stroke="black" d="M155.58,-233.56C170.6,-214.96 195.75,-186.33 222.25,-167 233.76,-158.6 247.54,-151.3 260.1,-145.52"/>
<polygon fill="black" stroke="black" points="261.17,-148.87 268.91,-141.63 258.34,-142.47 261.17,-148.87"/>
<text xml:space="preserve" text-anchor="middle" x="199" y="-191.82" font-family="Helvetica,sans-Serif" font-size="9.00">1</text>
</g>
<!-- ש -->
<g id="node10" class="node">
<title>ש</title>
<polygon fill="none" stroke="black" points="324.75,-270 270.75,-270 270.75,-234 324.75,-234 324.75,-270"/>
<text xml:space="preserve" text-anchor="middle" x="297.75" y="-247.72" font-family="Helvetica,sans-Serif" font-size="12.00">ש</text>
</g>
<!-- נוסח&#45;&gt;ש -->
<g id="edge13" class="edge">
<title>נוסח&#45;&gt;ש</title>
<path fill="none" stroke="black" d="M167.73,-252C192.73,-252 230.57,-252 258.81,-252"/>
<polygon fill="black" stroke="black" points="258.75,-255.5 268.75,-252 258.75,-248.5 258.75,-255.5"/>
<text xml:space="preserve" text-anchor="middle" x="199" y="-253.95" font-family="Helvetica,sans-Serif" font-size="9.00">58</text>
</g>
</g>
</svg>
