<?xml version="1.0" encoding="UTF-8" standalone="no"?>
<!DOCTYPE svg PUBLIC "-//W3C//DTD SVG 1.1//EN"
 "http://www.w3.org/Graphics/SVG/1.1/DTD/svg11.dtd">
<!-- Generated by graphviz version 14.1.2 (20260124.0452)
 -->
<!-- Title: MAM process Pages: 1 -->
<svg width="549pt" height="494pt"
 viewBox="0.00 0.00 549.00 494.00" xmlns="http://www.w3.org/2000/svg" xmlns:xlink="http://www.w3.org/1999/xlink">
<g id="graph0" class="graph" transform="scale(1 1) rotate(0) translate(4 490)">
<title>MAM process</title>
<polygon fill="white" stroke="none" points="-4,4 -4,-490 544.75,-490 544.75,4 -4,4"/>
<!-- AHT_site -->
<g id="node1" class="node">
<title>AHT_site</title>
<polygon fill="none" stroke="black" points="307.62,-309 167.88,-309 167.88,-273 307.62,-273 307.62,-309"/>
<text xml:space="preserve" text-anchor="middle" x="237.75" y="-285.95" font-family="Times New Roman,serif" font-size="14.00">AHT (AlHaTorah) site</text>
</g>
<!-- AHT_downloads -->
<g id="node4" class="node">
<title>AHT_downloads</title>
<polygon fill="none" stroke="black" points="266.75,-236 160.75,-236 160.75,-200 266.75,-200 266.75,-236"/>
<text xml:space="preserve" text-anchor="middle" x="213.75" y="-212.95" font-family="Times New Roman,serif" font-size="14.00">AHT downloads</text>
</g>
<!-- AHT_site&#45;&gt;AHT_downloads -->
<g id="edge2" class="edge">
<title>AHT_site&#45;&gt;AHT_downloads</title>
<path fill="none" stroke="black" d="M231.94,-272.81C229.29,-264.96 226.08,-255.47 223.1,-246.66"/>
<polygon fill="black" stroke="black" points="226.51,-245.82 219.99,-237.46 219.88,-248.06 226.51,-245.82"/>
</g>
<!-- MAM_Go -->
<g id="node2" class="node">
<title>MAM_Go</title>
<polygon fill="none" stroke="black" points="506,-397.5 347.5,-397.5 347.5,-361.5 506,-361.5 506,-397.5"/>
<text xml:space="preserve" text-anchor="middle" x="426.75" y="-374.45" font-family="Times New Roman,serif" font-size="14.00">MAM&#45;Go (Google Sheet)</text>
</g>
<!-- Go_downloads -->
<g id="node5" class="node">
<title>Go_downloads</title>
<polygon fill="none" stroke="black" points="474.12,-309 379.38,-309 379.38,-273 474.12,-273 474.12,-309"/>
<text xml:space="preserve" text-anchor="middle" x="426.75" y="-285.95" font-family="Times New Roman,serif" font-size="14.00">Go downloads</text>
</g>
<!-- MAM_Go&#45;&gt;Go_downloads -->
<g id="edge3" class="edge">
<title>MAM_Go&#45;&gt;Go_downloads</title>
<path fill="none" stroke="black" d="M426.75,-361.41C426.75,-349.76 426.75,-334.05 426.75,-320.52"/>
<polygon fill="black" stroke="black" points="430.25,-320.86 426.75,-310.86 423.25,-320.86 430.25,-320.86"/>
</g>
<!-- MAM_Ws -->
<g id="node3" class="node">
<title>MAM_Ws</title>
<polygon fill="none" stroke="black" points="149.5,-309 0,-309 0,-273 149.5,-273 149.5,-309"/>
<text xml:space="preserve" text-anchor="middle" x="74.75" y="-285.95" font-family="Times New Roman,serif" font-size="14.00">MAM&#45;Ws (Wikisource)</text>
</g>
<!-- Ws_downloads -->
<g id="node6" class="node">
<title>Ws_downloads</title>
<polygon fill="none" stroke="black" points="130.25,-236 33.25,-236 33.25,-200 130.25,-200 130.25,-236"/>
<text xml:space="preserve" text-anchor="middle" x="81.75" y="-212.95" font-family="Times New Roman,serif" font-size="14.00">Ws downloads</text>
</g>
<!-- MAM_Ws&#45;&gt;Ws_downloads -->
<g id="edge4" class="edge">
<title>MAM_Ws&#45;&gt;Ws_downloads</title>
<path fill="none" stroke="black" d="M76.44,-272.81C77.2,-265.14 78.11,-255.89 78.97,-247.24"/>
<polygon fill="black" stroke="black" points="82.42,-247.83 79.92,-237.54 75.46,-247.14 82.42,-247.83"/>
</g>
<!-- AHT_MAM_diff -->
<g id="node9" class="node">
<title>AHT_MAM_diff</title>
<polygon fill="none" stroke="black" stroke-dasharray="5,2" points="291.75,-163 185.75,-163 185.75,-127 291.75,-127 291.75,-163"/>
<text xml:space="preserve" text-anchor="middle" x="238.75" y="-139.95" font-family="Times New Roman,serif" font-size="14.00">AHT&#45;MAM diff</text>
</g>
<!-- AHT_downloads&#45;&gt;AHT_MAM_diff -->
<g id="edge9" class="edge">
<title>AHT_downloads&#45;&gt;AHT_MAM_diff</title>
<path fill="none" stroke="black" d="M219.8,-199.81C222.57,-191.96 225.91,-182.47 229.01,-173.66"/>
<polygon fill="black" stroke="black" points="232.23,-175.05 232.25,-164.46 225.63,-172.73 232.23,-175.05"/>
</g>
<!-- parsed_plain -->
<g id="node7" class="node">
<title>parsed_plain</title>
<polygon fill="none" stroke="black" points="367.12,-236 284.38,-236 284.38,-200 367.12,-200 367.12,-236"/>
<text xml:space="preserve" text-anchor="middle" x="325.75" y="-212.95" font-family="Times New Roman,serif" font-size="14.00">parsed&#45;plain</text>
</g>
<!-- Go_downloads&#45;&gt;parsed_plain -->
<g id="edge5" class="edge">
<title>Go_downloads&#45;&gt;parsed_plain</title>
<path fill="none" stroke="black" d="M402.04,-272.63C389.33,-263.69 373.63,-252.66 359.78,-242.92"/>
<polygon fill="black" stroke="black" points="361.98,-240.19 351.79,-237.31 357.96,-245.92 361.98,-240.19"/>
</g>
<!-- parsed_plus -->
<g id="node8" class="node">
<title>parsed_plus</title>
<polygon fill="none" stroke="black" points="480.88,-236 402.62,-236 402.62,-200 480.88,-200 480.88,-236"/>
<text xml:space="preserve" text-anchor="middle" x="441.75" y="-212.95" font-family="Times New Roman,serif" font-size="14.00">parsed&#45;plus</text>
</g>
<!-- Go_downloads&#45;&gt;parsed_plus -->
<g id="edge6" class="edge">
<title>Go_downloads&#45;&gt;parsed_plus</title>
<path fill="none" stroke="black" d="M430.38,-272.81C432,-265.14 433.96,-255.89 435.78,-247.24"/>
<polygon fill="black" stroke="black" points="439.2,-248.02 437.84,-237.51 432.35,-246.57 439.2,-248.02"/>
</g>
<!-- Ws_Go_diff -->
<g id="node10" class="node">
<title>Ws_Go_diff</title>
<polygon fill="none" stroke="black" stroke-dasharray="5,2" points="165.25,-163 86.25,-163 86.25,-127 165.25,-127 165.25,-163"/>
<text xml:space="preserve" text-anchor="middle" x="125.75" y="-139.95" font-family="Times New Roman,serif" font-size="14.00">Ws&#45;Go diff</text>
</g>
<!-- Ws_downloads&#45;&gt;Ws_Go_diff -->
<g id="edge10" class="edge">
<title>Ws_downloads&#45;&gt;Ws_Go_diff</title>
<path fill="none" stroke="black" d="M92.4,-199.81C97.43,-191.7 103.54,-181.84 109.16,-172.78"/>
<polygon fill="black" stroke="black" points="112.11,-174.66 114.4,-164.32 106.16,-170.97 112.11,-174.66"/>
</g>
<!-- parsed_plain&#45;&gt;parsed_plus -->
<!-- parsed_plain&#45;&gt;AHT_MAM_diff -->
<g id="edge7" class="edge">
<title>parsed_plain&#45;&gt;AHT_MAM_diff</title>
<path fill="none" stroke="black" d="M304.69,-199.81C293.87,-190.98 280.5,-180.07 268.63,-170.39"/>
<polygon fill="black" stroke="black" points="271.05,-167.84 261.09,-164.23 266.63,-173.27 271.05,-167.84"/>
</g>
<!-- parsed_plain&#45;&gt;Ws_Go_diff -->
<g id="edge8" class="edge">
<title>parsed_plain&#45;&gt;Ws_Go_diff</title>
<path fill="none" stroke="black" d="M284.31,-202.29C252.82,-191.11 209.37,-175.69 175.92,-163.81"/>
<polygon fill="black" stroke="black" points="177.45,-160.64 166.86,-160.59 175.11,-167.24 177.45,-160.64"/>
</g>
<!-- XML -->
<g id="node11" class="node">
<title>XML</title>
<polygon fill="none" stroke="black" points="468.75,-163 414.75,-163 414.75,-127 468.75,-127 468.75,-163"/>
<text xml:space="preserve" text-anchor="middle" x="441.75" y="-139.95" font-family="Times New Roman,serif" font-size="14.00">XML</text>
</g>
<!-- parsed_plus&#45;&gt;XML -->
<g id="edge13" class="edge">
<title>parsed_plus&#45;&gt;XML</title>
<path fill="none" stroke="black" d="M441.75,-199.81C441.75,-192.23 441.75,-183.1 441.75,-174.54"/>
<polygon fill="black" stroke="black" points="445.25,-174.54 441.75,-164.54 438.25,-174.54 445.25,-174.54"/>
</g>
<!-- JPS -->
<g id="node12" class="node">
<title>JPS</title>
<polygon fill="none" stroke="black" points="540.75,-163 486.75,-163 486.75,-127 540.75,-127 540.75,-163"/>
<text xml:space="preserve" text-anchor="middle" x="513.75" y="-139.95" font-family="Times New Roman,serif" font-size="14.00">JPS</text>
</g>
<!-- parsed_plus&#45;&gt;JPS -->
<g id="edge14" class="edge">
<title>parsed_plus&#45;&gt;JPS</title>
<path fill="none" stroke="black" d="M459.18,-199.81C467.87,-191.24 478.55,-180.71 488.15,-171.24"/>
<polygon fill="black" stroke="black" points="490.49,-173.85 495.15,-164.34 485.58,-168.87 490.49,-173.85"/>
</g>
<!-- with_doc -->
<g id="node13" class="node">
<title>with_doc</title>
<polygon fill="none" stroke="black" points="396.38,-163 321.12,-163 321.12,-127 396.38,-127 396.38,-163"/>
<text xml:space="preserve" text-anchor="middle" x="358.75" y="-139.95" font-family="Times New Roman,serif" font-size="14.00">&quot;with doc&quot;</text>
</g>
<!-- parsed_plus&#45;&gt;with_doc -->
<g id="edge15" class="edge">
<title>parsed_plus&#45;&gt;with_doc</title>
<path fill="none" stroke="black" d="M421.66,-199.81C411.44,-191.07 398.83,-180.28 387.59,-170.67"/>
<polygon fill="black" stroke="black" points="389.97,-168.1 380.09,-164.26 385.42,-173.42 389.97,-168.1"/>
</g>
<!-- Sefaria -->
<g id="node14" class="node">
<title>Sefaria</title>
<polygon fill="none" stroke="black" points="432.88,-90 378.62,-90 378.62,-54 432.88,-54 432.88,-90"/>
<text xml:space="preserve" text-anchor="middle" x="405.75" y="-66.95" font-family="Times New Roman,serif" font-size="14.00">Sefaria</text>
</g>
<!-- XML&#45;&gt;Sefaria -->
<g id="edge16" class="edge">
<title>XML&#45;&gt;Sefaria</title>
<path fill="none" stroke="black" d="M433.04,-126.81C428.97,-118.79 424.03,-109.05 419.48,-100.07"/>
<polygon fill="black" stroke="black" points="422.71,-98.71 415.07,-91.38 416.47,-101.88 422.71,-98.71"/>
</g>
<!-- OSIS -->
<g id="node15" class="node">
<title>OSIS</title>
<polygon fill="none" stroke="black" points="504.75,-90 450.75,-90 450.75,-54 504.75,-54 504.75,-90"/>
<text xml:space="preserve" text-anchor="middle" x="477.75" y="-66.95" font-family="Times New Roman,serif" font-size="14.00">OSIS</text>
</g>
<!-- XML&#45;&gt;OSIS -->
<g id="edge17" class="edge">
<title>XML&#45;&gt;OSIS</title>
<path fill="none" stroke="black" d="M450.46,-126.81C454.53,-118.79 459.47,-109.05 464.02,-100.07"/>
<polygon fill="black" stroke="black" points="467.03,-101.88 468.43,-91.38 460.79,-98.71 467.03,-101.88"/>
</g>
<!-- AHT_MAM_diff_source -->
<g id="node16" class="node">
<title>AHT_MAM_diff_source</title>
<polygon fill="none" stroke="black" stroke-dasharray="5,2" points="290.75,-397.5 184.75,-397.5 184.75,-361.5 290.75,-361.5 290.75,-397.5"/>
<text xml:space="preserve" text-anchor="middle" x="237.75" y="-374.45" font-family="Times New Roman,serif" font-size="14.00">AHT&#45;MAM diff</text>
</g>
<!-- AHT_MAM_diff_source&#45;&gt;AHT_site -->
<g id="edge11" class="edge">
<title>AHT_MAM_diff_source&#45;&gt;AHT_site</title>
<path fill="none" stroke="black" d="M237.75,-361.41C237.75,-349.76 237.75,-334.05 237.75,-320.52"/>
<polygon fill="black" stroke="black" points="241.25,-320.86 237.75,-310.86 234.25,-320.86 241.25,-320.86"/>
<text xml:space="preserve" text-anchor="middle" x="270" y="-330.2" font-family="Times New Roman,serif" font-size="14.00">manual edit</text>
</g>
<!-- Ws_Go_diff_source -->
<g id="node17" class="node">
<title>Ws_Go_diff_source</title>
<polygon fill="none" stroke="black" stroke-dasharray="5,2" points="466.25,-486 387.25,-486 387.25,-450 466.25,-450 466.25,-486"/>
<text xml:space="preserve" text-anchor="middle" x="426.75" y="-462.95" font-family="Times New Roman,serif" font-size="14.00">Ws&#45;Go diff</text>
</g>
<!-- Ws_Go_diff_source&#45;&gt;MAM_Go -->
<g id="edge12" class="edge">
<title>Ws_Go_diff_source&#45;&gt;MAM_Go</title>
<path fill="none" stroke="black" d="M426.75,-449.91C426.75,-438.26 426.75,-422.55 426.75,-409.02"/>
<polygon fill="black" stroke="black" points="430.25,-409.36 426.75,-399.36 423.25,-409.36 430.25,-409.36"/>
<text xml:space="preserve" text-anchor="middle" x="450.75" y="-418.7" font-family="Times New Roman,serif" font-size="14.00">auto&#45;edit</text>
</g>
<!-- caption -->
<g id="node18" class="node">
<title>caption</title>
<text xml:space="preserve" text-anchor="middle" x="405.75" y="-19.75" font-family="Times New Roman,serif" font-size="10.00">Dashed boxes are duplicated to show</text>
<text xml:space="preserve" text-anchor="middle" x="405.75" y="-8.5" font-family="Times New Roman,serif" font-size="10.00">feedback loops without upward arrows.</text>
</g>
</g>
</svg>
